M48
; DRILL file {KiCad 8.0.4} date 2024-08-28T23:43:13-0700
; FORMAT={-:-/ absolute / metric / decimal}
; #@! TF.CreationDate,2024-08-28T23:43:13-07:00
; #@! TF.GenerationSoftware,Kicad,Pcbnew,8.0.4
; #@! TF.FileFunction,MixedPlating,1,4
FMAT,2
METRIC
; #@! TA.AperFunction,Plated,PTH,ViaDrill
T1C0.300
; #@! TA.AperFunction,Plated,PTH,ComponentDrill
T2C1.000
; #@! TA.AperFunction,Plated,PTH,ComponentDrill
T3C1.020
; #@! TA.AperFunction,Plated,PTH,ComponentDrill
T4C2.410
; #@! TA.AperFunction,NonPlated,NPTH,ComponentDrill
T5C1.020
; #@! TA.AperFunction,NonPlated,NPTH,ComponentDrill
T6C2.200
%
G90
G05
T1
X128.27Y-78.74
X128.27Y-81.788
X128.727Y-110.998
X129.591Y-110.998
X130.302Y-79.248
X130.81Y-126.746
X132.08Y-126.238
X132.334Y-78.74
X132.334Y-81.788
X133.35Y-126.746
X133.858Y-93.472
X135.484Y-96.418
X137.719Y-102.819
X137.719Y-104.115
X137.719Y-105.308
X137.744Y-100.381
X137.744Y-101.524
X139.243Y-105.334
X139.268Y-100.406
X140.691Y-105.334
X140.716Y-100.406
X141.986Y-127.762
X142.088Y-105.334
X142.113Y-100.406
X143.002Y-127.762
X143.256Y-126.746
X143.535Y-105.308
X143.561Y-100.381
X143.561Y-102.667
X143.586Y-103.734
X143.612Y-101.448
X144.272Y-125.984
X144.882Y-85.065
X145.034Y-99.314
X145.288Y-125.984
X145.399Y-100.387
X146.609Y-105.479
X146.634Y-127.102
X147.142Y-125.578
X147.498Y-94.717
X147.98Y-126.416
X148.031Y-96.698
X148.59Y-124.714
X148.59Y-125.476
X148.755Y-93.548
X149.149Y-108.661
X149.535Y-107.122
X149.586Y-107.991
X150.292Y-106.858
X150.343Y-105.943
X150.48Y-105.155
X150.799Y-103.09
X151.003Y-100.101
X151.13Y-104.648
X151.323Y-102.286
X151.663Y-94.336
X151.685Y-113.163
X151.704Y-95.285
X152.4Y-108.255
X152.476Y-100.381
X153.111Y-130.023
X153.111Y-130.861
X153.162Y-128.346
X153.162Y-129.184
X153.187Y-125.832
X153.187Y-126.644
X153.187Y-127.508
X153.238Y-84.963
X153.445Y-108.378
X153.797Y-100.305
X154.0Y-130.023
X154.0Y-130.861
X154.051Y-128.346
X154.051Y-129.184
X154.076Y-125.832
X154.076Y-126.644
X154.076Y-127.508
X154.285Y-108.204
X154.762Y-100.305
X154.915Y-107.569
X154.991Y-94.183
X154.991Y-130.023
X154.991Y-130.861
X155.042Y-128.346
X155.042Y-129.184
X155.067Y-125.832
X155.067Y-126.644
X155.067Y-127.508
X155.118Y-97.409
X155.727Y-100.178
X155.753Y-108.509
X155.778Y-94.615
X155.905Y-130.023
X155.905Y-130.861
X155.956Y-128.346
X155.956Y-129.184
X155.981Y-125.832
X155.981Y-126.644
X155.981Y-127.508
X156.87Y-106.502
X157.201Y-108.636
X157.319Y-101.066
X157.734Y-105.08
X157.786Y-106.516
X157.836Y-101.676
X157.858Y-96.095
X157.877Y-102.585
X157.912Y-107.34
X157.918Y-103.384
X158.039Y-104.191
X158.242Y-108.534
X158.318Y-115.418
X158.75Y-132.588
X159.36Y-110.084
X159.639Y-125.857
X161.773Y-130.683
X161.773Y-131.648
X161.773Y-131.648
X161.773Y-132.537
X162.48Y-105.94
X162.941Y-115.005
X163.38Y-106.003
X163.39Y-107.203
X164.0Y-108.25
X164.516Y-105.613
X166.75Y-112.5
X167.64Y-135.382
X167.691Y-104.673
X169.139Y-108.356
X171.704Y-132.588
X172.644Y-103.81
X172.771Y-99.212
X173.533Y-99.212
X173.558Y-103.81
X174.244Y-99.212
X174.498Y-103.81
X174.93Y-99.212
X175.438Y-103.81
T2
X116.67Y-79.22
X116.67Y-81.76
X116.67Y-84.3
X116.67Y-86.84
X116.67Y-89.38
X116.67Y-91.92
X116.67Y-94.46
X116.67Y-97.0
X116.67Y-99.54
X116.67Y-113.32
X116.67Y-115.86
X116.67Y-118.4
X116.67Y-120.94
X116.67Y-123.48
X116.67Y-126.02
X116.67Y-128.56
X116.67Y-131.1
X116.67Y-133.64
X119.21Y-79.22
X119.21Y-81.76
X119.21Y-84.3
X119.21Y-86.84
X119.21Y-89.38
X119.21Y-91.92
X119.21Y-94.46
X119.21Y-97.0
X119.21Y-99.54
X119.21Y-113.32
X119.21Y-115.86
X119.21Y-118.4
X119.21Y-120.94
X119.21Y-123.48
X119.21Y-126.02
X119.21Y-128.56
X119.21Y-131.1
X119.21Y-133.64
X141.326Y-115.519
X141.326Y-118.059
X143.866Y-115.519
X143.866Y-118.059
X144.78Y-138.43
X146.406Y-115.519
X146.406Y-118.059
X147.32Y-138.43
X148.946Y-115.519
X148.946Y-118.059
X149.86Y-138.43
X152.4Y-138.43
X159.512Y-138.405
X162.052Y-138.405
X162.76Y-91.82
X162.76Y-94.36
X162.76Y-96.9
X165.3Y-91.82
X165.3Y-94.36
X165.3Y-96.9
T3
X130.31Y-106.96
X130.31Y-109.96
X132.08Y-127.81
X132.08Y-130.81
X133.31Y-106.96
X133.31Y-109.96
X143.5Y-78.25
X146.5Y-78.25
X168.75Y-79.06
X168.75Y-82.06
X172.5Y-121.25
X175.5Y-121.25
T4
X129.93Y-129.31
X131.81Y-104.81
X131.81Y-112.11
X134.23Y-129.31
X145.0Y-76.1
X145.0Y-80.4
X166.6Y-80.56
X170.9Y-80.56
X174.0Y-119.1
X174.0Y-123.4
T5
X129.08Y-126.87
X129.37Y-103.96
X129.37Y-112.96
X135.08Y-126.87
X147.44Y-75.25
X147.44Y-81.25
X165.75Y-83.0
X171.56Y-118.25
X171.56Y-124.25
X171.75Y-83.0
T6
X113.36Y-138.92
X113.36Y-73.914
X136.36Y-138.92
X136.36Y-73.914
X178.36Y-73.92
X178.37Y-138.92
M30
