%TF.GenerationSoftware,KiCad,Pcbnew,8.0.4*%
%TF.CreationDate,2024-08-28T23:43:30-07:00*%
%TF.ProjectId,Modubot,4d6f6475-626f-4742-9e6b-696361645f70,rev?*%
%TF.SameCoordinates,Original*%
%TF.FileFunction,Legend,Bot*%
%TF.FilePolarity,Positive*%
%FSLAX46Y46*%
G04 Gerber Fmt 4.6, Leading zero omitted, Abs format (unit mm)*
G04 Created by KiCad (PCBNEW 8.0.4) date 2024-08-28 23:43:30*
%MOMM*%
%LPD*%
G01*
G04 APERTURE LIST*
%ADD10C,0.100000*%
%ADD11C,0.150000*%
%ADD12C,0.000000*%
%ADD13C,0.120000*%
%ADD14C,0.152400*%
G04 APERTURE END LIST*
D10*
X140713734Y-95512760D02*
X140237544Y-95512760D01*
X140808972Y-95798475D02*
X140475639Y-94798475D01*
X140475639Y-94798475D02*
X140142306Y-95798475D01*
X139951829Y-94798475D02*
X139380401Y-94798475D01*
X139666115Y-95798475D02*
X139666115Y-94798475D01*
X138332781Y-95750856D02*
X138189924Y-95798475D01*
X138189924Y-95798475D02*
X137951829Y-95798475D01*
X137951829Y-95798475D02*
X137856591Y-95750856D01*
X137856591Y-95750856D02*
X137808972Y-95703236D01*
X137808972Y-95703236D02*
X137761353Y-95607998D01*
X137761353Y-95607998D02*
X137761353Y-95512760D01*
X137761353Y-95512760D02*
X137808972Y-95417522D01*
X137808972Y-95417522D02*
X137856591Y-95369903D01*
X137856591Y-95369903D02*
X137951829Y-95322284D01*
X137951829Y-95322284D02*
X138142305Y-95274665D01*
X138142305Y-95274665D02*
X138237543Y-95227046D01*
X138237543Y-95227046D02*
X138285162Y-95179427D01*
X138285162Y-95179427D02*
X138332781Y-95084189D01*
X138332781Y-95084189D02*
X138332781Y-94988951D01*
X138332781Y-94988951D02*
X138285162Y-94893713D01*
X138285162Y-94893713D02*
X138237543Y-94846094D01*
X138237543Y-94846094D02*
X138142305Y-94798475D01*
X138142305Y-94798475D02*
X137904210Y-94798475D01*
X137904210Y-94798475D02*
X137761353Y-94846094D01*
X136951829Y-95750856D02*
X137047067Y-95798475D01*
X137047067Y-95798475D02*
X137237543Y-95798475D01*
X137237543Y-95798475D02*
X137332781Y-95750856D01*
X137332781Y-95750856D02*
X137380400Y-95655617D01*
X137380400Y-95655617D02*
X137380400Y-95274665D01*
X137380400Y-95274665D02*
X137332781Y-95179427D01*
X137332781Y-95179427D02*
X137237543Y-95131808D01*
X137237543Y-95131808D02*
X137047067Y-95131808D01*
X137047067Y-95131808D02*
X136951829Y-95179427D01*
X136951829Y-95179427D02*
X136904210Y-95274665D01*
X136904210Y-95274665D02*
X136904210Y-95369903D01*
X136904210Y-95369903D02*
X137380400Y-95465141D01*
X136047067Y-95131808D02*
X136047067Y-95941332D01*
X136047067Y-95941332D02*
X136094686Y-96036570D01*
X136094686Y-96036570D02*
X136142305Y-96084189D01*
X136142305Y-96084189D02*
X136237543Y-96131808D01*
X136237543Y-96131808D02*
X136380400Y-96131808D01*
X136380400Y-96131808D02*
X136475638Y-96084189D01*
X136047067Y-95750856D02*
X136142305Y-95798475D01*
X136142305Y-95798475D02*
X136332781Y-95798475D01*
X136332781Y-95798475D02*
X136428019Y-95750856D01*
X136428019Y-95750856D02*
X136475638Y-95703236D01*
X136475638Y-95703236D02*
X136523257Y-95607998D01*
X136523257Y-95607998D02*
X136523257Y-95322284D01*
X136523257Y-95322284D02*
X136475638Y-95227046D01*
X136475638Y-95227046D02*
X136428019Y-95179427D01*
X136428019Y-95179427D02*
X136332781Y-95131808D01*
X136332781Y-95131808D02*
X136142305Y-95131808D01*
X136142305Y-95131808D02*
X136047067Y-95179427D01*
X135570876Y-95798475D02*
X135570876Y-95131808D01*
X135570876Y-95227046D02*
X135523257Y-95179427D01*
X135523257Y-95179427D02*
X135428019Y-95131808D01*
X135428019Y-95131808D02*
X135285162Y-95131808D01*
X135285162Y-95131808D02*
X135189924Y-95179427D01*
X135189924Y-95179427D02*
X135142305Y-95274665D01*
X135142305Y-95274665D02*
X135142305Y-95798475D01*
X135142305Y-95274665D02*
X135094686Y-95179427D01*
X135094686Y-95179427D02*
X134999448Y-95131808D01*
X134999448Y-95131808D02*
X134856591Y-95131808D01*
X134856591Y-95131808D02*
X134761352Y-95179427D01*
X134761352Y-95179427D02*
X134713733Y-95274665D01*
X134713733Y-95274665D02*
X134713733Y-95798475D01*
X133856591Y-95750856D02*
X133951829Y-95798475D01*
X133951829Y-95798475D02*
X134142305Y-95798475D01*
X134142305Y-95798475D02*
X134237543Y-95750856D01*
X134237543Y-95750856D02*
X134285162Y-95655617D01*
X134285162Y-95655617D02*
X134285162Y-95274665D01*
X134285162Y-95274665D02*
X134237543Y-95179427D01*
X134237543Y-95179427D02*
X134142305Y-95131808D01*
X134142305Y-95131808D02*
X133951829Y-95131808D01*
X133951829Y-95131808D02*
X133856591Y-95179427D01*
X133856591Y-95179427D02*
X133808972Y-95274665D01*
X133808972Y-95274665D02*
X133808972Y-95369903D01*
X133808972Y-95369903D02*
X134285162Y-95465141D01*
X133380400Y-95131808D02*
X133380400Y-95798475D01*
X133380400Y-95227046D02*
X133332781Y-95179427D01*
X133332781Y-95179427D02*
X133237543Y-95131808D01*
X133237543Y-95131808D02*
X133094686Y-95131808D01*
X133094686Y-95131808D02*
X132999448Y-95179427D01*
X132999448Y-95179427D02*
X132951829Y-95274665D01*
X132951829Y-95274665D02*
X132951829Y-95798475D01*
X132618495Y-95131808D02*
X132237543Y-95131808D01*
X132475638Y-94798475D02*
X132475638Y-95655617D01*
X132475638Y-95655617D02*
X132428019Y-95750856D01*
X132428019Y-95750856D02*
X132332781Y-95798475D01*
X132332781Y-95798475D02*
X132237543Y-95798475D01*
X140713734Y-97122704D02*
X140237544Y-97122704D01*
X140808972Y-97408419D02*
X140475639Y-96408419D01*
X140475639Y-96408419D02*
X140142306Y-97408419D01*
X139666115Y-97408419D02*
X139761353Y-97360800D01*
X139761353Y-97360800D02*
X139808972Y-97265561D01*
X139808972Y-97265561D02*
X139808972Y-96408419D01*
X139285162Y-96741752D02*
X139285162Y-97741752D01*
X139285162Y-96789371D02*
X139189924Y-96741752D01*
X139189924Y-96741752D02*
X138999448Y-96741752D01*
X138999448Y-96741752D02*
X138904210Y-96789371D01*
X138904210Y-96789371D02*
X138856591Y-96836990D01*
X138856591Y-96836990D02*
X138808972Y-96932228D01*
X138808972Y-96932228D02*
X138808972Y-97217942D01*
X138808972Y-97217942D02*
X138856591Y-97313180D01*
X138856591Y-97313180D02*
X138904210Y-97360800D01*
X138904210Y-97360800D02*
X138999448Y-97408419D01*
X138999448Y-97408419D02*
X139189924Y-97408419D01*
X139189924Y-97408419D02*
X139285162Y-97360800D01*
X138380400Y-97408419D02*
X138380400Y-96408419D01*
X137951829Y-97408419D02*
X137951829Y-96884609D01*
X137951829Y-96884609D02*
X137999448Y-96789371D01*
X137999448Y-96789371D02*
X138094686Y-96741752D01*
X138094686Y-96741752D02*
X138237543Y-96741752D01*
X138237543Y-96741752D02*
X138332781Y-96789371D01*
X138332781Y-96789371D02*
X138380400Y-96836990D01*
X137047067Y-97408419D02*
X137047067Y-96884609D01*
X137047067Y-96884609D02*
X137094686Y-96789371D01*
X137094686Y-96789371D02*
X137189924Y-96741752D01*
X137189924Y-96741752D02*
X137380400Y-96741752D01*
X137380400Y-96741752D02*
X137475638Y-96789371D01*
X137047067Y-97360800D02*
X137142305Y-97408419D01*
X137142305Y-97408419D02*
X137380400Y-97408419D01*
X137380400Y-97408419D02*
X137475638Y-97360800D01*
X137475638Y-97360800D02*
X137523257Y-97265561D01*
X137523257Y-97265561D02*
X137523257Y-97170323D01*
X137523257Y-97170323D02*
X137475638Y-97075085D01*
X137475638Y-97075085D02*
X137380400Y-97027466D01*
X137380400Y-97027466D02*
X137142305Y-97027466D01*
X137142305Y-97027466D02*
X137047067Y-96979847D01*
X135904209Y-96741752D02*
X135666114Y-97408419D01*
X135666114Y-97408419D02*
X135428019Y-96741752D01*
X134523257Y-97408419D02*
X135094685Y-97408419D01*
X134808971Y-97408419D02*
X134808971Y-96408419D01*
X134808971Y-96408419D02*
X134904209Y-96551276D01*
X134904209Y-96551276D02*
X134999447Y-96646514D01*
X134999447Y-96646514D02*
X135094685Y-96694133D01*
X114321544Y-84745133D02*
X114321544Y-84045133D01*
X114321544Y-84045133D02*
X114054877Y-84045133D01*
X114054877Y-84045133D02*
X113988211Y-84078466D01*
X113988211Y-84078466D02*
X113954877Y-84111800D01*
X113954877Y-84111800D02*
X113921544Y-84178466D01*
X113921544Y-84178466D02*
X113921544Y-84278466D01*
X113921544Y-84278466D02*
X113954877Y-84345133D01*
X113954877Y-84345133D02*
X113988211Y-84378466D01*
X113988211Y-84378466D02*
X114054877Y-84411800D01*
X114054877Y-84411800D02*
X114321544Y-84411800D01*
X113221544Y-84678466D02*
X113254877Y-84711800D01*
X113254877Y-84711800D02*
X113354877Y-84745133D01*
X113354877Y-84745133D02*
X113421544Y-84745133D01*
X113421544Y-84745133D02*
X113521544Y-84711800D01*
X113521544Y-84711800D02*
X113588211Y-84645133D01*
X113588211Y-84645133D02*
X113621544Y-84578466D01*
X113621544Y-84578466D02*
X113654877Y-84445133D01*
X113654877Y-84445133D02*
X113654877Y-84345133D01*
X113654877Y-84345133D02*
X113621544Y-84211800D01*
X113621544Y-84211800D02*
X113588211Y-84145133D01*
X113588211Y-84145133D02*
X113521544Y-84078466D01*
X113521544Y-84078466D02*
X113421544Y-84045133D01*
X113421544Y-84045133D02*
X113354877Y-84045133D01*
X113354877Y-84045133D02*
X113254877Y-84078466D01*
X113254877Y-84078466D02*
X113221544Y-84111800D01*
X112554877Y-84745133D02*
X112954877Y-84745133D01*
X112754877Y-84745133D02*
X112754877Y-84045133D01*
X112754877Y-84045133D02*
X112821544Y-84145133D01*
X112821544Y-84145133D02*
X112888211Y-84211800D01*
X112888211Y-84211800D02*
X112954877Y-84245133D01*
X111888210Y-84745133D02*
X112288210Y-84745133D01*
X112088210Y-84745133D02*
X112088210Y-84045133D01*
X112088210Y-84045133D02*
X112154877Y-84145133D01*
X112154877Y-84145133D02*
X112221544Y-84211800D01*
X112221544Y-84211800D02*
X112288210Y-84245133D01*
X123465544Y-121321133D02*
X123465544Y-120621133D01*
X123465544Y-120621133D02*
X123198877Y-120621133D01*
X123198877Y-120621133D02*
X123132211Y-120654466D01*
X123132211Y-120654466D02*
X123098877Y-120687800D01*
X123098877Y-120687800D02*
X123065544Y-120754466D01*
X123065544Y-120754466D02*
X123065544Y-120854466D01*
X123065544Y-120854466D02*
X123098877Y-120921133D01*
X123098877Y-120921133D02*
X123132211Y-120954466D01*
X123132211Y-120954466D02*
X123198877Y-120987800D01*
X123198877Y-120987800D02*
X123465544Y-120987800D01*
X122532211Y-120954466D02*
X122432211Y-120987800D01*
X122432211Y-120987800D02*
X122398877Y-121021133D01*
X122398877Y-121021133D02*
X122365544Y-121087800D01*
X122365544Y-121087800D02*
X122365544Y-121187800D01*
X122365544Y-121187800D02*
X122398877Y-121254466D01*
X122398877Y-121254466D02*
X122432211Y-121287800D01*
X122432211Y-121287800D02*
X122498877Y-121321133D01*
X122498877Y-121321133D02*
X122765544Y-121321133D01*
X122765544Y-121321133D02*
X122765544Y-120621133D01*
X122765544Y-120621133D02*
X122532211Y-120621133D01*
X122532211Y-120621133D02*
X122465544Y-120654466D01*
X122465544Y-120654466D02*
X122432211Y-120687800D01*
X122432211Y-120687800D02*
X122398877Y-120754466D01*
X122398877Y-120754466D02*
X122398877Y-120821133D01*
X122398877Y-120821133D02*
X122432211Y-120887800D01*
X122432211Y-120887800D02*
X122465544Y-120921133D01*
X122465544Y-120921133D02*
X122532211Y-120954466D01*
X122532211Y-120954466D02*
X122765544Y-120954466D01*
X121698877Y-121321133D02*
X122098877Y-121321133D01*
X121898877Y-121321133D02*
X121898877Y-120621133D01*
X121898877Y-120621133D02*
X121965544Y-120721133D01*
X121965544Y-120721133D02*
X122032211Y-120787800D01*
X122032211Y-120787800D02*
X122098877Y-120821133D01*
X121265544Y-120621133D02*
X121198877Y-120621133D01*
X121198877Y-120621133D02*
X121132210Y-120654466D01*
X121132210Y-120654466D02*
X121098877Y-120687800D01*
X121098877Y-120687800D02*
X121065544Y-120754466D01*
X121065544Y-120754466D02*
X121032210Y-120887800D01*
X121032210Y-120887800D02*
X121032210Y-121054466D01*
X121032210Y-121054466D02*
X121065544Y-121187800D01*
X121065544Y-121187800D02*
X121098877Y-121254466D01*
X121098877Y-121254466D02*
X121132210Y-121287800D01*
X121132210Y-121287800D02*
X121198877Y-121321133D01*
X121198877Y-121321133D02*
X121265544Y-121321133D01*
X121265544Y-121321133D02*
X121332210Y-121287800D01*
X121332210Y-121287800D02*
X121365544Y-121254466D01*
X121365544Y-121254466D02*
X121398877Y-121187800D01*
X121398877Y-121187800D02*
X121432210Y-121054466D01*
X121432210Y-121054466D02*
X121432210Y-120887800D01*
X121432210Y-120887800D02*
X121398877Y-120754466D01*
X121398877Y-120754466D02*
X121365544Y-120687800D01*
X121365544Y-120687800D02*
X121332210Y-120654466D01*
X121332210Y-120654466D02*
X121265544Y-120621133D01*
X122703544Y-99985133D02*
X122703544Y-99285133D01*
X122703544Y-99285133D02*
X122436877Y-99285133D01*
X122436877Y-99285133D02*
X122370211Y-99318466D01*
X122370211Y-99318466D02*
X122336877Y-99351800D01*
X122336877Y-99351800D02*
X122303544Y-99418466D01*
X122303544Y-99418466D02*
X122303544Y-99518466D01*
X122303544Y-99518466D02*
X122336877Y-99585133D01*
X122336877Y-99585133D02*
X122370211Y-99618466D01*
X122370211Y-99618466D02*
X122436877Y-99651800D01*
X122436877Y-99651800D02*
X122703544Y-99651800D01*
X122036877Y-99785133D02*
X121703544Y-99785133D01*
X122103544Y-99985133D02*
X121870211Y-99285133D01*
X121870211Y-99285133D02*
X121636877Y-99985133D01*
X121036877Y-99985133D02*
X121436877Y-99985133D01*
X121236877Y-99985133D02*
X121236877Y-99285133D01*
X121236877Y-99285133D02*
X121303544Y-99385133D01*
X121303544Y-99385133D02*
X121370211Y-99451800D01*
X121370211Y-99451800D02*
X121436877Y-99485133D01*
X122957544Y-87285133D02*
X122957544Y-86585133D01*
X122957544Y-86585133D02*
X122690877Y-86585133D01*
X122690877Y-86585133D02*
X122624211Y-86618466D01*
X122624211Y-86618466D02*
X122590877Y-86651800D01*
X122590877Y-86651800D02*
X122557544Y-86718466D01*
X122557544Y-86718466D02*
X122557544Y-86818466D01*
X122557544Y-86818466D02*
X122590877Y-86885133D01*
X122590877Y-86885133D02*
X122624211Y-86918466D01*
X122624211Y-86918466D02*
X122690877Y-86951800D01*
X122690877Y-86951800D02*
X122957544Y-86951800D01*
X122024211Y-86918466D02*
X121924211Y-86951800D01*
X121924211Y-86951800D02*
X121890877Y-86985133D01*
X121890877Y-86985133D02*
X121857544Y-87051800D01*
X121857544Y-87051800D02*
X121857544Y-87151800D01*
X121857544Y-87151800D02*
X121890877Y-87218466D01*
X121890877Y-87218466D02*
X121924211Y-87251800D01*
X121924211Y-87251800D02*
X121990877Y-87285133D01*
X121990877Y-87285133D02*
X122257544Y-87285133D01*
X122257544Y-87285133D02*
X122257544Y-86585133D01*
X122257544Y-86585133D02*
X122024211Y-86585133D01*
X122024211Y-86585133D02*
X121957544Y-86618466D01*
X121957544Y-86618466D02*
X121924211Y-86651800D01*
X121924211Y-86651800D02*
X121890877Y-86718466D01*
X121890877Y-86718466D02*
X121890877Y-86785133D01*
X121890877Y-86785133D02*
X121924211Y-86851800D01*
X121924211Y-86851800D02*
X121957544Y-86885133D01*
X121957544Y-86885133D02*
X122024211Y-86918466D01*
X122024211Y-86918466D02*
X122257544Y-86918466D01*
X121224211Y-86585133D02*
X121557544Y-86585133D01*
X121557544Y-86585133D02*
X121590877Y-86918466D01*
X121590877Y-86918466D02*
X121557544Y-86885133D01*
X121557544Y-86885133D02*
X121490877Y-86851800D01*
X121490877Y-86851800D02*
X121324211Y-86851800D01*
X121324211Y-86851800D02*
X121257544Y-86885133D01*
X121257544Y-86885133D02*
X121224211Y-86918466D01*
X121224211Y-86918466D02*
X121190877Y-86985133D01*
X121190877Y-86985133D02*
X121190877Y-87151800D01*
X121190877Y-87151800D02*
X121224211Y-87218466D01*
X121224211Y-87218466D02*
X121257544Y-87251800D01*
X121257544Y-87251800D02*
X121324211Y-87285133D01*
X121324211Y-87285133D02*
X121490877Y-87285133D01*
X121490877Y-87285133D02*
X121557544Y-87251800D01*
X121557544Y-87251800D02*
X121590877Y-87218466D01*
X123465544Y-82205133D02*
X123465544Y-81505133D01*
X123465544Y-81505133D02*
X123198877Y-81505133D01*
X123198877Y-81505133D02*
X123132211Y-81538466D01*
X123132211Y-81538466D02*
X123098877Y-81571800D01*
X123098877Y-81571800D02*
X123065544Y-81638466D01*
X123065544Y-81638466D02*
X123065544Y-81738466D01*
X123065544Y-81738466D02*
X123098877Y-81805133D01*
X123098877Y-81805133D02*
X123132211Y-81838466D01*
X123132211Y-81838466D02*
X123198877Y-81871800D01*
X123198877Y-81871800D02*
X123465544Y-81871800D01*
X122365544Y-82138466D02*
X122398877Y-82171800D01*
X122398877Y-82171800D02*
X122498877Y-82205133D01*
X122498877Y-82205133D02*
X122565544Y-82205133D01*
X122565544Y-82205133D02*
X122665544Y-82171800D01*
X122665544Y-82171800D02*
X122732211Y-82105133D01*
X122732211Y-82105133D02*
X122765544Y-82038466D01*
X122765544Y-82038466D02*
X122798877Y-81905133D01*
X122798877Y-81905133D02*
X122798877Y-81805133D01*
X122798877Y-81805133D02*
X122765544Y-81671800D01*
X122765544Y-81671800D02*
X122732211Y-81605133D01*
X122732211Y-81605133D02*
X122665544Y-81538466D01*
X122665544Y-81538466D02*
X122565544Y-81505133D01*
X122565544Y-81505133D02*
X122498877Y-81505133D01*
X122498877Y-81505133D02*
X122398877Y-81538466D01*
X122398877Y-81538466D02*
X122365544Y-81571800D01*
X121698877Y-82205133D02*
X122098877Y-82205133D01*
X121898877Y-82205133D02*
X121898877Y-81505133D01*
X121898877Y-81505133D02*
X121965544Y-81605133D01*
X121965544Y-81605133D02*
X122032211Y-81671800D01*
X122032211Y-81671800D02*
X122098877Y-81705133D01*
X121265544Y-81505133D02*
X121198877Y-81505133D01*
X121198877Y-81505133D02*
X121132210Y-81538466D01*
X121132210Y-81538466D02*
X121098877Y-81571800D01*
X121098877Y-81571800D02*
X121065544Y-81638466D01*
X121065544Y-81638466D02*
X121032210Y-81771800D01*
X121032210Y-81771800D02*
X121032210Y-81938466D01*
X121032210Y-81938466D02*
X121065544Y-82071800D01*
X121065544Y-82071800D02*
X121098877Y-82138466D01*
X121098877Y-82138466D02*
X121132210Y-82171800D01*
X121132210Y-82171800D02*
X121198877Y-82205133D01*
X121198877Y-82205133D02*
X121265544Y-82205133D01*
X121265544Y-82205133D02*
X121332210Y-82171800D01*
X121332210Y-82171800D02*
X121365544Y-82138466D01*
X121365544Y-82138466D02*
X121398877Y-82071800D01*
X121398877Y-82071800D02*
X121432210Y-81938466D01*
X121432210Y-81938466D02*
X121432210Y-81771800D01*
X121432210Y-81771800D02*
X121398877Y-81638466D01*
X121398877Y-81638466D02*
X121365544Y-81571800D01*
X121365544Y-81571800D02*
X121332210Y-81538466D01*
X121332210Y-81538466D02*
X121265544Y-81505133D01*
X114321544Y-94905133D02*
X114321544Y-94205133D01*
X114321544Y-94205133D02*
X114054877Y-94205133D01*
X114054877Y-94205133D02*
X113988211Y-94238466D01*
X113988211Y-94238466D02*
X113954877Y-94271800D01*
X113954877Y-94271800D02*
X113921544Y-94338466D01*
X113921544Y-94338466D02*
X113921544Y-94438466D01*
X113921544Y-94438466D02*
X113954877Y-94505133D01*
X113954877Y-94505133D02*
X113988211Y-94538466D01*
X113988211Y-94538466D02*
X114054877Y-94571800D01*
X114054877Y-94571800D02*
X114321544Y-94571800D01*
X113221544Y-94838466D02*
X113254877Y-94871800D01*
X113254877Y-94871800D02*
X113354877Y-94905133D01*
X113354877Y-94905133D02*
X113421544Y-94905133D01*
X113421544Y-94905133D02*
X113521544Y-94871800D01*
X113521544Y-94871800D02*
X113588211Y-94805133D01*
X113588211Y-94805133D02*
X113621544Y-94738466D01*
X113621544Y-94738466D02*
X113654877Y-94605133D01*
X113654877Y-94605133D02*
X113654877Y-94505133D01*
X113654877Y-94505133D02*
X113621544Y-94371800D01*
X113621544Y-94371800D02*
X113588211Y-94305133D01*
X113588211Y-94305133D02*
X113521544Y-94238466D01*
X113521544Y-94238466D02*
X113421544Y-94205133D01*
X113421544Y-94205133D02*
X113354877Y-94205133D01*
X113354877Y-94205133D02*
X113254877Y-94238466D01*
X113254877Y-94238466D02*
X113221544Y-94271800D01*
X112788211Y-94205133D02*
X112721544Y-94205133D01*
X112721544Y-94205133D02*
X112654877Y-94238466D01*
X112654877Y-94238466D02*
X112621544Y-94271800D01*
X112621544Y-94271800D02*
X112588211Y-94338466D01*
X112588211Y-94338466D02*
X112554877Y-94471800D01*
X112554877Y-94471800D02*
X112554877Y-94638466D01*
X112554877Y-94638466D02*
X112588211Y-94771800D01*
X112588211Y-94771800D02*
X112621544Y-94838466D01*
X112621544Y-94838466D02*
X112654877Y-94871800D01*
X112654877Y-94871800D02*
X112721544Y-94905133D01*
X112721544Y-94905133D02*
X112788211Y-94905133D01*
X112788211Y-94905133D02*
X112854877Y-94871800D01*
X112854877Y-94871800D02*
X112888211Y-94838466D01*
X112888211Y-94838466D02*
X112921544Y-94771800D01*
X112921544Y-94771800D02*
X112954877Y-94638466D01*
X112954877Y-94638466D02*
X112954877Y-94471800D01*
X112954877Y-94471800D02*
X112921544Y-94338466D01*
X112921544Y-94338466D02*
X112888211Y-94271800D01*
X112888211Y-94271800D02*
X112854877Y-94238466D01*
X112854877Y-94238466D02*
X112788211Y-94205133D01*
X122590877Y-133354466D02*
X122657544Y-133321133D01*
X122657544Y-133321133D02*
X122757544Y-133321133D01*
X122757544Y-133321133D02*
X122857544Y-133354466D01*
X122857544Y-133354466D02*
X122924211Y-133421133D01*
X122924211Y-133421133D02*
X122957544Y-133487800D01*
X122957544Y-133487800D02*
X122990877Y-133621133D01*
X122990877Y-133621133D02*
X122990877Y-133721133D01*
X122990877Y-133721133D02*
X122957544Y-133854466D01*
X122957544Y-133854466D02*
X122924211Y-133921133D01*
X122924211Y-133921133D02*
X122857544Y-133987800D01*
X122857544Y-133987800D02*
X122757544Y-134021133D01*
X122757544Y-134021133D02*
X122690877Y-134021133D01*
X122690877Y-134021133D02*
X122590877Y-133987800D01*
X122590877Y-133987800D02*
X122557544Y-133954466D01*
X122557544Y-133954466D02*
X122557544Y-133721133D01*
X122557544Y-133721133D02*
X122690877Y-133721133D01*
X122257544Y-134021133D02*
X122257544Y-133321133D01*
X122257544Y-133321133D02*
X121857544Y-134021133D01*
X121857544Y-134021133D02*
X121857544Y-133321133D01*
X121524211Y-134021133D02*
X121524211Y-133321133D01*
X121524211Y-133321133D02*
X121357544Y-133321133D01*
X121357544Y-133321133D02*
X121257544Y-133354466D01*
X121257544Y-133354466D02*
X121190878Y-133421133D01*
X121190878Y-133421133D02*
X121157544Y-133487800D01*
X121157544Y-133487800D02*
X121124211Y-133621133D01*
X121124211Y-133621133D02*
X121124211Y-133721133D01*
X121124211Y-133721133D02*
X121157544Y-133854466D01*
X121157544Y-133854466D02*
X121190878Y-133921133D01*
X121190878Y-133921133D02*
X121257544Y-133987800D01*
X121257544Y-133987800D02*
X121357544Y-134021133D01*
X121357544Y-134021133D02*
X121524211Y-134021133D01*
X114321544Y-82205133D02*
X114321544Y-81505133D01*
X114321544Y-81505133D02*
X114054877Y-81505133D01*
X114054877Y-81505133D02*
X113988211Y-81538466D01*
X113988211Y-81538466D02*
X113954877Y-81571800D01*
X113954877Y-81571800D02*
X113921544Y-81638466D01*
X113921544Y-81638466D02*
X113921544Y-81738466D01*
X113921544Y-81738466D02*
X113954877Y-81805133D01*
X113954877Y-81805133D02*
X113988211Y-81838466D01*
X113988211Y-81838466D02*
X114054877Y-81871800D01*
X114054877Y-81871800D02*
X114321544Y-81871800D01*
X113654877Y-82005133D02*
X113321544Y-82005133D01*
X113721544Y-82205133D02*
X113488211Y-81505133D01*
X113488211Y-81505133D02*
X113254877Y-82205133D01*
X112654877Y-82205133D02*
X113054877Y-82205133D01*
X112854877Y-82205133D02*
X112854877Y-81505133D01*
X112854877Y-81505133D02*
X112921544Y-81605133D01*
X112921544Y-81605133D02*
X112988211Y-81671800D01*
X112988211Y-81671800D02*
X113054877Y-81705133D01*
X112021544Y-81505133D02*
X112354877Y-81505133D01*
X112354877Y-81505133D02*
X112388210Y-81838466D01*
X112388210Y-81838466D02*
X112354877Y-81805133D01*
X112354877Y-81805133D02*
X112288210Y-81771800D01*
X112288210Y-81771800D02*
X112121544Y-81771800D01*
X112121544Y-81771800D02*
X112054877Y-81805133D01*
X112054877Y-81805133D02*
X112021544Y-81838466D01*
X112021544Y-81838466D02*
X111988210Y-81905133D01*
X111988210Y-81905133D02*
X111988210Y-82071800D01*
X111988210Y-82071800D02*
X112021544Y-82138466D01*
X112021544Y-82138466D02*
X112054877Y-82171800D01*
X112054877Y-82171800D02*
X112121544Y-82205133D01*
X112121544Y-82205133D02*
X112288210Y-82205133D01*
X112288210Y-82205133D02*
X112354877Y-82171800D01*
X112354877Y-82171800D02*
X112388210Y-82138466D01*
X123465544Y-123861133D02*
X123465544Y-123161133D01*
X123465544Y-123161133D02*
X123198877Y-123161133D01*
X123198877Y-123161133D02*
X123132211Y-123194466D01*
X123132211Y-123194466D02*
X123098877Y-123227800D01*
X123098877Y-123227800D02*
X123065544Y-123294466D01*
X123065544Y-123294466D02*
X123065544Y-123394466D01*
X123065544Y-123394466D02*
X123098877Y-123461133D01*
X123098877Y-123461133D02*
X123132211Y-123494466D01*
X123132211Y-123494466D02*
X123198877Y-123527800D01*
X123198877Y-123527800D02*
X123465544Y-123527800D01*
X122532211Y-123494466D02*
X122432211Y-123527800D01*
X122432211Y-123527800D02*
X122398877Y-123561133D01*
X122398877Y-123561133D02*
X122365544Y-123627800D01*
X122365544Y-123627800D02*
X122365544Y-123727800D01*
X122365544Y-123727800D02*
X122398877Y-123794466D01*
X122398877Y-123794466D02*
X122432211Y-123827800D01*
X122432211Y-123827800D02*
X122498877Y-123861133D01*
X122498877Y-123861133D02*
X122765544Y-123861133D01*
X122765544Y-123861133D02*
X122765544Y-123161133D01*
X122765544Y-123161133D02*
X122532211Y-123161133D01*
X122532211Y-123161133D02*
X122465544Y-123194466D01*
X122465544Y-123194466D02*
X122432211Y-123227800D01*
X122432211Y-123227800D02*
X122398877Y-123294466D01*
X122398877Y-123294466D02*
X122398877Y-123361133D01*
X122398877Y-123361133D02*
X122432211Y-123427800D01*
X122432211Y-123427800D02*
X122465544Y-123461133D01*
X122465544Y-123461133D02*
X122532211Y-123494466D01*
X122532211Y-123494466D02*
X122765544Y-123494466D01*
X121698877Y-123861133D02*
X122098877Y-123861133D01*
X121898877Y-123861133D02*
X121898877Y-123161133D01*
X121898877Y-123161133D02*
X121965544Y-123261133D01*
X121965544Y-123261133D02*
X122032211Y-123327800D01*
X122032211Y-123327800D02*
X122098877Y-123361133D01*
X121098877Y-123394466D02*
X121098877Y-123861133D01*
X121265544Y-123127800D02*
X121432210Y-123627800D01*
X121432210Y-123627800D02*
X120998877Y-123627800D01*
X122957544Y-89825133D02*
X122957544Y-89125133D01*
X122957544Y-89125133D02*
X122690877Y-89125133D01*
X122690877Y-89125133D02*
X122624211Y-89158466D01*
X122624211Y-89158466D02*
X122590877Y-89191800D01*
X122590877Y-89191800D02*
X122557544Y-89258466D01*
X122557544Y-89258466D02*
X122557544Y-89358466D01*
X122557544Y-89358466D02*
X122590877Y-89425133D01*
X122590877Y-89425133D02*
X122624211Y-89458466D01*
X122624211Y-89458466D02*
X122690877Y-89491800D01*
X122690877Y-89491800D02*
X122957544Y-89491800D01*
X122024211Y-89458466D02*
X121924211Y-89491800D01*
X121924211Y-89491800D02*
X121890877Y-89525133D01*
X121890877Y-89525133D02*
X121857544Y-89591800D01*
X121857544Y-89591800D02*
X121857544Y-89691800D01*
X121857544Y-89691800D02*
X121890877Y-89758466D01*
X121890877Y-89758466D02*
X121924211Y-89791800D01*
X121924211Y-89791800D02*
X121990877Y-89825133D01*
X121990877Y-89825133D02*
X122257544Y-89825133D01*
X122257544Y-89825133D02*
X122257544Y-89125133D01*
X122257544Y-89125133D02*
X122024211Y-89125133D01*
X122024211Y-89125133D02*
X121957544Y-89158466D01*
X121957544Y-89158466D02*
X121924211Y-89191800D01*
X121924211Y-89191800D02*
X121890877Y-89258466D01*
X121890877Y-89258466D02*
X121890877Y-89325133D01*
X121890877Y-89325133D02*
X121924211Y-89391800D01*
X121924211Y-89391800D02*
X121957544Y-89425133D01*
X121957544Y-89425133D02*
X122024211Y-89458466D01*
X122024211Y-89458466D02*
X122257544Y-89458466D01*
X121624211Y-89125133D02*
X121157544Y-89125133D01*
X121157544Y-89125133D02*
X121457544Y-89825133D01*
X114321544Y-133754466D02*
X113788211Y-133754466D01*
X114054877Y-134021133D02*
X114054877Y-133487800D01*
X113088210Y-134021133D02*
X113488210Y-134021133D01*
X113288210Y-134021133D02*
X113288210Y-133321133D01*
X113288210Y-133321133D02*
X113354877Y-133421133D01*
X113354877Y-133421133D02*
X113421544Y-133487800D01*
X113421544Y-133487800D02*
X113488210Y-133521133D01*
X112821543Y-133387800D02*
X112788210Y-133354466D01*
X112788210Y-133354466D02*
X112721543Y-133321133D01*
X112721543Y-133321133D02*
X112554877Y-133321133D01*
X112554877Y-133321133D02*
X112488210Y-133354466D01*
X112488210Y-133354466D02*
X112454877Y-133387800D01*
X112454877Y-133387800D02*
X112421543Y-133454466D01*
X112421543Y-133454466D02*
X112421543Y-133521133D01*
X112421543Y-133521133D02*
X112454877Y-133621133D01*
X112454877Y-133621133D02*
X112854877Y-134021133D01*
X112854877Y-134021133D02*
X112421543Y-134021133D01*
X112221543Y-133321133D02*
X111988210Y-134021133D01*
X111988210Y-134021133D02*
X111754876Y-133321133D01*
X123465544Y-131481133D02*
X123465544Y-130781133D01*
X123465544Y-130781133D02*
X123198877Y-130781133D01*
X123198877Y-130781133D02*
X123132211Y-130814466D01*
X123132211Y-130814466D02*
X123098877Y-130847800D01*
X123098877Y-130847800D02*
X123065544Y-130914466D01*
X123065544Y-130914466D02*
X123065544Y-131014466D01*
X123065544Y-131014466D02*
X123098877Y-131081133D01*
X123098877Y-131081133D02*
X123132211Y-131114466D01*
X123132211Y-131114466D02*
X123198877Y-131147800D01*
X123198877Y-131147800D02*
X123465544Y-131147800D01*
X122798877Y-131281133D02*
X122465544Y-131281133D01*
X122865544Y-131481133D02*
X122632211Y-130781133D01*
X122632211Y-130781133D02*
X122398877Y-131481133D01*
X121798877Y-131481133D02*
X122198877Y-131481133D01*
X121998877Y-131481133D02*
X121998877Y-130781133D01*
X121998877Y-130781133D02*
X122065544Y-130881133D01*
X122065544Y-130881133D02*
X122132211Y-130947800D01*
X122132211Y-130947800D02*
X122198877Y-130981133D01*
X121365544Y-130781133D02*
X121298877Y-130781133D01*
X121298877Y-130781133D02*
X121232210Y-130814466D01*
X121232210Y-130814466D02*
X121198877Y-130847800D01*
X121198877Y-130847800D02*
X121165544Y-130914466D01*
X121165544Y-130914466D02*
X121132210Y-131047800D01*
X121132210Y-131047800D02*
X121132210Y-131214466D01*
X121132210Y-131214466D02*
X121165544Y-131347800D01*
X121165544Y-131347800D02*
X121198877Y-131414466D01*
X121198877Y-131414466D02*
X121232210Y-131447800D01*
X121232210Y-131447800D02*
X121298877Y-131481133D01*
X121298877Y-131481133D02*
X121365544Y-131481133D01*
X121365544Y-131481133D02*
X121432210Y-131447800D01*
X121432210Y-131447800D02*
X121465544Y-131414466D01*
X121465544Y-131414466D02*
X121498877Y-131347800D01*
X121498877Y-131347800D02*
X121532210Y-131214466D01*
X121532210Y-131214466D02*
X121532210Y-131047800D01*
X121532210Y-131047800D02*
X121498877Y-130914466D01*
X121498877Y-130914466D02*
X121465544Y-130847800D01*
X121465544Y-130847800D02*
X121432210Y-130814466D01*
X121432210Y-130814466D02*
X121365544Y-130781133D01*
X114321544Y-126401133D02*
X114321544Y-125701133D01*
X114321544Y-125701133D02*
X114054877Y-125701133D01*
X114054877Y-125701133D02*
X113988211Y-125734466D01*
X113988211Y-125734466D02*
X113954877Y-125767800D01*
X113954877Y-125767800D02*
X113921544Y-125834466D01*
X113921544Y-125834466D02*
X113921544Y-125934466D01*
X113921544Y-125934466D02*
X113954877Y-126001133D01*
X113954877Y-126001133D02*
X113988211Y-126034466D01*
X113988211Y-126034466D02*
X114054877Y-126067800D01*
X114054877Y-126067800D02*
X114321544Y-126067800D01*
X113388211Y-126034466D02*
X113288211Y-126067800D01*
X113288211Y-126067800D02*
X113254877Y-126101133D01*
X113254877Y-126101133D02*
X113221544Y-126167800D01*
X113221544Y-126167800D02*
X113221544Y-126267800D01*
X113221544Y-126267800D02*
X113254877Y-126334466D01*
X113254877Y-126334466D02*
X113288211Y-126367800D01*
X113288211Y-126367800D02*
X113354877Y-126401133D01*
X113354877Y-126401133D02*
X113621544Y-126401133D01*
X113621544Y-126401133D02*
X113621544Y-125701133D01*
X113621544Y-125701133D02*
X113388211Y-125701133D01*
X113388211Y-125701133D02*
X113321544Y-125734466D01*
X113321544Y-125734466D02*
X113288211Y-125767800D01*
X113288211Y-125767800D02*
X113254877Y-125834466D01*
X113254877Y-125834466D02*
X113254877Y-125901133D01*
X113254877Y-125901133D02*
X113288211Y-125967800D01*
X113288211Y-125967800D02*
X113321544Y-126001133D01*
X113321544Y-126001133D02*
X113388211Y-126034466D01*
X113388211Y-126034466D02*
X113621544Y-126034466D01*
X112554877Y-126401133D02*
X112954877Y-126401133D01*
X112754877Y-126401133D02*
X112754877Y-125701133D01*
X112754877Y-125701133D02*
X112821544Y-125801133D01*
X112821544Y-125801133D02*
X112888211Y-125867800D01*
X112888211Y-125867800D02*
X112954877Y-125901133D01*
X111921544Y-125701133D02*
X112254877Y-125701133D01*
X112254877Y-125701133D02*
X112288210Y-126034466D01*
X112288210Y-126034466D02*
X112254877Y-126001133D01*
X112254877Y-126001133D02*
X112188210Y-125967800D01*
X112188210Y-125967800D02*
X112021544Y-125967800D01*
X112021544Y-125967800D02*
X111954877Y-126001133D01*
X111954877Y-126001133D02*
X111921544Y-126034466D01*
X111921544Y-126034466D02*
X111888210Y-126101133D01*
X111888210Y-126101133D02*
X111888210Y-126267800D01*
X111888210Y-126267800D02*
X111921544Y-126334466D01*
X111921544Y-126334466D02*
X111954877Y-126367800D01*
X111954877Y-126367800D02*
X112021544Y-126401133D01*
X112021544Y-126401133D02*
X112188210Y-126401133D01*
X112188210Y-126401133D02*
X112254877Y-126367800D01*
X112254877Y-126367800D02*
X112288210Y-126334466D01*
X114321544Y-123607133D02*
X114321544Y-122907133D01*
X114321544Y-122907133D02*
X114054877Y-122907133D01*
X114054877Y-122907133D02*
X113988211Y-122940466D01*
X113988211Y-122940466D02*
X113954877Y-122973800D01*
X113954877Y-122973800D02*
X113921544Y-123040466D01*
X113921544Y-123040466D02*
X113921544Y-123140466D01*
X113921544Y-123140466D02*
X113954877Y-123207133D01*
X113954877Y-123207133D02*
X113988211Y-123240466D01*
X113988211Y-123240466D02*
X114054877Y-123273800D01*
X114054877Y-123273800D02*
X114321544Y-123273800D01*
X113388211Y-123240466D02*
X113288211Y-123273800D01*
X113288211Y-123273800D02*
X113254877Y-123307133D01*
X113254877Y-123307133D02*
X113221544Y-123373800D01*
X113221544Y-123373800D02*
X113221544Y-123473800D01*
X113221544Y-123473800D02*
X113254877Y-123540466D01*
X113254877Y-123540466D02*
X113288211Y-123573800D01*
X113288211Y-123573800D02*
X113354877Y-123607133D01*
X113354877Y-123607133D02*
X113621544Y-123607133D01*
X113621544Y-123607133D02*
X113621544Y-122907133D01*
X113621544Y-122907133D02*
X113388211Y-122907133D01*
X113388211Y-122907133D02*
X113321544Y-122940466D01*
X113321544Y-122940466D02*
X113288211Y-122973800D01*
X113288211Y-122973800D02*
X113254877Y-123040466D01*
X113254877Y-123040466D02*
X113254877Y-123107133D01*
X113254877Y-123107133D02*
X113288211Y-123173800D01*
X113288211Y-123173800D02*
X113321544Y-123207133D01*
X113321544Y-123207133D02*
X113388211Y-123240466D01*
X113388211Y-123240466D02*
X113621544Y-123240466D01*
X112554877Y-123607133D02*
X112954877Y-123607133D01*
X112754877Y-123607133D02*
X112754877Y-122907133D01*
X112754877Y-122907133D02*
X112821544Y-123007133D01*
X112821544Y-123007133D02*
X112888211Y-123073800D01*
X112888211Y-123073800D02*
X112954877Y-123107133D01*
X111888210Y-123607133D02*
X112288210Y-123607133D01*
X112088210Y-123607133D02*
X112088210Y-122907133D01*
X112088210Y-122907133D02*
X112154877Y-123007133D01*
X112154877Y-123007133D02*
X112221544Y-123073800D01*
X112221544Y-123073800D02*
X112288210Y-123107133D01*
X122957544Y-128941133D02*
X122957544Y-128241133D01*
X122957544Y-128241133D02*
X122690877Y-128241133D01*
X122690877Y-128241133D02*
X122624211Y-128274466D01*
X122624211Y-128274466D02*
X122590877Y-128307800D01*
X122590877Y-128307800D02*
X122557544Y-128374466D01*
X122557544Y-128374466D02*
X122557544Y-128474466D01*
X122557544Y-128474466D02*
X122590877Y-128541133D01*
X122590877Y-128541133D02*
X122624211Y-128574466D01*
X122624211Y-128574466D02*
X122690877Y-128607800D01*
X122690877Y-128607800D02*
X122957544Y-128607800D01*
X122290877Y-128741133D02*
X121957544Y-128741133D01*
X122357544Y-128941133D02*
X122124211Y-128241133D01*
X122124211Y-128241133D02*
X121890877Y-128941133D01*
X121557544Y-128541133D02*
X121624211Y-128507800D01*
X121624211Y-128507800D02*
X121657544Y-128474466D01*
X121657544Y-128474466D02*
X121690877Y-128407800D01*
X121690877Y-128407800D02*
X121690877Y-128374466D01*
X121690877Y-128374466D02*
X121657544Y-128307800D01*
X121657544Y-128307800D02*
X121624211Y-128274466D01*
X121624211Y-128274466D02*
X121557544Y-128241133D01*
X121557544Y-128241133D02*
X121424211Y-128241133D01*
X121424211Y-128241133D02*
X121357544Y-128274466D01*
X121357544Y-128274466D02*
X121324211Y-128307800D01*
X121324211Y-128307800D02*
X121290877Y-128374466D01*
X121290877Y-128374466D02*
X121290877Y-128407800D01*
X121290877Y-128407800D02*
X121324211Y-128474466D01*
X121324211Y-128474466D02*
X121357544Y-128507800D01*
X121357544Y-128507800D02*
X121424211Y-128541133D01*
X121424211Y-128541133D02*
X121557544Y-128541133D01*
X121557544Y-128541133D02*
X121624211Y-128574466D01*
X121624211Y-128574466D02*
X121657544Y-128607800D01*
X121657544Y-128607800D02*
X121690877Y-128674466D01*
X121690877Y-128674466D02*
X121690877Y-128807800D01*
X121690877Y-128807800D02*
X121657544Y-128874466D01*
X121657544Y-128874466D02*
X121624211Y-128907800D01*
X121624211Y-128907800D02*
X121557544Y-128941133D01*
X121557544Y-128941133D02*
X121424211Y-128941133D01*
X121424211Y-128941133D02*
X121357544Y-128907800D01*
X121357544Y-128907800D02*
X121324211Y-128874466D01*
X121324211Y-128874466D02*
X121290877Y-128807800D01*
X121290877Y-128807800D02*
X121290877Y-128674466D01*
X121290877Y-128674466D02*
X121324211Y-128607800D01*
X121324211Y-128607800D02*
X121357544Y-128574466D01*
X121357544Y-128574466D02*
X121424211Y-128541133D01*
X114321544Y-89571133D02*
X114321544Y-88871133D01*
X114321544Y-88871133D02*
X114054877Y-88871133D01*
X114054877Y-88871133D02*
X113988211Y-88904466D01*
X113988211Y-88904466D02*
X113954877Y-88937800D01*
X113954877Y-88937800D02*
X113921544Y-89004466D01*
X113921544Y-89004466D02*
X113921544Y-89104466D01*
X113921544Y-89104466D02*
X113954877Y-89171133D01*
X113954877Y-89171133D02*
X113988211Y-89204466D01*
X113988211Y-89204466D02*
X114054877Y-89237800D01*
X114054877Y-89237800D02*
X114321544Y-89237800D01*
X113388211Y-89204466D02*
X113288211Y-89237800D01*
X113288211Y-89237800D02*
X113254877Y-89271133D01*
X113254877Y-89271133D02*
X113221544Y-89337800D01*
X113221544Y-89337800D02*
X113221544Y-89437800D01*
X113221544Y-89437800D02*
X113254877Y-89504466D01*
X113254877Y-89504466D02*
X113288211Y-89537800D01*
X113288211Y-89537800D02*
X113354877Y-89571133D01*
X113354877Y-89571133D02*
X113621544Y-89571133D01*
X113621544Y-89571133D02*
X113621544Y-88871133D01*
X113621544Y-88871133D02*
X113388211Y-88871133D01*
X113388211Y-88871133D02*
X113321544Y-88904466D01*
X113321544Y-88904466D02*
X113288211Y-88937800D01*
X113288211Y-88937800D02*
X113254877Y-89004466D01*
X113254877Y-89004466D02*
X113254877Y-89071133D01*
X113254877Y-89071133D02*
X113288211Y-89137800D01*
X113288211Y-89137800D02*
X113321544Y-89171133D01*
X113321544Y-89171133D02*
X113388211Y-89204466D01*
X113388211Y-89204466D02*
X113621544Y-89204466D01*
X112621544Y-88871133D02*
X112754877Y-88871133D01*
X112754877Y-88871133D02*
X112821544Y-88904466D01*
X112821544Y-88904466D02*
X112854877Y-88937800D01*
X112854877Y-88937800D02*
X112921544Y-89037800D01*
X112921544Y-89037800D02*
X112954877Y-89171133D01*
X112954877Y-89171133D02*
X112954877Y-89437800D01*
X112954877Y-89437800D02*
X112921544Y-89504466D01*
X112921544Y-89504466D02*
X112888211Y-89537800D01*
X112888211Y-89537800D02*
X112821544Y-89571133D01*
X112821544Y-89571133D02*
X112688211Y-89571133D01*
X112688211Y-89571133D02*
X112621544Y-89537800D01*
X112621544Y-89537800D02*
X112588211Y-89504466D01*
X112588211Y-89504466D02*
X112554877Y-89437800D01*
X112554877Y-89437800D02*
X112554877Y-89271133D01*
X112554877Y-89271133D02*
X112588211Y-89204466D01*
X112588211Y-89204466D02*
X112621544Y-89171133D01*
X112621544Y-89171133D02*
X112688211Y-89137800D01*
X112688211Y-89137800D02*
X112821544Y-89137800D01*
X112821544Y-89137800D02*
X112888211Y-89171133D01*
X112888211Y-89171133D02*
X112921544Y-89204466D01*
X112921544Y-89204466D02*
X112954877Y-89271133D01*
X123465544Y-84745133D02*
X123465544Y-84045133D01*
X123465544Y-84045133D02*
X123198877Y-84045133D01*
X123198877Y-84045133D02*
X123132211Y-84078466D01*
X123132211Y-84078466D02*
X123098877Y-84111800D01*
X123098877Y-84111800D02*
X123065544Y-84178466D01*
X123065544Y-84178466D02*
X123065544Y-84278466D01*
X123065544Y-84278466D02*
X123098877Y-84345133D01*
X123098877Y-84345133D02*
X123132211Y-84378466D01*
X123132211Y-84378466D02*
X123198877Y-84411800D01*
X123198877Y-84411800D02*
X123465544Y-84411800D01*
X122532211Y-84378466D02*
X122432211Y-84411800D01*
X122432211Y-84411800D02*
X122398877Y-84445133D01*
X122398877Y-84445133D02*
X122365544Y-84511800D01*
X122365544Y-84511800D02*
X122365544Y-84611800D01*
X122365544Y-84611800D02*
X122398877Y-84678466D01*
X122398877Y-84678466D02*
X122432211Y-84711800D01*
X122432211Y-84711800D02*
X122498877Y-84745133D01*
X122498877Y-84745133D02*
X122765544Y-84745133D01*
X122765544Y-84745133D02*
X122765544Y-84045133D01*
X122765544Y-84045133D02*
X122532211Y-84045133D01*
X122532211Y-84045133D02*
X122465544Y-84078466D01*
X122465544Y-84078466D02*
X122432211Y-84111800D01*
X122432211Y-84111800D02*
X122398877Y-84178466D01*
X122398877Y-84178466D02*
X122398877Y-84245133D01*
X122398877Y-84245133D02*
X122432211Y-84311800D01*
X122432211Y-84311800D02*
X122465544Y-84345133D01*
X122465544Y-84345133D02*
X122532211Y-84378466D01*
X122532211Y-84378466D02*
X122765544Y-84378466D01*
X121698877Y-84745133D02*
X122098877Y-84745133D01*
X121898877Y-84745133D02*
X121898877Y-84045133D01*
X121898877Y-84045133D02*
X121965544Y-84145133D01*
X121965544Y-84145133D02*
X122032211Y-84211800D01*
X122032211Y-84211800D02*
X122098877Y-84245133D01*
X121432210Y-84111800D02*
X121398877Y-84078466D01*
X121398877Y-84078466D02*
X121332210Y-84045133D01*
X121332210Y-84045133D02*
X121165544Y-84045133D01*
X121165544Y-84045133D02*
X121098877Y-84078466D01*
X121098877Y-84078466D02*
X121065544Y-84111800D01*
X121065544Y-84111800D02*
X121032210Y-84178466D01*
X121032210Y-84178466D02*
X121032210Y-84245133D01*
X121032210Y-84245133D02*
X121065544Y-84345133D01*
X121065544Y-84345133D02*
X121465544Y-84745133D01*
X121465544Y-84745133D02*
X121032210Y-84745133D01*
X122957544Y-126401133D02*
X122957544Y-125701133D01*
X122957544Y-125701133D02*
X122690877Y-125701133D01*
X122690877Y-125701133D02*
X122624211Y-125734466D01*
X122624211Y-125734466D02*
X122590877Y-125767800D01*
X122590877Y-125767800D02*
X122557544Y-125834466D01*
X122557544Y-125834466D02*
X122557544Y-125934466D01*
X122557544Y-125934466D02*
X122590877Y-126001133D01*
X122590877Y-126001133D02*
X122624211Y-126034466D01*
X122624211Y-126034466D02*
X122690877Y-126067800D01*
X122690877Y-126067800D02*
X122957544Y-126067800D01*
X121857544Y-126334466D02*
X121890877Y-126367800D01*
X121890877Y-126367800D02*
X121990877Y-126401133D01*
X121990877Y-126401133D02*
X122057544Y-126401133D01*
X122057544Y-126401133D02*
X122157544Y-126367800D01*
X122157544Y-126367800D02*
X122224211Y-126301133D01*
X122224211Y-126301133D02*
X122257544Y-126234466D01*
X122257544Y-126234466D02*
X122290877Y-126101133D01*
X122290877Y-126101133D02*
X122290877Y-126001133D01*
X122290877Y-126001133D02*
X122257544Y-125867800D01*
X122257544Y-125867800D02*
X122224211Y-125801133D01*
X122224211Y-125801133D02*
X122157544Y-125734466D01*
X122157544Y-125734466D02*
X122057544Y-125701133D01*
X122057544Y-125701133D02*
X121990877Y-125701133D01*
X121990877Y-125701133D02*
X121890877Y-125734466D01*
X121890877Y-125734466D02*
X121857544Y-125767800D01*
X121257544Y-125701133D02*
X121390877Y-125701133D01*
X121390877Y-125701133D02*
X121457544Y-125734466D01*
X121457544Y-125734466D02*
X121490877Y-125767800D01*
X121490877Y-125767800D02*
X121557544Y-125867800D01*
X121557544Y-125867800D02*
X121590877Y-126001133D01*
X121590877Y-126001133D02*
X121590877Y-126267800D01*
X121590877Y-126267800D02*
X121557544Y-126334466D01*
X121557544Y-126334466D02*
X121524211Y-126367800D01*
X121524211Y-126367800D02*
X121457544Y-126401133D01*
X121457544Y-126401133D02*
X121324211Y-126401133D01*
X121324211Y-126401133D02*
X121257544Y-126367800D01*
X121257544Y-126367800D02*
X121224211Y-126334466D01*
X121224211Y-126334466D02*
X121190877Y-126267800D01*
X121190877Y-126267800D02*
X121190877Y-126101133D01*
X121190877Y-126101133D02*
X121224211Y-126034466D01*
X121224211Y-126034466D02*
X121257544Y-126001133D01*
X121257544Y-126001133D02*
X121324211Y-125967800D01*
X121324211Y-125967800D02*
X121457544Y-125967800D01*
X121457544Y-125967800D02*
X121524211Y-126001133D01*
X121524211Y-126001133D02*
X121557544Y-126034466D01*
X121557544Y-126034466D02*
X121590877Y-126101133D01*
X122957544Y-118781133D02*
X122957544Y-118081133D01*
X122957544Y-118081133D02*
X122690877Y-118081133D01*
X122690877Y-118081133D02*
X122624211Y-118114466D01*
X122624211Y-118114466D02*
X122590877Y-118147800D01*
X122590877Y-118147800D02*
X122557544Y-118214466D01*
X122557544Y-118214466D02*
X122557544Y-118314466D01*
X122557544Y-118314466D02*
X122590877Y-118381133D01*
X122590877Y-118381133D02*
X122624211Y-118414466D01*
X122624211Y-118414466D02*
X122690877Y-118447800D01*
X122690877Y-118447800D02*
X122957544Y-118447800D01*
X122024211Y-118414466D02*
X121924211Y-118447800D01*
X121924211Y-118447800D02*
X121890877Y-118481133D01*
X121890877Y-118481133D02*
X121857544Y-118547800D01*
X121857544Y-118547800D02*
X121857544Y-118647800D01*
X121857544Y-118647800D02*
X121890877Y-118714466D01*
X121890877Y-118714466D02*
X121924211Y-118747800D01*
X121924211Y-118747800D02*
X121990877Y-118781133D01*
X121990877Y-118781133D02*
X122257544Y-118781133D01*
X122257544Y-118781133D02*
X122257544Y-118081133D01*
X122257544Y-118081133D02*
X122024211Y-118081133D01*
X122024211Y-118081133D02*
X121957544Y-118114466D01*
X121957544Y-118114466D02*
X121924211Y-118147800D01*
X121924211Y-118147800D02*
X121890877Y-118214466D01*
X121890877Y-118214466D02*
X121890877Y-118281133D01*
X121890877Y-118281133D02*
X121924211Y-118347800D01*
X121924211Y-118347800D02*
X121957544Y-118381133D01*
X121957544Y-118381133D02*
X122024211Y-118414466D01*
X122024211Y-118414466D02*
X122257544Y-118414466D01*
X121190877Y-118781133D02*
X121590877Y-118781133D01*
X121390877Y-118781133D02*
X121390877Y-118081133D01*
X121390877Y-118081133D02*
X121457544Y-118181133D01*
X121457544Y-118181133D02*
X121524211Y-118247800D01*
X121524211Y-118247800D02*
X121590877Y-118281133D01*
X123973544Y-115974466D02*
X123440211Y-115974466D01*
X123706877Y-116241133D02*
X123706877Y-115707800D01*
X123173544Y-115541133D02*
X122740210Y-115541133D01*
X122740210Y-115541133D02*
X122973544Y-115807800D01*
X122973544Y-115807800D02*
X122873544Y-115807800D01*
X122873544Y-115807800D02*
X122806877Y-115841133D01*
X122806877Y-115841133D02*
X122773544Y-115874466D01*
X122773544Y-115874466D02*
X122740210Y-115941133D01*
X122740210Y-115941133D02*
X122740210Y-116107800D01*
X122740210Y-116107800D02*
X122773544Y-116174466D01*
X122773544Y-116174466D02*
X122806877Y-116207800D01*
X122806877Y-116207800D02*
X122873544Y-116241133D01*
X122873544Y-116241133D02*
X123073544Y-116241133D01*
X123073544Y-116241133D02*
X123140210Y-116207800D01*
X123140210Y-116207800D02*
X123173544Y-116174466D01*
X122440210Y-116174466D02*
X122406877Y-116207800D01*
X122406877Y-116207800D02*
X122440210Y-116241133D01*
X122440210Y-116241133D02*
X122473543Y-116207800D01*
X122473543Y-116207800D02*
X122440210Y-116174466D01*
X122440210Y-116174466D02*
X122440210Y-116241133D01*
X122173544Y-115541133D02*
X121740210Y-115541133D01*
X121740210Y-115541133D02*
X121973544Y-115807800D01*
X121973544Y-115807800D02*
X121873544Y-115807800D01*
X121873544Y-115807800D02*
X121806877Y-115841133D01*
X121806877Y-115841133D02*
X121773544Y-115874466D01*
X121773544Y-115874466D02*
X121740210Y-115941133D01*
X121740210Y-115941133D02*
X121740210Y-116107800D01*
X121740210Y-116107800D02*
X121773544Y-116174466D01*
X121773544Y-116174466D02*
X121806877Y-116207800D01*
X121806877Y-116207800D02*
X121873544Y-116241133D01*
X121873544Y-116241133D02*
X122073544Y-116241133D01*
X122073544Y-116241133D02*
X122140210Y-116207800D01*
X122140210Y-116207800D02*
X122173544Y-116174466D01*
X121540210Y-115541133D02*
X121306877Y-116241133D01*
X121306877Y-116241133D02*
X121073543Y-115541133D01*
X113954877Y-78998466D02*
X114021544Y-78965133D01*
X114021544Y-78965133D02*
X114121544Y-78965133D01*
X114121544Y-78965133D02*
X114221544Y-78998466D01*
X114221544Y-78998466D02*
X114288211Y-79065133D01*
X114288211Y-79065133D02*
X114321544Y-79131800D01*
X114321544Y-79131800D02*
X114354877Y-79265133D01*
X114354877Y-79265133D02*
X114354877Y-79365133D01*
X114354877Y-79365133D02*
X114321544Y-79498466D01*
X114321544Y-79498466D02*
X114288211Y-79565133D01*
X114288211Y-79565133D02*
X114221544Y-79631800D01*
X114221544Y-79631800D02*
X114121544Y-79665133D01*
X114121544Y-79665133D02*
X114054877Y-79665133D01*
X114054877Y-79665133D02*
X113954877Y-79631800D01*
X113954877Y-79631800D02*
X113921544Y-79598466D01*
X113921544Y-79598466D02*
X113921544Y-79365133D01*
X113921544Y-79365133D02*
X114054877Y-79365133D01*
X113621544Y-79665133D02*
X113621544Y-78965133D01*
X113621544Y-78965133D02*
X113221544Y-79665133D01*
X113221544Y-79665133D02*
X113221544Y-78965133D01*
X112888211Y-79665133D02*
X112888211Y-78965133D01*
X112888211Y-78965133D02*
X112721544Y-78965133D01*
X112721544Y-78965133D02*
X112621544Y-78998466D01*
X112621544Y-78998466D02*
X112554878Y-79065133D01*
X112554878Y-79065133D02*
X112521544Y-79131800D01*
X112521544Y-79131800D02*
X112488211Y-79265133D01*
X112488211Y-79265133D02*
X112488211Y-79365133D01*
X112488211Y-79365133D02*
X112521544Y-79498466D01*
X112521544Y-79498466D02*
X112554878Y-79565133D01*
X112554878Y-79565133D02*
X112621544Y-79631800D01*
X112621544Y-79631800D02*
X112721544Y-79665133D01*
X112721544Y-79665133D02*
X112888211Y-79665133D01*
X114321544Y-87031133D02*
X114321544Y-86331133D01*
X114321544Y-86331133D02*
X114054877Y-86331133D01*
X114054877Y-86331133D02*
X113988211Y-86364466D01*
X113988211Y-86364466D02*
X113954877Y-86397800D01*
X113954877Y-86397800D02*
X113921544Y-86464466D01*
X113921544Y-86464466D02*
X113921544Y-86564466D01*
X113921544Y-86564466D02*
X113954877Y-86631133D01*
X113954877Y-86631133D02*
X113988211Y-86664466D01*
X113988211Y-86664466D02*
X114054877Y-86697800D01*
X114054877Y-86697800D02*
X114321544Y-86697800D01*
X113621544Y-87031133D02*
X113621544Y-86331133D01*
X113621544Y-86331133D02*
X113454877Y-86331133D01*
X113454877Y-86331133D02*
X113354877Y-86364466D01*
X113354877Y-86364466D02*
X113288211Y-86431133D01*
X113288211Y-86431133D02*
X113254877Y-86497800D01*
X113254877Y-86497800D02*
X113221544Y-86631133D01*
X113221544Y-86631133D02*
X113221544Y-86731133D01*
X113221544Y-86731133D02*
X113254877Y-86864466D01*
X113254877Y-86864466D02*
X113288211Y-86931133D01*
X113288211Y-86931133D02*
X113354877Y-86997800D01*
X113354877Y-86997800D02*
X113454877Y-87031133D01*
X113454877Y-87031133D02*
X113621544Y-87031133D01*
X112954877Y-86397800D02*
X112921544Y-86364466D01*
X112921544Y-86364466D02*
X112854877Y-86331133D01*
X112854877Y-86331133D02*
X112688211Y-86331133D01*
X112688211Y-86331133D02*
X112621544Y-86364466D01*
X112621544Y-86364466D02*
X112588211Y-86397800D01*
X112588211Y-86397800D02*
X112554877Y-86464466D01*
X112554877Y-86464466D02*
X112554877Y-86531133D01*
X112554877Y-86531133D02*
X112588211Y-86631133D01*
X112588211Y-86631133D02*
X112988211Y-87031133D01*
X112988211Y-87031133D02*
X112554877Y-87031133D01*
X114321544Y-97445133D02*
X114321544Y-96745133D01*
X114321544Y-96745133D02*
X114054877Y-96745133D01*
X114054877Y-96745133D02*
X113988211Y-96778466D01*
X113988211Y-96778466D02*
X113954877Y-96811800D01*
X113954877Y-96811800D02*
X113921544Y-96878466D01*
X113921544Y-96878466D02*
X113921544Y-96978466D01*
X113921544Y-96978466D02*
X113954877Y-97045133D01*
X113954877Y-97045133D02*
X113988211Y-97078466D01*
X113988211Y-97078466D02*
X114054877Y-97111800D01*
X114054877Y-97111800D02*
X114321544Y-97111800D01*
X113221544Y-97378466D02*
X113254877Y-97411800D01*
X113254877Y-97411800D02*
X113354877Y-97445133D01*
X113354877Y-97445133D02*
X113421544Y-97445133D01*
X113421544Y-97445133D02*
X113521544Y-97411800D01*
X113521544Y-97411800D02*
X113588211Y-97345133D01*
X113588211Y-97345133D02*
X113621544Y-97278466D01*
X113621544Y-97278466D02*
X113654877Y-97145133D01*
X113654877Y-97145133D02*
X113654877Y-97045133D01*
X113654877Y-97045133D02*
X113621544Y-96911800D01*
X113621544Y-96911800D02*
X113588211Y-96845133D01*
X113588211Y-96845133D02*
X113521544Y-96778466D01*
X113521544Y-96778466D02*
X113421544Y-96745133D01*
X113421544Y-96745133D02*
X113354877Y-96745133D01*
X113354877Y-96745133D02*
X113254877Y-96778466D01*
X113254877Y-96778466D02*
X113221544Y-96811800D01*
X112954877Y-96811800D02*
X112921544Y-96778466D01*
X112921544Y-96778466D02*
X112854877Y-96745133D01*
X112854877Y-96745133D02*
X112688211Y-96745133D01*
X112688211Y-96745133D02*
X112621544Y-96778466D01*
X112621544Y-96778466D02*
X112588211Y-96811800D01*
X112588211Y-96811800D02*
X112554877Y-96878466D01*
X112554877Y-96878466D02*
X112554877Y-96945133D01*
X112554877Y-96945133D02*
X112588211Y-97045133D01*
X112588211Y-97045133D02*
X112988211Y-97445133D01*
X112988211Y-97445133D02*
X112554877Y-97445133D01*
X123973544Y-79398466D02*
X123440211Y-79398466D01*
X123706877Y-79665133D02*
X123706877Y-79131800D01*
X123173544Y-78965133D02*
X122740210Y-78965133D01*
X122740210Y-78965133D02*
X122973544Y-79231800D01*
X122973544Y-79231800D02*
X122873544Y-79231800D01*
X122873544Y-79231800D02*
X122806877Y-79265133D01*
X122806877Y-79265133D02*
X122773544Y-79298466D01*
X122773544Y-79298466D02*
X122740210Y-79365133D01*
X122740210Y-79365133D02*
X122740210Y-79531800D01*
X122740210Y-79531800D02*
X122773544Y-79598466D01*
X122773544Y-79598466D02*
X122806877Y-79631800D01*
X122806877Y-79631800D02*
X122873544Y-79665133D01*
X122873544Y-79665133D02*
X123073544Y-79665133D01*
X123073544Y-79665133D02*
X123140210Y-79631800D01*
X123140210Y-79631800D02*
X123173544Y-79598466D01*
X122440210Y-79598466D02*
X122406877Y-79631800D01*
X122406877Y-79631800D02*
X122440210Y-79665133D01*
X122440210Y-79665133D02*
X122473543Y-79631800D01*
X122473543Y-79631800D02*
X122440210Y-79598466D01*
X122440210Y-79598466D02*
X122440210Y-79665133D01*
X122173544Y-78965133D02*
X121740210Y-78965133D01*
X121740210Y-78965133D02*
X121973544Y-79231800D01*
X121973544Y-79231800D02*
X121873544Y-79231800D01*
X121873544Y-79231800D02*
X121806877Y-79265133D01*
X121806877Y-79265133D02*
X121773544Y-79298466D01*
X121773544Y-79298466D02*
X121740210Y-79365133D01*
X121740210Y-79365133D02*
X121740210Y-79531800D01*
X121740210Y-79531800D02*
X121773544Y-79598466D01*
X121773544Y-79598466D02*
X121806877Y-79631800D01*
X121806877Y-79631800D02*
X121873544Y-79665133D01*
X121873544Y-79665133D02*
X122073544Y-79665133D01*
X122073544Y-79665133D02*
X122140210Y-79631800D01*
X122140210Y-79631800D02*
X122173544Y-79598466D01*
X121540210Y-78965133D02*
X121306877Y-79665133D01*
X121306877Y-79665133D02*
X121073543Y-78965133D01*
X122590877Y-113034466D02*
X122657544Y-113001133D01*
X122657544Y-113001133D02*
X122757544Y-113001133D01*
X122757544Y-113001133D02*
X122857544Y-113034466D01*
X122857544Y-113034466D02*
X122924211Y-113101133D01*
X122924211Y-113101133D02*
X122957544Y-113167800D01*
X122957544Y-113167800D02*
X122990877Y-113301133D01*
X122990877Y-113301133D02*
X122990877Y-113401133D01*
X122990877Y-113401133D02*
X122957544Y-113534466D01*
X122957544Y-113534466D02*
X122924211Y-113601133D01*
X122924211Y-113601133D02*
X122857544Y-113667800D01*
X122857544Y-113667800D02*
X122757544Y-113701133D01*
X122757544Y-113701133D02*
X122690877Y-113701133D01*
X122690877Y-113701133D02*
X122590877Y-113667800D01*
X122590877Y-113667800D02*
X122557544Y-113634466D01*
X122557544Y-113634466D02*
X122557544Y-113401133D01*
X122557544Y-113401133D02*
X122690877Y-113401133D01*
X122257544Y-113701133D02*
X122257544Y-113001133D01*
X122257544Y-113001133D02*
X121857544Y-113701133D01*
X121857544Y-113701133D02*
X121857544Y-113001133D01*
X121524211Y-113701133D02*
X121524211Y-113001133D01*
X121524211Y-113001133D02*
X121357544Y-113001133D01*
X121357544Y-113001133D02*
X121257544Y-113034466D01*
X121257544Y-113034466D02*
X121190878Y-113101133D01*
X121190878Y-113101133D02*
X121157544Y-113167800D01*
X121157544Y-113167800D02*
X121124211Y-113301133D01*
X121124211Y-113301133D02*
X121124211Y-113401133D01*
X121124211Y-113401133D02*
X121157544Y-113534466D01*
X121157544Y-113534466D02*
X121190878Y-113601133D01*
X121190878Y-113601133D02*
X121257544Y-113667800D01*
X121257544Y-113667800D02*
X121357544Y-113701133D01*
X121357544Y-113701133D02*
X121524211Y-113701133D01*
X114321544Y-121067133D02*
X114321544Y-120367133D01*
X114321544Y-120367133D02*
X114054877Y-120367133D01*
X114054877Y-120367133D02*
X113988211Y-120400466D01*
X113988211Y-120400466D02*
X113954877Y-120433800D01*
X113954877Y-120433800D02*
X113921544Y-120500466D01*
X113921544Y-120500466D02*
X113921544Y-120600466D01*
X113921544Y-120600466D02*
X113954877Y-120667133D01*
X113954877Y-120667133D02*
X113988211Y-120700466D01*
X113988211Y-120700466D02*
X114054877Y-120733800D01*
X114054877Y-120733800D02*
X114321544Y-120733800D01*
X113388211Y-120700466D02*
X113288211Y-120733800D01*
X113288211Y-120733800D02*
X113254877Y-120767133D01*
X113254877Y-120767133D02*
X113221544Y-120833800D01*
X113221544Y-120833800D02*
X113221544Y-120933800D01*
X113221544Y-120933800D02*
X113254877Y-121000466D01*
X113254877Y-121000466D02*
X113288211Y-121033800D01*
X113288211Y-121033800D02*
X113354877Y-121067133D01*
X113354877Y-121067133D02*
X113621544Y-121067133D01*
X113621544Y-121067133D02*
X113621544Y-120367133D01*
X113621544Y-120367133D02*
X113388211Y-120367133D01*
X113388211Y-120367133D02*
X113321544Y-120400466D01*
X113321544Y-120400466D02*
X113288211Y-120433800D01*
X113288211Y-120433800D02*
X113254877Y-120500466D01*
X113254877Y-120500466D02*
X113254877Y-120567133D01*
X113254877Y-120567133D02*
X113288211Y-120633800D01*
X113288211Y-120633800D02*
X113321544Y-120667133D01*
X113321544Y-120667133D02*
X113388211Y-120700466D01*
X113388211Y-120700466D02*
X113621544Y-120700466D01*
X112954877Y-120433800D02*
X112921544Y-120400466D01*
X112921544Y-120400466D02*
X112854877Y-120367133D01*
X112854877Y-120367133D02*
X112688211Y-120367133D01*
X112688211Y-120367133D02*
X112621544Y-120400466D01*
X112621544Y-120400466D02*
X112588211Y-120433800D01*
X112588211Y-120433800D02*
X112554877Y-120500466D01*
X112554877Y-120500466D02*
X112554877Y-120567133D01*
X112554877Y-120567133D02*
X112588211Y-120667133D01*
X112588211Y-120667133D02*
X112988211Y-121067133D01*
X112988211Y-121067133D02*
X112554877Y-121067133D01*
X123465544Y-92365133D02*
X123465544Y-91665133D01*
X123465544Y-91665133D02*
X123198877Y-91665133D01*
X123198877Y-91665133D02*
X123132211Y-91698466D01*
X123132211Y-91698466D02*
X123098877Y-91731800D01*
X123098877Y-91731800D02*
X123065544Y-91798466D01*
X123065544Y-91798466D02*
X123065544Y-91898466D01*
X123065544Y-91898466D02*
X123098877Y-91965133D01*
X123098877Y-91965133D02*
X123132211Y-91998466D01*
X123132211Y-91998466D02*
X123198877Y-92031800D01*
X123198877Y-92031800D02*
X123465544Y-92031800D01*
X122365544Y-92298466D02*
X122398877Y-92331800D01*
X122398877Y-92331800D02*
X122498877Y-92365133D01*
X122498877Y-92365133D02*
X122565544Y-92365133D01*
X122565544Y-92365133D02*
X122665544Y-92331800D01*
X122665544Y-92331800D02*
X122732211Y-92265133D01*
X122732211Y-92265133D02*
X122765544Y-92198466D01*
X122765544Y-92198466D02*
X122798877Y-92065133D01*
X122798877Y-92065133D02*
X122798877Y-91965133D01*
X122798877Y-91965133D02*
X122765544Y-91831800D01*
X122765544Y-91831800D02*
X122732211Y-91765133D01*
X122732211Y-91765133D02*
X122665544Y-91698466D01*
X122665544Y-91698466D02*
X122565544Y-91665133D01*
X122565544Y-91665133D02*
X122498877Y-91665133D01*
X122498877Y-91665133D02*
X122398877Y-91698466D01*
X122398877Y-91698466D02*
X122365544Y-91731800D01*
X121698877Y-92365133D02*
X122098877Y-92365133D01*
X121898877Y-92365133D02*
X121898877Y-91665133D01*
X121898877Y-91665133D02*
X121965544Y-91765133D01*
X121965544Y-91765133D02*
X122032211Y-91831800D01*
X122032211Y-91831800D02*
X122098877Y-91865133D01*
X121065544Y-91665133D02*
X121398877Y-91665133D01*
X121398877Y-91665133D02*
X121432210Y-91998466D01*
X121432210Y-91998466D02*
X121398877Y-91965133D01*
X121398877Y-91965133D02*
X121332210Y-91931800D01*
X121332210Y-91931800D02*
X121165544Y-91931800D01*
X121165544Y-91931800D02*
X121098877Y-91965133D01*
X121098877Y-91965133D02*
X121065544Y-91998466D01*
X121065544Y-91998466D02*
X121032210Y-92065133D01*
X121032210Y-92065133D02*
X121032210Y-92231800D01*
X121032210Y-92231800D02*
X121065544Y-92298466D01*
X121065544Y-92298466D02*
X121098877Y-92331800D01*
X121098877Y-92331800D02*
X121165544Y-92365133D01*
X121165544Y-92365133D02*
X121332210Y-92365133D01*
X121332210Y-92365133D02*
X121398877Y-92331800D01*
X121398877Y-92331800D02*
X121432210Y-92298466D01*
X122957544Y-94905133D02*
X122957544Y-94205133D01*
X122957544Y-94205133D02*
X122690877Y-94205133D01*
X122690877Y-94205133D02*
X122624211Y-94238466D01*
X122624211Y-94238466D02*
X122590877Y-94271800D01*
X122590877Y-94271800D02*
X122557544Y-94338466D01*
X122557544Y-94338466D02*
X122557544Y-94438466D01*
X122557544Y-94438466D02*
X122590877Y-94505133D01*
X122590877Y-94505133D02*
X122624211Y-94538466D01*
X122624211Y-94538466D02*
X122690877Y-94571800D01*
X122690877Y-94571800D02*
X122957544Y-94571800D01*
X121857544Y-94838466D02*
X121890877Y-94871800D01*
X121890877Y-94871800D02*
X121990877Y-94905133D01*
X121990877Y-94905133D02*
X122057544Y-94905133D01*
X122057544Y-94905133D02*
X122157544Y-94871800D01*
X122157544Y-94871800D02*
X122224211Y-94805133D01*
X122224211Y-94805133D02*
X122257544Y-94738466D01*
X122257544Y-94738466D02*
X122290877Y-94605133D01*
X122290877Y-94605133D02*
X122290877Y-94505133D01*
X122290877Y-94505133D02*
X122257544Y-94371800D01*
X122257544Y-94371800D02*
X122224211Y-94305133D01*
X122224211Y-94305133D02*
X122157544Y-94238466D01*
X122157544Y-94238466D02*
X122057544Y-94205133D01*
X122057544Y-94205133D02*
X121990877Y-94205133D01*
X121990877Y-94205133D02*
X121890877Y-94238466D01*
X121890877Y-94238466D02*
X121857544Y-94271800D01*
X121190877Y-94905133D02*
X121590877Y-94905133D01*
X121390877Y-94905133D02*
X121390877Y-94205133D01*
X121390877Y-94205133D02*
X121457544Y-94305133D01*
X121457544Y-94305133D02*
X121524211Y-94371800D01*
X121524211Y-94371800D02*
X121590877Y-94405133D01*
X114321544Y-99985133D02*
X114321544Y-99285133D01*
X114321544Y-99285133D02*
X114054877Y-99285133D01*
X114054877Y-99285133D02*
X113988211Y-99318466D01*
X113988211Y-99318466D02*
X113954877Y-99351800D01*
X113954877Y-99351800D02*
X113921544Y-99418466D01*
X113921544Y-99418466D02*
X113921544Y-99518466D01*
X113921544Y-99518466D02*
X113954877Y-99585133D01*
X113954877Y-99585133D02*
X113988211Y-99618466D01*
X113988211Y-99618466D02*
X114054877Y-99651800D01*
X114054877Y-99651800D02*
X114321544Y-99651800D01*
X113654877Y-99785133D02*
X113321544Y-99785133D01*
X113721544Y-99985133D02*
X113488211Y-99285133D01*
X113488211Y-99285133D02*
X113254877Y-99985133D01*
X112888211Y-99285133D02*
X112821544Y-99285133D01*
X112821544Y-99285133D02*
X112754877Y-99318466D01*
X112754877Y-99318466D02*
X112721544Y-99351800D01*
X112721544Y-99351800D02*
X112688211Y-99418466D01*
X112688211Y-99418466D02*
X112654877Y-99551800D01*
X112654877Y-99551800D02*
X112654877Y-99718466D01*
X112654877Y-99718466D02*
X112688211Y-99851800D01*
X112688211Y-99851800D02*
X112721544Y-99918466D01*
X112721544Y-99918466D02*
X112754877Y-99951800D01*
X112754877Y-99951800D02*
X112821544Y-99985133D01*
X112821544Y-99985133D02*
X112888211Y-99985133D01*
X112888211Y-99985133D02*
X112954877Y-99951800D01*
X112954877Y-99951800D02*
X112988211Y-99918466D01*
X112988211Y-99918466D02*
X113021544Y-99851800D01*
X113021544Y-99851800D02*
X113054877Y-99718466D01*
X113054877Y-99718466D02*
X113054877Y-99551800D01*
X113054877Y-99551800D02*
X113021544Y-99418466D01*
X113021544Y-99418466D02*
X112988211Y-99351800D01*
X112988211Y-99351800D02*
X112954877Y-99318466D01*
X112954877Y-99318466D02*
X112888211Y-99285133D01*
X114321544Y-92365133D02*
X114321544Y-91665133D01*
X114321544Y-91665133D02*
X114054877Y-91665133D01*
X114054877Y-91665133D02*
X113988211Y-91698466D01*
X113988211Y-91698466D02*
X113954877Y-91731800D01*
X113954877Y-91731800D02*
X113921544Y-91798466D01*
X113921544Y-91798466D02*
X113921544Y-91898466D01*
X113921544Y-91898466D02*
X113954877Y-91965133D01*
X113954877Y-91965133D02*
X113988211Y-91998466D01*
X113988211Y-91998466D02*
X114054877Y-92031800D01*
X114054877Y-92031800D02*
X114321544Y-92031800D01*
X113221544Y-92298466D02*
X113254877Y-92331800D01*
X113254877Y-92331800D02*
X113354877Y-92365133D01*
X113354877Y-92365133D02*
X113421544Y-92365133D01*
X113421544Y-92365133D02*
X113521544Y-92331800D01*
X113521544Y-92331800D02*
X113588211Y-92265133D01*
X113588211Y-92265133D02*
X113621544Y-92198466D01*
X113621544Y-92198466D02*
X113654877Y-92065133D01*
X113654877Y-92065133D02*
X113654877Y-91965133D01*
X113654877Y-91965133D02*
X113621544Y-91831800D01*
X113621544Y-91831800D02*
X113588211Y-91765133D01*
X113588211Y-91765133D02*
X113521544Y-91698466D01*
X113521544Y-91698466D02*
X113421544Y-91665133D01*
X113421544Y-91665133D02*
X113354877Y-91665133D01*
X113354877Y-91665133D02*
X113254877Y-91698466D01*
X113254877Y-91698466D02*
X113221544Y-91731800D01*
X112554877Y-92365133D02*
X112954877Y-92365133D01*
X112754877Y-92365133D02*
X112754877Y-91665133D01*
X112754877Y-91665133D02*
X112821544Y-91765133D01*
X112821544Y-91765133D02*
X112888211Y-91831800D01*
X112888211Y-91831800D02*
X112954877Y-91865133D01*
X112321544Y-91665133D02*
X111888210Y-91665133D01*
X111888210Y-91665133D02*
X112121544Y-91931800D01*
X112121544Y-91931800D02*
X112021544Y-91931800D01*
X112021544Y-91931800D02*
X111954877Y-91965133D01*
X111954877Y-91965133D02*
X111921544Y-91998466D01*
X111921544Y-91998466D02*
X111888210Y-92065133D01*
X111888210Y-92065133D02*
X111888210Y-92231800D01*
X111888210Y-92231800D02*
X111921544Y-92298466D01*
X111921544Y-92298466D02*
X111954877Y-92331800D01*
X111954877Y-92331800D02*
X112021544Y-92365133D01*
X112021544Y-92365133D02*
X112221544Y-92365133D01*
X112221544Y-92365133D02*
X112288210Y-92331800D01*
X112288210Y-92331800D02*
X112321544Y-92298466D01*
X114321544Y-118781133D02*
X114321544Y-118081133D01*
X114321544Y-118081133D02*
X114054877Y-118081133D01*
X114054877Y-118081133D02*
X113988211Y-118114466D01*
X113988211Y-118114466D02*
X113954877Y-118147800D01*
X113954877Y-118147800D02*
X113921544Y-118214466D01*
X113921544Y-118214466D02*
X113921544Y-118314466D01*
X113921544Y-118314466D02*
X113954877Y-118381133D01*
X113954877Y-118381133D02*
X113988211Y-118414466D01*
X113988211Y-118414466D02*
X114054877Y-118447800D01*
X114054877Y-118447800D02*
X114321544Y-118447800D01*
X113388211Y-118414466D02*
X113288211Y-118447800D01*
X113288211Y-118447800D02*
X113254877Y-118481133D01*
X113254877Y-118481133D02*
X113221544Y-118547800D01*
X113221544Y-118547800D02*
X113221544Y-118647800D01*
X113221544Y-118647800D02*
X113254877Y-118714466D01*
X113254877Y-118714466D02*
X113288211Y-118747800D01*
X113288211Y-118747800D02*
X113354877Y-118781133D01*
X113354877Y-118781133D02*
X113621544Y-118781133D01*
X113621544Y-118781133D02*
X113621544Y-118081133D01*
X113621544Y-118081133D02*
X113388211Y-118081133D01*
X113388211Y-118081133D02*
X113321544Y-118114466D01*
X113321544Y-118114466D02*
X113288211Y-118147800D01*
X113288211Y-118147800D02*
X113254877Y-118214466D01*
X113254877Y-118214466D02*
X113254877Y-118281133D01*
X113254877Y-118281133D02*
X113288211Y-118347800D01*
X113288211Y-118347800D02*
X113321544Y-118381133D01*
X113321544Y-118381133D02*
X113388211Y-118414466D01*
X113388211Y-118414466D02*
X113621544Y-118414466D01*
X112788211Y-118081133D02*
X112721544Y-118081133D01*
X112721544Y-118081133D02*
X112654877Y-118114466D01*
X112654877Y-118114466D02*
X112621544Y-118147800D01*
X112621544Y-118147800D02*
X112588211Y-118214466D01*
X112588211Y-118214466D02*
X112554877Y-118347800D01*
X112554877Y-118347800D02*
X112554877Y-118514466D01*
X112554877Y-118514466D02*
X112588211Y-118647800D01*
X112588211Y-118647800D02*
X112621544Y-118714466D01*
X112621544Y-118714466D02*
X112654877Y-118747800D01*
X112654877Y-118747800D02*
X112721544Y-118781133D01*
X112721544Y-118781133D02*
X112788211Y-118781133D01*
X112788211Y-118781133D02*
X112854877Y-118747800D01*
X112854877Y-118747800D02*
X112888211Y-118714466D01*
X112888211Y-118714466D02*
X112921544Y-118647800D01*
X112921544Y-118647800D02*
X112954877Y-118514466D01*
X112954877Y-118514466D02*
X112954877Y-118347800D01*
X112954877Y-118347800D02*
X112921544Y-118214466D01*
X112921544Y-118214466D02*
X112888211Y-118147800D01*
X112888211Y-118147800D02*
X112854877Y-118114466D01*
X112854877Y-118114466D02*
X112788211Y-118081133D01*
X114321544Y-115974466D02*
X113788211Y-115974466D01*
X114054877Y-116241133D02*
X114054877Y-115707800D01*
X113121544Y-115541133D02*
X113454877Y-115541133D01*
X113454877Y-115541133D02*
X113488210Y-115874466D01*
X113488210Y-115874466D02*
X113454877Y-115841133D01*
X113454877Y-115841133D02*
X113388210Y-115807800D01*
X113388210Y-115807800D02*
X113221544Y-115807800D01*
X113221544Y-115807800D02*
X113154877Y-115841133D01*
X113154877Y-115841133D02*
X113121544Y-115874466D01*
X113121544Y-115874466D02*
X113088210Y-115941133D01*
X113088210Y-115941133D02*
X113088210Y-116107800D01*
X113088210Y-116107800D02*
X113121544Y-116174466D01*
X113121544Y-116174466D02*
X113154877Y-116207800D01*
X113154877Y-116207800D02*
X113221544Y-116241133D01*
X113221544Y-116241133D02*
X113388210Y-116241133D01*
X113388210Y-116241133D02*
X113454877Y-116207800D01*
X113454877Y-116207800D02*
X113488210Y-116174466D01*
X112888210Y-115541133D02*
X112654877Y-116241133D01*
X112654877Y-116241133D02*
X112421543Y-115541133D01*
X114321544Y-131481133D02*
X114321544Y-130781133D01*
X114321544Y-130781133D02*
X114054877Y-130781133D01*
X114054877Y-130781133D02*
X113988211Y-130814466D01*
X113988211Y-130814466D02*
X113954877Y-130847800D01*
X113954877Y-130847800D02*
X113921544Y-130914466D01*
X113921544Y-130914466D02*
X113921544Y-131014466D01*
X113921544Y-131014466D02*
X113954877Y-131081133D01*
X113954877Y-131081133D02*
X113988211Y-131114466D01*
X113988211Y-131114466D02*
X114054877Y-131147800D01*
X114054877Y-131147800D02*
X114321544Y-131147800D01*
X113654877Y-131281133D02*
X113321544Y-131281133D01*
X113721544Y-131481133D02*
X113488211Y-130781133D01*
X113488211Y-130781133D02*
X113254877Y-131481133D01*
X112988211Y-131481133D02*
X112854877Y-131481133D01*
X112854877Y-131481133D02*
X112788211Y-131447800D01*
X112788211Y-131447800D02*
X112754877Y-131414466D01*
X112754877Y-131414466D02*
X112688211Y-131314466D01*
X112688211Y-131314466D02*
X112654877Y-131181133D01*
X112654877Y-131181133D02*
X112654877Y-130914466D01*
X112654877Y-130914466D02*
X112688211Y-130847800D01*
X112688211Y-130847800D02*
X112721544Y-130814466D01*
X112721544Y-130814466D02*
X112788211Y-130781133D01*
X112788211Y-130781133D02*
X112921544Y-130781133D01*
X112921544Y-130781133D02*
X112988211Y-130814466D01*
X112988211Y-130814466D02*
X113021544Y-130847800D01*
X113021544Y-130847800D02*
X113054877Y-130914466D01*
X113054877Y-130914466D02*
X113054877Y-131081133D01*
X113054877Y-131081133D02*
X113021544Y-131147800D01*
X113021544Y-131147800D02*
X112988211Y-131181133D01*
X112988211Y-131181133D02*
X112921544Y-131214466D01*
X112921544Y-131214466D02*
X112788211Y-131214466D01*
X112788211Y-131214466D02*
X112721544Y-131181133D01*
X112721544Y-131181133D02*
X112688211Y-131147800D01*
X112688211Y-131147800D02*
X112654877Y-131081133D01*
X113954877Y-113034466D02*
X114021544Y-113001133D01*
X114021544Y-113001133D02*
X114121544Y-113001133D01*
X114121544Y-113001133D02*
X114221544Y-113034466D01*
X114221544Y-113034466D02*
X114288211Y-113101133D01*
X114288211Y-113101133D02*
X114321544Y-113167800D01*
X114321544Y-113167800D02*
X114354877Y-113301133D01*
X114354877Y-113301133D02*
X114354877Y-113401133D01*
X114354877Y-113401133D02*
X114321544Y-113534466D01*
X114321544Y-113534466D02*
X114288211Y-113601133D01*
X114288211Y-113601133D02*
X114221544Y-113667800D01*
X114221544Y-113667800D02*
X114121544Y-113701133D01*
X114121544Y-113701133D02*
X114054877Y-113701133D01*
X114054877Y-113701133D02*
X113954877Y-113667800D01*
X113954877Y-113667800D02*
X113921544Y-113634466D01*
X113921544Y-113634466D02*
X113921544Y-113401133D01*
X113921544Y-113401133D02*
X114054877Y-113401133D01*
X113621544Y-113701133D02*
X113621544Y-113001133D01*
X113621544Y-113001133D02*
X113221544Y-113701133D01*
X113221544Y-113701133D02*
X113221544Y-113001133D01*
X112888211Y-113701133D02*
X112888211Y-113001133D01*
X112888211Y-113001133D02*
X112721544Y-113001133D01*
X112721544Y-113001133D02*
X112621544Y-113034466D01*
X112621544Y-113034466D02*
X112554878Y-113101133D01*
X112554878Y-113101133D02*
X112521544Y-113167800D01*
X112521544Y-113167800D02*
X112488211Y-113301133D01*
X112488211Y-113301133D02*
X112488211Y-113401133D01*
X112488211Y-113401133D02*
X112521544Y-113534466D01*
X112521544Y-113534466D02*
X112554878Y-113601133D01*
X112554878Y-113601133D02*
X112621544Y-113667800D01*
X112621544Y-113667800D02*
X112721544Y-113701133D01*
X112721544Y-113701133D02*
X112888211Y-113701133D01*
X114321544Y-128941133D02*
X114321544Y-128241133D01*
X114321544Y-128241133D02*
X114054877Y-128241133D01*
X114054877Y-128241133D02*
X113988211Y-128274466D01*
X113988211Y-128274466D02*
X113954877Y-128307800D01*
X113954877Y-128307800D02*
X113921544Y-128374466D01*
X113921544Y-128374466D02*
X113921544Y-128474466D01*
X113921544Y-128474466D02*
X113954877Y-128541133D01*
X113954877Y-128541133D02*
X113988211Y-128574466D01*
X113988211Y-128574466D02*
X114054877Y-128607800D01*
X114054877Y-128607800D02*
X114321544Y-128607800D01*
X113221544Y-128874466D02*
X113254877Y-128907800D01*
X113254877Y-128907800D02*
X113354877Y-128941133D01*
X113354877Y-128941133D02*
X113421544Y-128941133D01*
X113421544Y-128941133D02*
X113521544Y-128907800D01*
X113521544Y-128907800D02*
X113588211Y-128841133D01*
X113588211Y-128841133D02*
X113621544Y-128774466D01*
X113621544Y-128774466D02*
X113654877Y-128641133D01*
X113654877Y-128641133D02*
X113654877Y-128541133D01*
X113654877Y-128541133D02*
X113621544Y-128407800D01*
X113621544Y-128407800D02*
X113588211Y-128341133D01*
X113588211Y-128341133D02*
X113521544Y-128274466D01*
X113521544Y-128274466D02*
X113421544Y-128241133D01*
X113421544Y-128241133D02*
X113354877Y-128241133D01*
X113354877Y-128241133D02*
X113254877Y-128274466D01*
X113254877Y-128274466D02*
X113221544Y-128307800D01*
X112988211Y-128241133D02*
X112521544Y-128241133D01*
X112521544Y-128241133D02*
X112821544Y-128941133D01*
X122957544Y-97445133D02*
X122957544Y-96745133D01*
X122957544Y-96745133D02*
X122690877Y-96745133D01*
X122690877Y-96745133D02*
X122624211Y-96778466D01*
X122624211Y-96778466D02*
X122590877Y-96811800D01*
X122590877Y-96811800D02*
X122557544Y-96878466D01*
X122557544Y-96878466D02*
X122557544Y-96978466D01*
X122557544Y-96978466D02*
X122590877Y-97045133D01*
X122590877Y-97045133D02*
X122624211Y-97078466D01*
X122624211Y-97078466D02*
X122690877Y-97111800D01*
X122690877Y-97111800D02*
X122957544Y-97111800D01*
X121857544Y-97378466D02*
X121890877Y-97411800D01*
X121890877Y-97411800D02*
X121990877Y-97445133D01*
X121990877Y-97445133D02*
X122057544Y-97445133D01*
X122057544Y-97445133D02*
X122157544Y-97411800D01*
X122157544Y-97411800D02*
X122224211Y-97345133D01*
X122224211Y-97345133D02*
X122257544Y-97278466D01*
X122257544Y-97278466D02*
X122290877Y-97145133D01*
X122290877Y-97145133D02*
X122290877Y-97045133D01*
X122290877Y-97045133D02*
X122257544Y-96911800D01*
X122257544Y-96911800D02*
X122224211Y-96845133D01*
X122224211Y-96845133D02*
X122157544Y-96778466D01*
X122157544Y-96778466D02*
X122057544Y-96745133D01*
X122057544Y-96745133D02*
X121990877Y-96745133D01*
X121990877Y-96745133D02*
X121890877Y-96778466D01*
X121890877Y-96778466D02*
X121857544Y-96811800D01*
X121624211Y-96745133D02*
X121190877Y-96745133D01*
X121190877Y-96745133D02*
X121424211Y-97011800D01*
X121424211Y-97011800D02*
X121324211Y-97011800D01*
X121324211Y-97011800D02*
X121257544Y-97045133D01*
X121257544Y-97045133D02*
X121224211Y-97078466D01*
X121224211Y-97078466D02*
X121190877Y-97145133D01*
X121190877Y-97145133D02*
X121190877Y-97311800D01*
X121190877Y-97311800D02*
X121224211Y-97378466D01*
X121224211Y-97378466D02*
X121257544Y-97411800D01*
X121257544Y-97411800D02*
X121324211Y-97445133D01*
X121324211Y-97445133D02*
X121524211Y-97445133D01*
X121524211Y-97445133D02*
X121590877Y-97411800D01*
X121590877Y-97411800D02*
X121624211Y-97378466D01*
D11*
X162422857Y-107854819D02*
X162756190Y-107378628D01*
X162994285Y-107854819D02*
X162994285Y-106854819D01*
X162994285Y-106854819D02*
X162613333Y-106854819D01*
X162613333Y-106854819D02*
X162518095Y-106902438D01*
X162518095Y-106902438D02*
X162470476Y-106950057D01*
X162470476Y-106950057D02*
X162422857Y-107045295D01*
X162422857Y-107045295D02*
X162422857Y-107188152D01*
X162422857Y-107188152D02*
X162470476Y-107283390D01*
X162470476Y-107283390D02*
X162518095Y-107331009D01*
X162518095Y-107331009D02*
X162613333Y-107378628D01*
X162613333Y-107378628D02*
X162994285Y-107378628D01*
X161470476Y-107854819D02*
X162041904Y-107854819D01*
X161756190Y-107854819D02*
X161756190Y-106854819D01*
X161756190Y-106854819D02*
X161851428Y-106997676D01*
X161851428Y-106997676D02*
X161946666Y-107092914D01*
X161946666Y-107092914D02*
X162041904Y-107140533D01*
X160565714Y-106854819D02*
X161041904Y-106854819D01*
X161041904Y-106854819D02*
X161089523Y-107331009D01*
X161089523Y-107331009D02*
X161041904Y-107283390D01*
X161041904Y-107283390D02*
X160946666Y-107235771D01*
X160946666Y-107235771D02*
X160708571Y-107235771D01*
X160708571Y-107235771D02*
X160613333Y-107283390D01*
X160613333Y-107283390D02*
X160565714Y-107331009D01*
X160565714Y-107331009D02*
X160518095Y-107426247D01*
X160518095Y-107426247D02*
X160518095Y-107664342D01*
X160518095Y-107664342D02*
X160565714Y-107759580D01*
X160565714Y-107759580D02*
X160613333Y-107807200D01*
X160613333Y-107807200D02*
X160708571Y-107854819D01*
X160708571Y-107854819D02*
X160946666Y-107854819D01*
X160946666Y-107854819D02*
X161041904Y-107807200D01*
X161041904Y-107807200D02*
X161089523Y-107759580D01*
X118749523Y-135598819D02*
X118749523Y-136313104D01*
X118749523Y-136313104D02*
X118797142Y-136455961D01*
X118797142Y-136455961D02*
X118892380Y-136551200D01*
X118892380Y-136551200D02*
X119035237Y-136598819D01*
X119035237Y-136598819D02*
X119130475Y-136598819D01*
X117749523Y-136598819D02*
X118320951Y-136598819D01*
X118035237Y-136598819D02*
X118035237Y-135598819D01*
X118035237Y-135598819D02*
X118130475Y-135741676D01*
X118130475Y-135741676D02*
X118225713Y-135836914D01*
X118225713Y-135836914D02*
X118320951Y-135884533D01*
X116797142Y-136598819D02*
X117368570Y-136598819D01*
X117082856Y-136598819D02*
X117082856Y-135598819D01*
X117082856Y-135598819D02*
X117178094Y-135741676D01*
X117178094Y-135741676D02*
X117273332Y-135836914D01*
X117273332Y-135836914D02*
X117368570Y-135884533D01*
X165454819Y-120916666D02*
X166169104Y-120916666D01*
X166169104Y-120916666D02*
X166311961Y-120869047D01*
X166311961Y-120869047D02*
X166407200Y-120773809D01*
X166407200Y-120773809D02*
X166454819Y-120630952D01*
X166454819Y-120630952D02*
X166454819Y-120535714D01*
X165454819Y-121821428D02*
X165454819Y-121630952D01*
X165454819Y-121630952D02*
X165502438Y-121535714D01*
X165502438Y-121535714D02*
X165550057Y-121488095D01*
X165550057Y-121488095D02*
X165692914Y-121392857D01*
X165692914Y-121392857D02*
X165883390Y-121345238D01*
X165883390Y-121345238D02*
X166264342Y-121345238D01*
X166264342Y-121345238D02*
X166359580Y-121392857D01*
X166359580Y-121392857D02*
X166407200Y-121440476D01*
X166407200Y-121440476D02*
X166454819Y-121535714D01*
X166454819Y-121535714D02*
X166454819Y-121726190D01*
X166454819Y-121726190D02*
X166407200Y-121821428D01*
X166407200Y-121821428D02*
X166359580Y-121869047D01*
X166359580Y-121869047D02*
X166264342Y-121916666D01*
X166264342Y-121916666D02*
X166026247Y-121916666D01*
X166026247Y-121916666D02*
X165931009Y-121869047D01*
X165931009Y-121869047D02*
X165883390Y-121821428D01*
X165883390Y-121821428D02*
X165835771Y-121726190D01*
X165835771Y-121726190D02*
X165835771Y-121535714D01*
X165835771Y-121535714D02*
X165883390Y-121440476D01*
X165883390Y-121440476D02*
X165931009Y-121392857D01*
X165931009Y-121392857D02*
X166026247Y-121345238D01*
X118273333Y-76344819D02*
X118273333Y-77059104D01*
X118273333Y-77059104D02*
X118320952Y-77201961D01*
X118320952Y-77201961D02*
X118416190Y-77297200D01*
X118416190Y-77297200D02*
X118559047Y-77344819D01*
X118559047Y-77344819D02*
X118654285Y-77344819D01*
X117749523Y-77344819D02*
X117559047Y-77344819D01*
X117559047Y-77344819D02*
X117463809Y-77297200D01*
X117463809Y-77297200D02*
X117416190Y-77249580D01*
X117416190Y-77249580D02*
X117320952Y-77106723D01*
X117320952Y-77106723D02*
X117273333Y-76916247D01*
X117273333Y-76916247D02*
X117273333Y-76535295D01*
X117273333Y-76535295D02*
X117320952Y-76440057D01*
X117320952Y-76440057D02*
X117368571Y-76392438D01*
X117368571Y-76392438D02*
X117463809Y-76344819D01*
X117463809Y-76344819D02*
X117654285Y-76344819D01*
X117654285Y-76344819D02*
X117749523Y-76392438D01*
X117749523Y-76392438D02*
X117797142Y-76440057D01*
X117797142Y-76440057D02*
X117844761Y-76535295D01*
X117844761Y-76535295D02*
X117844761Y-76773390D01*
X117844761Y-76773390D02*
X117797142Y-76868628D01*
X117797142Y-76868628D02*
X117749523Y-76916247D01*
X117749523Y-76916247D02*
X117654285Y-76963866D01*
X117654285Y-76963866D02*
X117463809Y-76963866D01*
X117463809Y-76963866D02*
X117368571Y-76916247D01*
X117368571Y-76916247D02*
X117320952Y-76868628D01*
X117320952Y-76868628D02*
X117273333Y-76773390D01*
D12*
%TO.C,G\u002A\u002A\u002A*%
G36*
X137144480Y-85835220D02*
G01*
X137167077Y-85844858D01*
X137172667Y-85866666D01*
X137176442Y-85885906D01*
X137195718Y-85897204D01*
X137239334Y-85900000D01*
X137277814Y-85901887D01*
X137300410Y-85911525D01*
X137306000Y-85933333D01*
X137309775Y-85952573D01*
X137329051Y-85963871D01*
X137372667Y-85966666D01*
X137411147Y-85968553D01*
X137433743Y-85978192D01*
X137439334Y-86000000D01*
X137444812Y-86021548D01*
X137472667Y-86033333D01*
X137494215Y-86038811D01*
X137506000Y-86066666D01*
X137509775Y-86085906D01*
X137529051Y-86097204D01*
X137572667Y-86100000D01*
X137611147Y-86101887D01*
X137633743Y-86111525D01*
X137639334Y-86133333D01*
X137643108Y-86152573D01*
X137662385Y-86163871D01*
X137706000Y-86166666D01*
X137744480Y-86168553D01*
X137767077Y-86178192D01*
X137772667Y-86200000D01*
X137776442Y-86219239D01*
X137795718Y-86230538D01*
X137839334Y-86233333D01*
X137877814Y-86235220D01*
X137900410Y-86244858D01*
X137906000Y-86266666D01*
X137909775Y-86285906D01*
X137929051Y-86297204D01*
X137972667Y-86300000D01*
X138011147Y-86301887D01*
X138033743Y-86311525D01*
X138039334Y-86333333D01*
X138044812Y-86354881D01*
X138072667Y-86366666D01*
X138094215Y-86372144D01*
X138106000Y-86400000D01*
X138109775Y-86419239D01*
X138129051Y-86430538D01*
X138172667Y-86433333D01*
X138211147Y-86435220D01*
X138233743Y-86444858D01*
X138239334Y-86466666D01*
X138243108Y-86485906D01*
X138262385Y-86497204D01*
X138306000Y-86500000D01*
X138344480Y-86501887D01*
X138367077Y-86511525D01*
X138372667Y-86533333D01*
X138378145Y-86554881D01*
X138406000Y-86566666D01*
X138427549Y-86572144D01*
X138439334Y-86600000D01*
X138444812Y-86621548D01*
X138472667Y-86633333D01*
X138494215Y-86638811D01*
X138506000Y-86666666D01*
X138511479Y-86688214D01*
X138539334Y-86700000D01*
X138540007Y-86700001D01*
X138547419Y-86700843D01*
X138553615Y-86705089D01*
X138558704Y-86715459D01*
X138562795Y-86734674D01*
X138565998Y-86765455D01*
X138568420Y-86810524D01*
X138570171Y-86872600D01*
X138571360Y-86954405D01*
X138572095Y-87058660D01*
X138572486Y-87188086D01*
X138572640Y-87345403D01*
X138572667Y-87533333D01*
X138572667Y-88366666D01*
X138439334Y-88366666D01*
X138404179Y-88366544D01*
X138351169Y-88364870D01*
X138321605Y-88359895D01*
X138308784Y-88349941D01*
X138306000Y-88333333D01*
X138304162Y-88318569D01*
X138292032Y-88306559D01*
X138261853Y-88301216D01*
X138206000Y-88300000D01*
X138161709Y-88299387D01*
X138125678Y-88295343D01*
X138109649Y-88285284D01*
X138106000Y-88266666D01*
X138100522Y-88245118D01*
X138072667Y-88233333D01*
X138051119Y-88227855D01*
X138039334Y-88200000D01*
X138033856Y-88178451D01*
X138006000Y-88166666D01*
X137984452Y-88161188D01*
X137972667Y-88133333D01*
X137968893Y-88114093D01*
X137949616Y-88102795D01*
X137906000Y-88100000D01*
X137867521Y-88098112D01*
X137844924Y-88088474D01*
X137839334Y-88066666D01*
X137835559Y-88047426D01*
X137816283Y-88036128D01*
X137772667Y-88033333D01*
X137734187Y-88031446D01*
X137711591Y-88021807D01*
X137706000Y-88000000D01*
X137702226Y-87980760D01*
X137682950Y-87969461D01*
X137639334Y-87966666D01*
X137600854Y-87964779D01*
X137578258Y-87955141D01*
X137572667Y-87933333D01*
X137567189Y-87911785D01*
X137539334Y-87900000D01*
X137517786Y-87894521D01*
X137506000Y-87866666D01*
X137504162Y-87851902D01*
X137492032Y-87839892D01*
X137461853Y-87834549D01*
X137406000Y-87833333D01*
X137361709Y-87832720D01*
X137325678Y-87828677D01*
X137309649Y-87818617D01*
X137306000Y-87800000D01*
X137300522Y-87778451D01*
X137272667Y-87766666D01*
X137251119Y-87761188D01*
X137239334Y-87733333D01*
X137235559Y-87714093D01*
X137216283Y-87702795D01*
X137172667Y-87700000D01*
X137134187Y-87698112D01*
X137111591Y-87688474D01*
X137106000Y-87666666D01*
X137100522Y-87645118D01*
X137072667Y-87633333D01*
X137068387Y-87633184D01*
X137061791Y-87631125D01*
X137056277Y-87624534D01*
X137051749Y-87610793D01*
X137048109Y-87587282D01*
X137045260Y-87551385D01*
X137043106Y-87500483D01*
X137041549Y-87431957D01*
X137040493Y-87343189D01*
X137039841Y-87231561D01*
X137039494Y-87094454D01*
X137039358Y-86929251D01*
X137039334Y-86733333D01*
X137039334Y-85833333D01*
X137106000Y-85833333D01*
X137144480Y-85835220D01*
G37*
G36*
X135227549Y-88972144D02*
G01*
X135239334Y-89000000D01*
X135243108Y-89019239D01*
X135262385Y-89030538D01*
X135306000Y-89033333D01*
X135344480Y-89035220D01*
X135367077Y-89044858D01*
X135372667Y-89066666D01*
X135376442Y-89085906D01*
X135395718Y-89097204D01*
X135439334Y-89100000D01*
X135477814Y-89101887D01*
X135500410Y-89111525D01*
X135506000Y-89133333D01*
X135509775Y-89152573D01*
X135529051Y-89163871D01*
X135572667Y-89166666D01*
X135611147Y-89168553D01*
X135633743Y-89178192D01*
X135639334Y-89200000D01*
X135643108Y-89219239D01*
X135662385Y-89230538D01*
X135706000Y-89233333D01*
X135744480Y-89235220D01*
X135767077Y-89244858D01*
X135772667Y-89266666D01*
X135776442Y-89285906D01*
X135795718Y-89297204D01*
X135839334Y-89300000D01*
X135877814Y-89301887D01*
X135900410Y-89311525D01*
X135906000Y-89333333D01*
X135911479Y-89354881D01*
X135939334Y-89366666D01*
X135960882Y-89372144D01*
X135972667Y-89400000D01*
X135976442Y-89419239D01*
X135995718Y-89430538D01*
X136039334Y-89433333D01*
X136077814Y-89435220D01*
X136100410Y-89444858D01*
X136106000Y-89466666D01*
X136109775Y-89485906D01*
X136129051Y-89497204D01*
X136172667Y-89500000D01*
X136211147Y-89501887D01*
X136233743Y-89511525D01*
X136239334Y-89533333D01*
X136243108Y-89552573D01*
X136262385Y-89563871D01*
X136306000Y-89566666D01*
X136344480Y-89568553D01*
X136367077Y-89578192D01*
X136372667Y-89600000D01*
X136378145Y-89621548D01*
X136406000Y-89633333D01*
X136427549Y-89638811D01*
X136439334Y-89666666D01*
X136443108Y-89685906D01*
X136462385Y-89697204D01*
X136506000Y-89700000D01*
X136544480Y-89701887D01*
X136567077Y-89711525D01*
X136572667Y-89733333D01*
X136576442Y-89752573D01*
X136595718Y-89763871D01*
X136639334Y-89766666D01*
X136706000Y-89766666D01*
X136706000Y-90633333D01*
X136706000Y-91500000D01*
X136639334Y-91500000D01*
X136600854Y-91498112D01*
X136578258Y-91488474D01*
X136572667Y-91466666D01*
X136568893Y-91447426D01*
X136549616Y-91436128D01*
X136506000Y-91433333D01*
X136467521Y-91431446D01*
X136444924Y-91421807D01*
X136439334Y-91400000D01*
X136435559Y-91380760D01*
X136416283Y-91369461D01*
X136372667Y-91366666D01*
X136334187Y-91364779D01*
X136311591Y-91355141D01*
X136306000Y-91333333D01*
X136300522Y-91311785D01*
X136272667Y-91300000D01*
X136251119Y-91294521D01*
X136239334Y-91266666D01*
X136235559Y-91247426D01*
X136216283Y-91236128D01*
X136172667Y-91233333D01*
X136134187Y-91231446D01*
X136111591Y-91221807D01*
X136106000Y-91200000D01*
X136102226Y-91180760D01*
X136082950Y-91169461D01*
X136039334Y-91166666D01*
X136000854Y-91164779D01*
X135978258Y-91155141D01*
X135972667Y-91133333D01*
X135968893Y-91114093D01*
X135949616Y-91102795D01*
X135906000Y-91100000D01*
X135867521Y-91098112D01*
X135844924Y-91088474D01*
X135839334Y-91066666D01*
X135835559Y-91047426D01*
X135816283Y-91036128D01*
X135772667Y-91033333D01*
X135734187Y-91031446D01*
X135711591Y-91021807D01*
X135706000Y-91000000D01*
X135700522Y-90978451D01*
X135672667Y-90966666D01*
X135651119Y-90961188D01*
X135639334Y-90933333D01*
X135635559Y-90914093D01*
X135616283Y-90902795D01*
X135572667Y-90900000D01*
X135534187Y-90898112D01*
X135511591Y-90888474D01*
X135506000Y-90866666D01*
X135502226Y-90847426D01*
X135482950Y-90836128D01*
X135439334Y-90833333D01*
X135400854Y-90831446D01*
X135378258Y-90821807D01*
X135372667Y-90800000D01*
X135368893Y-90780760D01*
X135349616Y-90769461D01*
X135306000Y-90766666D01*
X135267521Y-90764779D01*
X135244924Y-90755141D01*
X135239334Y-90733333D01*
X135233856Y-90711785D01*
X135206000Y-90700000D01*
X135203436Y-90699960D01*
X135196452Y-90698569D01*
X135190614Y-90693194D01*
X135185819Y-90681166D01*
X135181964Y-90659819D01*
X135178947Y-90626483D01*
X135176665Y-90578490D01*
X135175016Y-90513173D01*
X135173897Y-90427863D01*
X135173205Y-90319892D01*
X135172838Y-90186592D01*
X135172693Y-90025295D01*
X135172667Y-89833333D01*
X135172669Y-89766662D01*
X135172722Y-89585078D01*
X135172929Y-89433282D01*
X135173392Y-89308605D01*
X135174213Y-89208380D01*
X135175495Y-89129939D01*
X135177341Y-89070613D01*
X135179853Y-89027734D01*
X135183134Y-88998635D01*
X135187287Y-88980646D01*
X135192414Y-88971101D01*
X135198617Y-88967330D01*
X135206000Y-88966666D01*
X135227549Y-88972144D01*
G37*
G36*
X135277814Y-91101887D02*
G01*
X135300410Y-91111525D01*
X135306000Y-91133333D01*
X135309775Y-91152573D01*
X135329051Y-91163871D01*
X135372667Y-91166666D01*
X135411147Y-91168553D01*
X135433743Y-91178192D01*
X135439334Y-91200000D01*
X135443108Y-91219239D01*
X135462385Y-91230538D01*
X135506000Y-91233333D01*
X135544480Y-91235220D01*
X135567077Y-91244858D01*
X135572667Y-91266666D01*
X135576442Y-91285906D01*
X135595718Y-91297204D01*
X135639334Y-91300000D01*
X135677814Y-91301887D01*
X135700410Y-91311525D01*
X135706000Y-91333333D01*
X135709775Y-91352573D01*
X135729051Y-91363871D01*
X135772667Y-91366666D01*
X135811147Y-91368553D01*
X135833743Y-91378192D01*
X135839334Y-91400000D01*
X135843108Y-91419239D01*
X135862385Y-91430538D01*
X135906000Y-91433333D01*
X135944480Y-91435220D01*
X135967077Y-91444858D01*
X135972667Y-91466666D01*
X135978145Y-91488214D01*
X136006000Y-91500000D01*
X136027549Y-91505478D01*
X136039334Y-91533333D01*
X136043108Y-91552573D01*
X136062385Y-91563871D01*
X136106000Y-91566666D01*
X136144480Y-91568553D01*
X136167077Y-91578192D01*
X136172667Y-91600000D01*
X136176442Y-91619239D01*
X136195718Y-91630538D01*
X136239334Y-91633333D01*
X136277814Y-91635220D01*
X136300410Y-91644858D01*
X136306000Y-91666666D01*
X136309775Y-91685906D01*
X136329051Y-91697204D01*
X136372667Y-91700000D01*
X136411147Y-91701887D01*
X136433743Y-91711525D01*
X136439334Y-91733333D01*
X136443108Y-91752573D01*
X136462385Y-91763871D01*
X136506000Y-91766666D01*
X136544480Y-91768553D01*
X136567077Y-91778192D01*
X136572667Y-91800000D01*
X136576442Y-91819239D01*
X136595718Y-91830538D01*
X136639334Y-91833333D01*
X136706000Y-91833333D01*
X136706000Y-92733333D01*
X136705995Y-92848886D01*
X136705919Y-93026982D01*
X136705675Y-93175854D01*
X136705166Y-93298122D01*
X136704295Y-93396403D01*
X136702965Y-93473316D01*
X136701080Y-93531479D01*
X136698542Y-93573511D01*
X136695254Y-93602029D01*
X136691120Y-93619652D01*
X136686042Y-93628998D01*
X136679923Y-93632685D01*
X136672667Y-93633333D01*
X136651119Y-93627855D01*
X136639334Y-93600000D01*
X136633856Y-93578451D01*
X136606000Y-93566666D01*
X136584452Y-93561188D01*
X136572667Y-93533333D01*
X136568893Y-93514093D01*
X136549616Y-93502795D01*
X136506000Y-93500000D01*
X136467521Y-93498112D01*
X136444924Y-93488474D01*
X136439334Y-93466666D01*
X136435559Y-93447426D01*
X136416283Y-93436128D01*
X136372667Y-93433333D01*
X136334187Y-93431446D01*
X136311591Y-93421807D01*
X136306000Y-93400000D01*
X136302226Y-93380760D01*
X136282950Y-93369461D01*
X136239334Y-93366666D01*
X136200854Y-93364779D01*
X136178258Y-93355141D01*
X136172667Y-93333333D01*
X136167189Y-93311785D01*
X136139334Y-93300000D01*
X136117786Y-93294521D01*
X136106000Y-93266666D01*
X136102226Y-93247426D01*
X136082950Y-93236128D01*
X136039334Y-93233333D01*
X136000854Y-93231446D01*
X135978258Y-93221807D01*
X135972667Y-93200000D01*
X135968893Y-93180760D01*
X135949616Y-93169461D01*
X135906000Y-93166666D01*
X135867521Y-93164779D01*
X135844924Y-93155141D01*
X135839334Y-93133333D01*
X135835559Y-93114093D01*
X135816283Y-93102795D01*
X135772667Y-93100000D01*
X135734187Y-93098112D01*
X135711591Y-93088474D01*
X135706000Y-93066666D01*
X135702226Y-93047426D01*
X135682950Y-93036128D01*
X135639334Y-93033333D01*
X135600854Y-93031446D01*
X135578258Y-93021807D01*
X135572667Y-93000000D01*
X135567189Y-92978451D01*
X135539334Y-92966666D01*
X135517786Y-92961188D01*
X135506000Y-92933333D01*
X135502226Y-92914093D01*
X135482950Y-92902795D01*
X135439334Y-92900000D01*
X135400854Y-92898112D01*
X135378258Y-92888474D01*
X135372667Y-92866666D01*
X135368893Y-92847426D01*
X135349616Y-92836128D01*
X135306000Y-92833333D01*
X135267521Y-92831446D01*
X135244924Y-92821807D01*
X135239334Y-92800000D01*
X135233856Y-92778451D01*
X135206000Y-92766666D01*
X135205327Y-92766664D01*
X135197916Y-92765822D01*
X135191720Y-92761577D01*
X135186630Y-92751207D01*
X135182539Y-92731992D01*
X135179336Y-92701210D01*
X135176914Y-92656142D01*
X135175163Y-92594065D01*
X135173974Y-92512260D01*
X135173239Y-92408005D01*
X135172849Y-92278580D01*
X135172694Y-92121262D01*
X135172667Y-91933333D01*
X135172667Y-91100000D01*
X135239334Y-91100000D01*
X135277814Y-91101887D01*
G37*
G36*
X131427549Y-88972144D02*
G01*
X131439334Y-89000000D01*
X131443108Y-89019239D01*
X131462385Y-89030538D01*
X131506000Y-89033333D01*
X131544480Y-89035220D01*
X131567077Y-89044858D01*
X131572667Y-89066666D01*
X131576442Y-89085906D01*
X131595718Y-89097204D01*
X131639334Y-89100000D01*
X131677814Y-89101887D01*
X131700410Y-89111525D01*
X131706000Y-89133333D01*
X131709775Y-89152573D01*
X131729051Y-89163871D01*
X131772667Y-89166666D01*
X131811147Y-89168553D01*
X131833743Y-89178192D01*
X131839334Y-89200000D01*
X131843108Y-89219239D01*
X131862385Y-89230538D01*
X131906000Y-89233333D01*
X131944480Y-89235220D01*
X131967077Y-89244858D01*
X131972667Y-89266666D01*
X131976442Y-89285906D01*
X131995718Y-89297204D01*
X132039334Y-89300000D01*
X132077814Y-89301887D01*
X132100410Y-89311525D01*
X132106000Y-89333333D01*
X132109775Y-89352573D01*
X132129051Y-89363871D01*
X132172667Y-89366666D01*
X132211147Y-89368553D01*
X132233743Y-89378192D01*
X132239334Y-89400000D01*
X132244812Y-89421548D01*
X132272667Y-89433333D01*
X132294215Y-89438811D01*
X132306000Y-89466666D01*
X132309775Y-89485906D01*
X132329051Y-89497204D01*
X132372667Y-89500000D01*
X132411147Y-89501887D01*
X132433743Y-89511525D01*
X132439334Y-89533333D01*
X132443108Y-89552573D01*
X132462385Y-89563871D01*
X132506000Y-89566666D01*
X132544480Y-89568553D01*
X132567077Y-89578192D01*
X132572667Y-89600000D01*
X132576442Y-89619239D01*
X132595718Y-89630538D01*
X132639334Y-89633333D01*
X132677814Y-89635220D01*
X132700410Y-89644858D01*
X132706000Y-89666666D01*
X132709775Y-89685906D01*
X132729051Y-89697204D01*
X132772667Y-89700000D01*
X132811147Y-89701887D01*
X132833743Y-89711525D01*
X132839334Y-89733333D01*
X132844812Y-89754881D01*
X132872667Y-89766666D01*
X132894215Y-89772144D01*
X132906000Y-89800000D01*
X132911479Y-89821548D01*
X132939334Y-89833333D01*
X132940007Y-89833335D01*
X132947419Y-89834177D01*
X132953615Y-89838422D01*
X132958704Y-89848792D01*
X132962795Y-89868007D01*
X132965998Y-89898789D01*
X132968420Y-89943857D01*
X132970171Y-90005934D01*
X132971360Y-90087739D01*
X132972095Y-90191994D01*
X132972486Y-90321419D01*
X132972640Y-90478737D01*
X132972667Y-90666666D01*
X132972667Y-91500000D01*
X132906000Y-91500000D01*
X132867521Y-91498112D01*
X132844924Y-91488474D01*
X132839334Y-91466666D01*
X132835559Y-91447426D01*
X132816283Y-91436128D01*
X132772667Y-91433333D01*
X132734187Y-91431446D01*
X132711591Y-91421807D01*
X132706000Y-91400000D01*
X132702226Y-91380760D01*
X132682950Y-91369461D01*
X132639334Y-91366666D01*
X132600854Y-91364779D01*
X132578258Y-91355141D01*
X132572667Y-91333333D01*
X132568893Y-91314093D01*
X132549616Y-91302795D01*
X132506000Y-91300000D01*
X132467521Y-91298112D01*
X132444924Y-91288474D01*
X132439334Y-91266666D01*
X132433856Y-91245118D01*
X132406000Y-91233333D01*
X132384452Y-91227855D01*
X132372667Y-91200000D01*
X132368893Y-91180760D01*
X132349616Y-91169461D01*
X132306000Y-91166666D01*
X132267521Y-91164779D01*
X132244924Y-91155141D01*
X132239334Y-91133333D01*
X132235559Y-91114093D01*
X132216283Y-91102795D01*
X132172667Y-91100000D01*
X132134187Y-91098112D01*
X132111591Y-91088474D01*
X132106000Y-91066666D01*
X132102226Y-91047426D01*
X132082950Y-91036128D01*
X132039334Y-91033333D01*
X132000854Y-91031446D01*
X131978258Y-91021807D01*
X131972667Y-91000000D01*
X131968893Y-90980760D01*
X131949616Y-90969461D01*
X131906000Y-90966666D01*
X131867521Y-90964779D01*
X131844924Y-90955141D01*
X131839334Y-90933333D01*
X131835559Y-90914093D01*
X131816283Y-90902795D01*
X131772667Y-90900000D01*
X131734187Y-90898112D01*
X131711591Y-90888474D01*
X131706000Y-90866666D01*
X131702226Y-90847426D01*
X131682950Y-90836128D01*
X131639334Y-90833333D01*
X131600854Y-90831446D01*
X131578258Y-90821807D01*
X131572667Y-90800000D01*
X131567189Y-90778451D01*
X131539334Y-90766666D01*
X131517786Y-90761188D01*
X131506000Y-90733333D01*
X131502226Y-90714093D01*
X131482950Y-90702795D01*
X131439334Y-90700000D01*
X131372667Y-90700000D01*
X131372667Y-89833333D01*
X131372669Y-89766662D01*
X131372722Y-89585078D01*
X131372929Y-89433282D01*
X131373392Y-89308605D01*
X131374213Y-89208380D01*
X131375495Y-89129939D01*
X131377341Y-89070613D01*
X131379853Y-89027734D01*
X131383134Y-88998635D01*
X131387287Y-88980646D01*
X131392414Y-88971101D01*
X131398617Y-88967330D01*
X131406000Y-88966666D01*
X131427549Y-88972144D01*
G37*
G36*
X133344480Y-85835220D02*
G01*
X133367077Y-85844858D01*
X133372667Y-85866666D01*
X133376442Y-85885906D01*
X133395718Y-85897204D01*
X133439334Y-85900000D01*
X133477814Y-85901887D01*
X133500410Y-85911525D01*
X133506000Y-85933333D01*
X133509775Y-85952573D01*
X133529051Y-85963871D01*
X133572667Y-85966666D01*
X133611147Y-85968553D01*
X133633743Y-85978192D01*
X133639334Y-86000000D01*
X133643108Y-86019239D01*
X133662385Y-86030538D01*
X133706000Y-86033333D01*
X133744480Y-86035220D01*
X133767077Y-86044858D01*
X133772667Y-86066666D01*
X133778145Y-86088214D01*
X133806000Y-86100000D01*
X133827549Y-86105478D01*
X133839334Y-86133333D01*
X133843108Y-86152573D01*
X133862385Y-86163871D01*
X133906000Y-86166666D01*
X133944480Y-86168553D01*
X133967077Y-86178192D01*
X133972667Y-86200000D01*
X133976442Y-86219239D01*
X133995718Y-86230538D01*
X134039334Y-86233333D01*
X134077814Y-86235220D01*
X134100410Y-86244858D01*
X134106000Y-86266666D01*
X134109775Y-86285906D01*
X134129051Y-86297204D01*
X134172667Y-86300000D01*
X134211147Y-86301887D01*
X134233743Y-86311525D01*
X134239334Y-86333333D01*
X134243108Y-86352573D01*
X134262385Y-86363871D01*
X134306000Y-86366666D01*
X134344480Y-86368553D01*
X134367077Y-86378192D01*
X134372667Y-86400000D01*
X134376442Y-86419239D01*
X134395718Y-86430538D01*
X134439334Y-86433333D01*
X134477814Y-86435220D01*
X134500410Y-86444858D01*
X134506000Y-86466666D01*
X134509775Y-86485906D01*
X134529051Y-86497204D01*
X134572667Y-86500000D01*
X134611147Y-86501887D01*
X134633743Y-86511525D01*
X134639334Y-86533333D01*
X134644812Y-86554881D01*
X134672667Y-86566666D01*
X134694215Y-86572144D01*
X134706000Y-86600000D01*
X134709775Y-86619239D01*
X134729051Y-86630538D01*
X134772667Y-86633333D01*
X134839334Y-86633333D01*
X134839334Y-87500000D01*
X134839334Y-88366666D01*
X134772667Y-88366666D01*
X134734187Y-88364779D01*
X134711591Y-88355141D01*
X134706000Y-88333333D01*
X134700522Y-88311785D01*
X134672667Y-88300000D01*
X134651119Y-88294521D01*
X134639334Y-88266666D01*
X134635559Y-88247426D01*
X134616283Y-88236128D01*
X134572667Y-88233333D01*
X134534187Y-88231446D01*
X134511591Y-88221807D01*
X134506000Y-88200000D01*
X134502226Y-88180760D01*
X134482950Y-88169461D01*
X134439334Y-88166666D01*
X134400854Y-88164779D01*
X134378258Y-88155141D01*
X134372667Y-88133333D01*
X134367189Y-88111785D01*
X134339334Y-88100000D01*
X134317786Y-88094521D01*
X134306000Y-88066666D01*
X134302226Y-88047426D01*
X134282950Y-88036128D01*
X134239334Y-88033333D01*
X134200854Y-88031446D01*
X134178258Y-88021807D01*
X134172667Y-88000000D01*
X134168893Y-87980760D01*
X134149616Y-87969461D01*
X134106000Y-87966666D01*
X134067521Y-87964779D01*
X134044924Y-87955141D01*
X134039334Y-87933333D01*
X134035559Y-87914093D01*
X134016283Y-87902795D01*
X133972667Y-87900000D01*
X133934187Y-87898112D01*
X133911591Y-87888474D01*
X133906000Y-87866666D01*
X133902226Y-87847426D01*
X133882950Y-87836128D01*
X133839334Y-87833333D01*
X133800854Y-87831446D01*
X133778258Y-87821807D01*
X133772667Y-87800000D01*
X133768893Y-87780760D01*
X133749616Y-87769461D01*
X133706000Y-87766666D01*
X133667521Y-87764779D01*
X133644924Y-87755141D01*
X133639334Y-87733333D01*
X133633856Y-87711785D01*
X133606000Y-87700000D01*
X133584452Y-87694521D01*
X133572667Y-87666666D01*
X133568893Y-87647426D01*
X133549616Y-87636128D01*
X133506000Y-87633333D01*
X133467521Y-87631446D01*
X133444924Y-87621807D01*
X133439334Y-87600000D01*
X133435559Y-87580760D01*
X133416283Y-87569461D01*
X133372667Y-87566666D01*
X133334187Y-87564779D01*
X133311591Y-87555141D01*
X133306000Y-87533333D01*
X133300522Y-87511785D01*
X133272667Y-87500000D01*
X133257903Y-87498161D01*
X133245893Y-87486031D01*
X133240550Y-87455852D01*
X133239334Y-87400000D01*
X133239947Y-87355708D01*
X133243990Y-87319677D01*
X133254050Y-87303648D01*
X133272667Y-87300000D01*
X133279217Y-87299597D01*
X133286359Y-87296286D01*
X133292104Y-87287016D01*
X133296603Y-87268745D01*
X133300008Y-87238432D01*
X133302473Y-87193034D01*
X133304148Y-87129511D01*
X133305187Y-87044821D01*
X133305740Y-86935922D01*
X133305961Y-86799773D01*
X133306000Y-86633333D01*
X133305980Y-86502328D01*
X133305815Y-86359492D01*
X133305351Y-86244603D01*
X133304438Y-86154622D01*
X133302922Y-86086507D01*
X133300652Y-86037216D01*
X133297476Y-86003707D01*
X133293242Y-85982939D01*
X133287797Y-85971871D01*
X133280989Y-85967460D01*
X133272667Y-85966666D01*
X133253427Y-85962892D01*
X133242129Y-85943615D01*
X133239334Y-85900000D01*
X133239334Y-85833333D01*
X133306000Y-85833333D01*
X133344480Y-85835220D01*
G37*
G36*
X131477814Y-84835220D02*
G01*
X131500410Y-84844858D01*
X131506000Y-84866666D01*
X131509775Y-84885906D01*
X131529051Y-84897204D01*
X131572667Y-84900000D01*
X131611147Y-84901887D01*
X131633743Y-84911525D01*
X131639334Y-84933333D01*
X131643108Y-84952573D01*
X131662385Y-84963871D01*
X131706000Y-84966666D01*
X131744480Y-84968553D01*
X131767077Y-84978192D01*
X131772667Y-85000000D01*
X131776442Y-85019239D01*
X131795718Y-85030538D01*
X131839334Y-85033333D01*
X131877814Y-85035220D01*
X131900410Y-85044858D01*
X131906000Y-85066666D01*
X131909775Y-85085906D01*
X131929051Y-85097204D01*
X131972667Y-85100000D01*
X132011147Y-85101887D01*
X132033743Y-85111525D01*
X132039334Y-85133333D01*
X132044812Y-85154881D01*
X132072667Y-85166666D01*
X132094215Y-85172144D01*
X132106000Y-85200000D01*
X132107839Y-85214763D01*
X132119969Y-85226774D01*
X132150148Y-85232117D01*
X132206000Y-85233333D01*
X132250292Y-85233946D01*
X132286323Y-85237989D01*
X132302352Y-85248049D01*
X132306000Y-85266666D01*
X132311479Y-85288214D01*
X132339334Y-85300000D01*
X132360882Y-85305478D01*
X132372667Y-85333333D01*
X132376442Y-85352573D01*
X132395718Y-85363871D01*
X132439334Y-85366666D01*
X132477814Y-85368553D01*
X132500410Y-85378192D01*
X132506000Y-85400000D01*
X132509775Y-85419239D01*
X132529051Y-85430538D01*
X132572667Y-85433333D01*
X132611147Y-85435220D01*
X132633743Y-85444858D01*
X132639334Y-85466666D01*
X132643108Y-85485906D01*
X132662385Y-85497204D01*
X132706000Y-85500000D01*
X132744480Y-85501887D01*
X132767077Y-85511525D01*
X132772667Y-85533333D01*
X132776442Y-85552573D01*
X132795718Y-85563871D01*
X132839334Y-85566666D01*
X132877814Y-85568553D01*
X132900410Y-85578192D01*
X132906000Y-85600000D01*
X132911479Y-85621548D01*
X132939334Y-85633333D01*
X132960882Y-85638811D01*
X132972667Y-85666666D01*
X132967189Y-85688214D01*
X132939334Y-85700000D01*
X132936677Y-85700040D01*
X132929156Y-85701545D01*
X132922977Y-85707381D01*
X132918007Y-85720447D01*
X132914117Y-85743646D01*
X132911172Y-85779876D01*
X132909043Y-85832037D01*
X132907596Y-85903031D01*
X132906700Y-85995758D01*
X132906224Y-86113116D01*
X132906034Y-86258008D01*
X132906000Y-86433333D01*
X132906002Y-86491786D01*
X132906071Y-86657251D01*
X132906336Y-86793193D01*
X132906930Y-86902512D01*
X132907984Y-86988109D01*
X132909631Y-87052882D01*
X132912002Y-87099734D01*
X132915229Y-87131564D01*
X132919444Y-87151271D01*
X132924779Y-87161758D01*
X132931365Y-87165922D01*
X132939334Y-87166666D01*
X132954098Y-87168505D01*
X132966108Y-87180635D01*
X132971451Y-87210814D01*
X132972667Y-87266666D01*
X132972054Y-87310958D01*
X132968011Y-87346989D01*
X132957951Y-87363017D01*
X132939334Y-87366666D01*
X132917786Y-87361188D01*
X132906000Y-87333333D01*
X132900522Y-87311785D01*
X132872667Y-87300000D01*
X132851119Y-87294521D01*
X132839334Y-87266666D01*
X132835559Y-87247426D01*
X132816283Y-87236128D01*
X132772667Y-87233333D01*
X132734187Y-87231446D01*
X132711591Y-87221807D01*
X132706000Y-87200000D01*
X132702226Y-87180760D01*
X132682950Y-87169461D01*
X132639334Y-87166666D01*
X132600854Y-87164779D01*
X132578258Y-87155141D01*
X132572667Y-87133333D01*
X132568893Y-87114093D01*
X132549616Y-87102795D01*
X132506000Y-87100000D01*
X132467521Y-87098112D01*
X132444924Y-87088474D01*
X132439334Y-87066666D01*
X132435559Y-87047426D01*
X132416283Y-87036128D01*
X132372667Y-87033333D01*
X132334187Y-87031446D01*
X132311591Y-87021807D01*
X132306000Y-87000000D01*
X132300522Y-86978451D01*
X132272667Y-86966666D01*
X132251119Y-86961188D01*
X132239334Y-86933333D01*
X132235559Y-86914093D01*
X132216283Y-86902795D01*
X132172667Y-86900000D01*
X132134187Y-86898112D01*
X132111591Y-86888474D01*
X132106000Y-86866666D01*
X132102226Y-86847426D01*
X132082950Y-86836128D01*
X132039334Y-86833333D01*
X132000854Y-86831446D01*
X131978258Y-86821807D01*
X131972667Y-86800000D01*
X131968893Y-86780760D01*
X131949616Y-86769461D01*
X131906000Y-86766666D01*
X131867521Y-86764779D01*
X131844924Y-86755141D01*
X131839334Y-86733333D01*
X131835559Y-86714093D01*
X131816283Y-86702795D01*
X131772667Y-86700000D01*
X131734187Y-86698112D01*
X131711591Y-86688474D01*
X131706000Y-86666666D01*
X131700522Y-86645118D01*
X131672667Y-86633333D01*
X131651119Y-86627855D01*
X131639334Y-86600000D01*
X131635559Y-86580760D01*
X131616283Y-86569461D01*
X131572667Y-86566666D01*
X131534187Y-86564779D01*
X131511591Y-86555141D01*
X131506000Y-86533333D01*
X131502226Y-86514093D01*
X131482950Y-86502795D01*
X131439334Y-86500000D01*
X131372667Y-86500000D01*
X131372667Y-85666666D01*
X131372667Y-84833333D01*
X131439334Y-84833333D01*
X131477814Y-84835220D01*
G37*
G36*
X131427549Y-86838811D02*
G01*
X131439334Y-86866666D01*
X131443108Y-86885906D01*
X131462385Y-86897204D01*
X131506000Y-86900000D01*
X131544480Y-86901887D01*
X131567077Y-86911525D01*
X131572667Y-86933333D01*
X131578145Y-86954881D01*
X131606000Y-86966666D01*
X131627549Y-86972144D01*
X131639334Y-87000000D01*
X131643108Y-87019239D01*
X131662385Y-87030538D01*
X131706000Y-87033333D01*
X131744480Y-87035220D01*
X131767077Y-87044858D01*
X131772667Y-87066666D01*
X131776442Y-87085906D01*
X131795718Y-87097204D01*
X131839334Y-87100000D01*
X131877814Y-87101887D01*
X131900410Y-87111525D01*
X131906000Y-87133333D01*
X131909775Y-87152573D01*
X131929051Y-87163871D01*
X131972667Y-87166666D01*
X132011147Y-87168553D01*
X132033743Y-87178192D01*
X132039334Y-87200000D01*
X132043108Y-87219239D01*
X132062385Y-87230538D01*
X132106000Y-87233333D01*
X132144480Y-87235220D01*
X132167077Y-87244858D01*
X132172667Y-87266666D01*
X132178145Y-87288214D01*
X132206000Y-87300000D01*
X132227549Y-87305478D01*
X132239334Y-87333333D01*
X132243108Y-87352573D01*
X132262385Y-87363871D01*
X132306000Y-87366666D01*
X132344480Y-87368553D01*
X132367077Y-87378192D01*
X132372667Y-87400000D01*
X132376442Y-87419239D01*
X132395718Y-87430538D01*
X132439334Y-87433333D01*
X132477814Y-87435220D01*
X132500410Y-87444858D01*
X132506000Y-87466666D01*
X132509775Y-87485906D01*
X132529051Y-87497204D01*
X132572667Y-87500000D01*
X132611147Y-87501887D01*
X132633743Y-87511525D01*
X132639334Y-87533333D01*
X132643108Y-87552573D01*
X132662385Y-87563871D01*
X132706000Y-87566666D01*
X132744480Y-87568553D01*
X132767077Y-87578192D01*
X132772667Y-87600000D01*
X132776442Y-87619239D01*
X132795718Y-87630538D01*
X132839334Y-87633333D01*
X132877814Y-87635220D01*
X132900410Y-87644858D01*
X132906000Y-87666666D01*
X132911479Y-87688214D01*
X132939334Y-87700000D01*
X132941898Y-87700039D01*
X132948882Y-87701430D01*
X132954720Y-87706805D01*
X132959516Y-87718833D01*
X132963370Y-87740180D01*
X132966387Y-87773516D01*
X132968669Y-87821509D01*
X132970318Y-87886826D01*
X132971438Y-87972136D01*
X132972129Y-88080107D01*
X132972497Y-88213407D01*
X132972642Y-88374704D01*
X132972667Y-88566666D01*
X132972666Y-88633337D01*
X132972612Y-88814921D01*
X132972405Y-88966717D01*
X132971943Y-89091394D01*
X132971122Y-89191619D01*
X132969840Y-89270060D01*
X132967994Y-89329386D01*
X132965482Y-89372265D01*
X132962200Y-89401364D01*
X132958048Y-89419353D01*
X132952921Y-89428898D01*
X132946717Y-89432669D01*
X132939334Y-89433333D01*
X132917786Y-89427855D01*
X132906000Y-89400000D01*
X132902226Y-89380760D01*
X132882950Y-89369461D01*
X132839334Y-89366666D01*
X132800854Y-89364779D01*
X132778258Y-89355141D01*
X132772667Y-89333333D01*
X132768893Y-89314093D01*
X132749616Y-89302795D01*
X132706000Y-89300000D01*
X132667521Y-89298112D01*
X132644924Y-89288474D01*
X132639334Y-89266666D01*
X132635559Y-89247426D01*
X132616283Y-89236128D01*
X132572667Y-89233333D01*
X132534187Y-89231446D01*
X132511591Y-89221807D01*
X132506000Y-89200000D01*
X132502226Y-89180760D01*
X132482950Y-89169461D01*
X132439334Y-89166666D01*
X132400854Y-89164779D01*
X132378258Y-89155141D01*
X132372667Y-89133333D01*
X132367189Y-89111785D01*
X132339334Y-89100000D01*
X132317786Y-89094521D01*
X132306000Y-89066666D01*
X132302226Y-89047426D01*
X132282950Y-89036128D01*
X132239334Y-89033333D01*
X132200854Y-89031446D01*
X132178258Y-89021807D01*
X132172667Y-89000000D01*
X132168893Y-88980760D01*
X132149616Y-88969461D01*
X132106000Y-88966666D01*
X132067521Y-88964779D01*
X132044924Y-88955141D01*
X132039334Y-88933333D01*
X132035559Y-88914093D01*
X132016283Y-88902795D01*
X131972667Y-88900000D01*
X131934187Y-88898112D01*
X131911591Y-88888474D01*
X131906000Y-88866666D01*
X131902226Y-88847426D01*
X131882950Y-88836128D01*
X131839334Y-88833333D01*
X131800854Y-88831446D01*
X131778258Y-88821807D01*
X131772667Y-88800000D01*
X131768893Y-88780760D01*
X131749616Y-88769461D01*
X131706000Y-88766666D01*
X131667521Y-88764779D01*
X131644924Y-88755141D01*
X131639334Y-88733333D01*
X131635559Y-88714093D01*
X131616283Y-88702795D01*
X131572667Y-88700000D01*
X131534187Y-88698112D01*
X131511591Y-88688474D01*
X131506000Y-88666666D01*
X131502226Y-88647426D01*
X131482950Y-88636128D01*
X131439334Y-88633333D01*
X131372667Y-88633333D01*
X131372667Y-87733333D01*
X131372673Y-87617780D01*
X131372749Y-87439684D01*
X131372993Y-87290811D01*
X131373502Y-87168544D01*
X131374373Y-87070262D01*
X131375702Y-86993349D01*
X131377588Y-86935186D01*
X131380126Y-86893155D01*
X131383413Y-86864637D01*
X131387548Y-86847014D01*
X131392626Y-86837668D01*
X131398744Y-86833980D01*
X131406000Y-86833333D01*
X131427549Y-86838811D01*
G37*
G36*
X133344480Y-87901887D02*
G01*
X133367077Y-87911525D01*
X133372667Y-87933333D01*
X133378145Y-87954881D01*
X133406000Y-87966666D01*
X133427549Y-87972144D01*
X133439334Y-88000000D01*
X133443108Y-88019239D01*
X133462385Y-88030538D01*
X133506000Y-88033333D01*
X133544480Y-88035220D01*
X133567077Y-88044858D01*
X133572667Y-88066666D01*
X133576442Y-88085906D01*
X133595718Y-88097204D01*
X133639334Y-88100000D01*
X133677814Y-88101887D01*
X133700410Y-88111525D01*
X133706000Y-88133333D01*
X133709775Y-88152573D01*
X133729051Y-88163871D01*
X133772667Y-88166666D01*
X133811147Y-88168553D01*
X133833743Y-88178192D01*
X133839334Y-88200000D01*
X133843108Y-88219239D01*
X133862385Y-88230538D01*
X133906000Y-88233333D01*
X133944480Y-88235220D01*
X133967077Y-88244858D01*
X133972667Y-88266666D01*
X133976442Y-88285906D01*
X133995718Y-88297204D01*
X134039334Y-88300000D01*
X134077814Y-88301887D01*
X134100410Y-88311525D01*
X134106000Y-88333333D01*
X134111479Y-88354881D01*
X134139334Y-88366666D01*
X134160882Y-88372144D01*
X134172667Y-88400000D01*
X134176442Y-88419239D01*
X134195718Y-88430538D01*
X134239334Y-88433333D01*
X134277814Y-88435220D01*
X134300410Y-88444858D01*
X134306000Y-88466666D01*
X134309775Y-88485906D01*
X134329051Y-88497204D01*
X134372667Y-88500000D01*
X134411147Y-88501887D01*
X134433743Y-88511525D01*
X134439334Y-88533333D01*
X134443108Y-88552573D01*
X134462385Y-88563871D01*
X134506000Y-88566666D01*
X134544480Y-88568553D01*
X134567077Y-88578192D01*
X134572667Y-88600000D01*
X134576442Y-88619239D01*
X134595718Y-88630538D01*
X134639334Y-88633333D01*
X134677814Y-88635220D01*
X134700410Y-88644858D01*
X134706000Y-88666666D01*
X134709775Y-88685906D01*
X134729051Y-88697204D01*
X134772667Y-88700000D01*
X134839334Y-88700000D01*
X134839334Y-89600000D01*
X134839328Y-89715552D01*
X134839252Y-89893648D01*
X134839008Y-90042521D01*
X134838499Y-90164789D01*
X134837628Y-90263070D01*
X134836299Y-90339983D01*
X134834413Y-90398146D01*
X134831875Y-90440178D01*
X134828588Y-90468696D01*
X134824453Y-90486318D01*
X134819375Y-90495665D01*
X134813257Y-90499352D01*
X134806000Y-90500000D01*
X134784452Y-90494521D01*
X134772667Y-90466666D01*
X134768893Y-90447426D01*
X134749616Y-90436128D01*
X134706000Y-90433333D01*
X134667521Y-90431446D01*
X134644924Y-90421807D01*
X134639334Y-90400000D01*
X134635559Y-90380760D01*
X134616283Y-90369461D01*
X134572667Y-90366666D01*
X134534187Y-90364779D01*
X134511591Y-90355141D01*
X134506000Y-90333333D01*
X134500522Y-90311785D01*
X134472667Y-90300000D01*
X134451119Y-90294521D01*
X134439334Y-90266666D01*
X134435559Y-90247426D01*
X134416283Y-90236128D01*
X134372667Y-90233333D01*
X134334187Y-90231446D01*
X134311591Y-90221807D01*
X134306000Y-90200000D01*
X134302226Y-90180760D01*
X134282950Y-90169461D01*
X134239334Y-90166666D01*
X134200854Y-90164779D01*
X134178258Y-90155141D01*
X134172667Y-90133333D01*
X134168893Y-90114093D01*
X134149616Y-90102795D01*
X134106000Y-90100000D01*
X134067521Y-90098112D01*
X134044924Y-90088474D01*
X134039334Y-90066666D01*
X134035559Y-90047426D01*
X134016283Y-90036128D01*
X133972667Y-90033333D01*
X133934187Y-90031446D01*
X133911591Y-90021807D01*
X133906000Y-90000000D01*
X133900522Y-89978451D01*
X133872667Y-89966666D01*
X133851119Y-89961188D01*
X133839334Y-89933333D01*
X133835559Y-89914093D01*
X133816283Y-89902795D01*
X133772667Y-89900000D01*
X133734187Y-89898112D01*
X133711591Y-89888474D01*
X133706000Y-89866666D01*
X133702226Y-89847426D01*
X133682950Y-89836128D01*
X133639334Y-89833333D01*
X133600854Y-89831446D01*
X133578258Y-89821807D01*
X133572667Y-89800000D01*
X133568893Y-89780760D01*
X133549616Y-89769461D01*
X133506000Y-89766666D01*
X133467521Y-89764779D01*
X133444924Y-89755141D01*
X133439334Y-89733333D01*
X133433856Y-89711785D01*
X133406000Y-89700000D01*
X133384452Y-89694521D01*
X133372667Y-89666666D01*
X133368893Y-89647426D01*
X133349616Y-89636128D01*
X133306000Y-89633333D01*
X133239334Y-89633333D01*
X133239334Y-89433333D01*
X133239452Y-89374453D01*
X133240509Y-89308919D01*
X133243438Y-89267565D01*
X133249160Y-89244864D01*
X133258596Y-89235295D01*
X133272667Y-89233333D01*
X133277033Y-89233200D01*
X133284754Y-89230948D01*
X133290965Y-89223446D01*
X133295830Y-89207575D01*
X133299514Y-89180213D01*
X133302180Y-89138240D01*
X133303994Y-89078536D01*
X133305118Y-88997980D01*
X133305718Y-88893453D01*
X133305957Y-88761833D01*
X133306000Y-88600000D01*
X133305994Y-88517039D01*
X133305875Y-88370343D01*
X133305480Y-88252336D01*
X133304645Y-88159899D01*
X133303205Y-88089910D01*
X133300996Y-88039251D01*
X133297853Y-88004799D01*
X133293614Y-87983435D01*
X133288112Y-87972039D01*
X133281185Y-87967489D01*
X133272667Y-87966666D01*
X133251119Y-87961188D01*
X133239334Y-87933333D01*
X133243108Y-87914093D01*
X133262385Y-87902795D01*
X133306000Y-87900000D01*
X133344480Y-87901887D01*
G37*
G36*
X133294215Y-89972144D02*
G01*
X133306000Y-90000000D01*
X133309775Y-90019239D01*
X133329051Y-90030538D01*
X133372667Y-90033333D01*
X133411147Y-90035220D01*
X133433743Y-90044858D01*
X133439334Y-90066666D01*
X133444812Y-90088214D01*
X133472667Y-90100000D01*
X133494215Y-90105478D01*
X133506000Y-90133333D01*
X133509775Y-90152573D01*
X133529051Y-90163871D01*
X133572667Y-90166666D01*
X133611147Y-90168553D01*
X133633743Y-90178192D01*
X133639334Y-90200000D01*
X133643108Y-90219239D01*
X133662385Y-90230538D01*
X133706000Y-90233333D01*
X133744480Y-90235220D01*
X133767077Y-90244858D01*
X133772667Y-90266666D01*
X133776442Y-90285906D01*
X133795718Y-90297204D01*
X133839334Y-90300000D01*
X133877814Y-90301887D01*
X133900410Y-90311525D01*
X133906000Y-90333333D01*
X133911479Y-90354881D01*
X133939334Y-90366666D01*
X133960882Y-90372144D01*
X133972667Y-90400000D01*
X133976442Y-90419239D01*
X133995718Y-90430538D01*
X134039334Y-90433333D01*
X134077814Y-90435220D01*
X134100410Y-90444858D01*
X134106000Y-90466666D01*
X134109775Y-90485906D01*
X134129051Y-90497204D01*
X134172667Y-90500000D01*
X134211147Y-90501887D01*
X134233743Y-90511525D01*
X134239334Y-90533333D01*
X134243108Y-90552573D01*
X134262385Y-90563871D01*
X134306000Y-90566666D01*
X134344480Y-90568553D01*
X134367077Y-90578192D01*
X134372667Y-90600000D01*
X134376442Y-90619239D01*
X134395718Y-90630538D01*
X134439334Y-90633333D01*
X134477814Y-90635220D01*
X134500410Y-90644858D01*
X134506000Y-90666666D01*
X134509775Y-90685906D01*
X134529051Y-90697204D01*
X134572667Y-90700000D01*
X134611147Y-90701887D01*
X134633743Y-90711525D01*
X134639334Y-90733333D01*
X134644812Y-90754881D01*
X134672667Y-90766666D01*
X134694215Y-90772144D01*
X134706000Y-90800000D01*
X134709775Y-90819239D01*
X134729051Y-90830538D01*
X134772667Y-90833333D01*
X134839334Y-90833333D01*
X134839334Y-91700000D01*
X134839332Y-91766670D01*
X134839279Y-91948254D01*
X134839072Y-92100051D01*
X134838609Y-92224727D01*
X134837788Y-92324952D01*
X134836506Y-92403393D01*
X134834660Y-92462719D01*
X134832148Y-92505598D01*
X134828867Y-92534698D01*
X134824714Y-92552686D01*
X134819587Y-92562231D01*
X134813384Y-92566002D01*
X134806000Y-92566666D01*
X134784452Y-92561188D01*
X134772667Y-92533333D01*
X134768893Y-92514093D01*
X134749616Y-92502795D01*
X134706000Y-92500000D01*
X134667521Y-92498112D01*
X134644924Y-92488474D01*
X134639334Y-92466666D01*
X134635559Y-92447426D01*
X134616283Y-92436128D01*
X134572667Y-92433333D01*
X134534187Y-92431446D01*
X134511591Y-92421807D01*
X134506000Y-92400000D01*
X134502226Y-92380760D01*
X134482950Y-92369461D01*
X134439334Y-92366666D01*
X134400854Y-92364779D01*
X134378258Y-92355141D01*
X134372667Y-92333333D01*
X134368893Y-92314093D01*
X134349616Y-92302795D01*
X134306000Y-92300000D01*
X134267521Y-92298112D01*
X134244924Y-92288474D01*
X134239334Y-92266666D01*
X134233856Y-92245118D01*
X134206000Y-92233333D01*
X134184452Y-92227855D01*
X134172667Y-92200000D01*
X134168893Y-92180760D01*
X134149616Y-92169461D01*
X134106000Y-92166666D01*
X134067521Y-92164779D01*
X134044924Y-92155141D01*
X134039334Y-92133333D01*
X134035559Y-92114093D01*
X134016283Y-92102795D01*
X133972667Y-92100000D01*
X133934187Y-92098112D01*
X133911591Y-92088474D01*
X133906000Y-92066666D01*
X133902226Y-92047426D01*
X133882950Y-92036128D01*
X133839334Y-92033333D01*
X133800854Y-92031446D01*
X133778258Y-92021807D01*
X133772667Y-92000000D01*
X133768893Y-91980760D01*
X133749616Y-91969461D01*
X133706000Y-91966666D01*
X133667521Y-91964779D01*
X133644924Y-91955141D01*
X133639334Y-91933333D01*
X133635559Y-91914093D01*
X133616283Y-91902795D01*
X133572667Y-91900000D01*
X133534187Y-91898112D01*
X133511591Y-91888474D01*
X133506000Y-91866666D01*
X133500522Y-91845118D01*
X133472667Y-91833333D01*
X133451119Y-91827855D01*
X133439334Y-91800000D01*
X133435559Y-91780760D01*
X133416283Y-91769461D01*
X133372667Y-91766666D01*
X133334187Y-91764779D01*
X133311591Y-91755141D01*
X133306000Y-91733333D01*
X133300522Y-91711785D01*
X133272667Y-91700000D01*
X133262854Y-91699289D01*
X133251932Y-91692951D01*
X133245039Y-91675377D01*
X133241256Y-91641043D01*
X133239661Y-91584425D01*
X133239334Y-91500000D01*
X133239452Y-91441119D01*
X133240509Y-91375586D01*
X133243438Y-91334231D01*
X133249160Y-91311531D01*
X133258596Y-91301962D01*
X133272667Y-91300000D01*
X133280806Y-91299324D01*
X133288163Y-91295005D01*
X133293928Y-91283739D01*
X133298295Y-91262230D01*
X133301458Y-91227178D01*
X133303611Y-91175285D01*
X133304947Y-91103252D01*
X133305662Y-91007782D01*
X133305948Y-90885575D01*
X133306000Y-90733333D01*
X133305961Y-90594979D01*
X133305707Y-90469903D01*
X133305044Y-90371894D01*
X133303779Y-90297655D01*
X133301717Y-90243887D01*
X133298664Y-90207292D01*
X133294427Y-90184570D01*
X133288811Y-90172425D01*
X133281623Y-90167556D01*
X133272667Y-90166666D01*
X133257903Y-90164828D01*
X133245893Y-90152698D01*
X133240550Y-90122518D01*
X133239334Y-90066666D01*
X133239947Y-90022374D01*
X133243990Y-89986343D01*
X133254050Y-89970315D01*
X133272667Y-89966666D01*
X133294215Y-89972144D01*
G37*
G36*
X138744480Y-82635220D02*
G01*
X138767077Y-82644858D01*
X138772667Y-82666666D01*
X138776442Y-82685906D01*
X138795718Y-82697204D01*
X138839334Y-82700000D01*
X138877814Y-82701887D01*
X138900410Y-82711525D01*
X138906000Y-82733333D01*
X138911479Y-82754881D01*
X138939334Y-82766666D01*
X138960882Y-82772144D01*
X138972667Y-82800000D01*
X138976442Y-82819239D01*
X138995718Y-82830538D01*
X139039334Y-82833333D01*
X139077814Y-82835220D01*
X139100410Y-82844858D01*
X139106000Y-82866666D01*
X139109775Y-82885906D01*
X139129051Y-82897204D01*
X139172667Y-82900000D01*
X139211147Y-82901887D01*
X139233743Y-82911525D01*
X139239334Y-82933333D01*
X139243108Y-82952573D01*
X139262385Y-82963871D01*
X139306000Y-82966666D01*
X139344480Y-82968553D01*
X139367077Y-82978192D01*
X139372667Y-83000000D01*
X139376442Y-83019239D01*
X139395718Y-83030538D01*
X139439334Y-83033333D01*
X139477814Y-83035220D01*
X139500410Y-83044858D01*
X139506000Y-83066666D01*
X139509775Y-83085906D01*
X139529051Y-83097204D01*
X139572667Y-83100000D01*
X139611147Y-83101887D01*
X139633743Y-83111525D01*
X139639334Y-83133333D01*
X139644812Y-83154881D01*
X139672667Y-83166666D01*
X139694215Y-83172144D01*
X139706000Y-83200000D01*
X139709775Y-83219239D01*
X139729051Y-83230538D01*
X139772667Y-83233333D01*
X139811147Y-83235220D01*
X139833743Y-83244858D01*
X139839334Y-83266666D01*
X139843108Y-83285906D01*
X139862385Y-83297204D01*
X139906000Y-83300000D01*
X139944480Y-83301887D01*
X139967077Y-83311525D01*
X139972667Y-83333333D01*
X139978145Y-83354881D01*
X140006000Y-83366666D01*
X140027549Y-83372144D01*
X140039334Y-83400000D01*
X140043108Y-83419239D01*
X140062385Y-83430538D01*
X140106000Y-83433333D01*
X140172667Y-83433333D01*
X140172667Y-83500000D01*
X140172667Y-83566666D01*
X140106000Y-83566666D01*
X140067521Y-83568553D01*
X140044924Y-83578192D01*
X140039334Y-83600000D01*
X140035559Y-83619239D01*
X140016283Y-83630538D01*
X139972667Y-83633333D01*
X139934187Y-83635220D01*
X139911591Y-83644858D01*
X139906000Y-83666666D01*
X139902226Y-83685906D01*
X139882950Y-83697204D01*
X139839334Y-83700000D01*
X139800854Y-83701887D01*
X139778258Y-83711525D01*
X139772667Y-83733333D01*
X139767189Y-83754881D01*
X139739334Y-83766666D01*
X139717786Y-83772144D01*
X139706000Y-83800000D01*
X139702226Y-83819239D01*
X139682950Y-83830538D01*
X139639334Y-83833333D01*
X139600854Y-83835220D01*
X139578258Y-83844858D01*
X139572667Y-83866666D01*
X139568893Y-83885906D01*
X139549616Y-83897204D01*
X139506000Y-83900000D01*
X139467521Y-83901887D01*
X139444924Y-83911525D01*
X139439334Y-83933333D01*
X139435559Y-83952573D01*
X139416283Y-83963871D01*
X139372667Y-83966666D01*
X139334187Y-83968553D01*
X139311591Y-83978192D01*
X139306000Y-84000000D01*
X139302226Y-84019239D01*
X139282950Y-84030538D01*
X139239334Y-84033333D01*
X139200854Y-84035220D01*
X139178258Y-84044858D01*
X139172667Y-84066666D01*
X139168893Y-84085906D01*
X139149616Y-84097204D01*
X139106000Y-84100000D01*
X139067521Y-84101887D01*
X139044924Y-84111525D01*
X139039334Y-84133333D01*
X139033856Y-84154881D01*
X139006000Y-84166666D01*
X138984452Y-84172144D01*
X138972667Y-84200000D01*
X138968893Y-84219239D01*
X138949616Y-84230538D01*
X138906000Y-84233333D01*
X138867521Y-84235220D01*
X138844924Y-84244858D01*
X138839334Y-84266666D01*
X138837495Y-84281430D01*
X138825365Y-84293440D01*
X138795186Y-84298783D01*
X138739334Y-84300000D01*
X138695042Y-84299387D01*
X138659011Y-84295343D01*
X138642983Y-84285284D01*
X138639334Y-84266666D01*
X138635559Y-84247426D01*
X138616283Y-84236128D01*
X138572667Y-84233333D01*
X138534187Y-84231446D01*
X138511591Y-84221807D01*
X138506000Y-84200000D01*
X138502226Y-84180760D01*
X138482950Y-84169461D01*
X138439334Y-84166666D01*
X138400854Y-84164779D01*
X138378258Y-84155141D01*
X138372667Y-84133333D01*
X138367189Y-84111785D01*
X138339334Y-84100000D01*
X138317786Y-84094521D01*
X138306000Y-84066666D01*
X138302226Y-84047426D01*
X138282950Y-84036128D01*
X138239334Y-84033333D01*
X138200854Y-84031446D01*
X138178258Y-84021807D01*
X138172667Y-84000000D01*
X138168893Y-83980760D01*
X138149616Y-83969461D01*
X138106000Y-83966666D01*
X138067521Y-83964779D01*
X138044924Y-83955141D01*
X138039334Y-83933333D01*
X138035559Y-83914093D01*
X138016283Y-83902795D01*
X137972667Y-83900000D01*
X137934187Y-83898112D01*
X137911591Y-83888474D01*
X137906000Y-83866666D01*
X137900522Y-83845118D01*
X137872667Y-83833333D01*
X137851119Y-83827855D01*
X137839334Y-83800000D01*
X137835559Y-83780760D01*
X137816283Y-83769461D01*
X137772667Y-83766666D01*
X137734187Y-83764779D01*
X137711591Y-83755141D01*
X137706000Y-83733333D01*
X137702226Y-83714093D01*
X137682950Y-83702795D01*
X137639334Y-83700000D01*
X137600854Y-83698112D01*
X137578258Y-83688474D01*
X137572667Y-83666666D01*
X137568893Y-83647426D01*
X137549616Y-83636128D01*
X137506000Y-83633333D01*
X137467521Y-83631446D01*
X137444924Y-83621807D01*
X137439334Y-83600000D01*
X137433856Y-83578451D01*
X137406000Y-83566666D01*
X137384452Y-83561188D01*
X137372667Y-83533333D01*
X137368893Y-83514093D01*
X137349616Y-83502795D01*
X137306000Y-83500000D01*
X137267521Y-83498112D01*
X137244924Y-83488474D01*
X137239334Y-83466666D01*
X137244812Y-83445118D01*
X137272667Y-83433333D01*
X137294215Y-83427855D01*
X137306000Y-83400000D01*
X137309775Y-83380760D01*
X137329051Y-83369461D01*
X137372667Y-83366666D01*
X137411147Y-83364779D01*
X137433743Y-83355141D01*
X137439334Y-83333333D01*
X137443108Y-83314093D01*
X137462385Y-83302795D01*
X137506000Y-83300000D01*
X137544480Y-83298112D01*
X137567077Y-83288474D01*
X137572667Y-83266666D01*
X137576442Y-83247426D01*
X137595718Y-83236128D01*
X137639334Y-83233333D01*
X137677814Y-83231446D01*
X137700410Y-83221807D01*
X137706000Y-83200000D01*
X137711479Y-83178451D01*
X137739334Y-83166666D01*
X137760882Y-83161188D01*
X137772667Y-83133333D01*
X137776442Y-83114093D01*
X137795718Y-83102795D01*
X137839334Y-83100000D01*
X137877814Y-83098112D01*
X137900410Y-83088474D01*
X137906000Y-83066666D01*
X137909775Y-83047426D01*
X137929051Y-83036128D01*
X137972667Y-83033333D01*
X138011147Y-83031446D01*
X138033743Y-83021807D01*
X138039334Y-83000000D01*
X138043108Y-82980760D01*
X138062385Y-82969461D01*
X138106000Y-82966666D01*
X138144480Y-82964779D01*
X138167077Y-82955141D01*
X138172667Y-82933333D01*
X138176442Y-82914093D01*
X138195718Y-82902795D01*
X138239334Y-82900000D01*
X138277814Y-82898112D01*
X138300410Y-82888474D01*
X138306000Y-82866666D01*
X138311479Y-82845118D01*
X138339334Y-82833333D01*
X138360882Y-82827855D01*
X138372667Y-82800000D01*
X138376442Y-82780760D01*
X138395718Y-82769461D01*
X138439334Y-82766666D01*
X138477814Y-82764779D01*
X138500410Y-82755141D01*
X138506000Y-82733333D01*
X138509775Y-82714093D01*
X138529051Y-82702795D01*
X138572667Y-82700000D01*
X138611147Y-82698112D01*
X138633743Y-82688474D01*
X138639334Y-82666666D01*
X138643108Y-82647426D01*
X138662385Y-82636128D01*
X138706000Y-82633333D01*
X138744480Y-82635220D01*
G37*
G36*
X135027549Y-82638811D02*
G01*
X135039334Y-82666666D01*
X135043108Y-82685906D01*
X135062385Y-82697204D01*
X135106000Y-82700000D01*
X135144480Y-82701887D01*
X135167077Y-82711525D01*
X135172667Y-82733333D01*
X135176442Y-82752573D01*
X135195718Y-82763871D01*
X135239334Y-82766666D01*
X135277814Y-82768553D01*
X135300410Y-82778192D01*
X135306000Y-82800000D01*
X135309775Y-82819239D01*
X135329051Y-82830538D01*
X135372667Y-82833333D01*
X135411147Y-82835220D01*
X135433743Y-82844858D01*
X135439334Y-82866666D01*
X135443108Y-82885906D01*
X135462385Y-82897204D01*
X135506000Y-82900000D01*
X135544480Y-82901887D01*
X135567077Y-82911525D01*
X135572667Y-82933333D01*
X135576442Y-82952573D01*
X135595718Y-82963871D01*
X135639334Y-82966666D01*
X135677814Y-82968553D01*
X135700410Y-82978192D01*
X135706000Y-83000000D01*
X135711479Y-83021548D01*
X135739334Y-83033333D01*
X135760882Y-83038811D01*
X135772667Y-83066666D01*
X135776442Y-83085906D01*
X135795718Y-83097204D01*
X135839334Y-83100000D01*
X135877814Y-83101887D01*
X135900410Y-83111525D01*
X135906000Y-83133333D01*
X135909775Y-83152573D01*
X135929051Y-83163871D01*
X135972667Y-83166666D01*
X136011147Y-83168553D01*
X136033743Y-83178192D01*
X136039334Y-83200000D01*
X136043108Y-83219239D01*
X136062385Y-83230538D01*
X136106000Y-83233333D01*
X136144480Y-83235220D01*
X136167077Y-83244858D01*
X136172667Y-83266666D01*
X136176442Y-83285906D01*
X136195718Y-83297204D01*
X136239334Y-83300000D01*
X136277814Y-83301887D01*
X136300410Y-83311525D01*
X136306000Y-83333333D01*
X136311479Y-83354881D01*
X136339334Y-83366666D01*
X136360882Y-83372144D01*
X136372667Y-83400000D01*
X136376442Y-83419239D01*
X136395718Y-83430538D01*
X136439334Y-83433333D01*
X136477814Y-83435220D01*
X136500410Y-83444858D01*
X136506000Y-83466666D01*
X136502226Y-83485906D01*
X136482950Y-83497204D01*
X136439334Y-83500000D01*
X136400854Y-83501887D01*
X136378258Y-83511525D01*
X136372667Y-83533333D01*
X136367189Y-83554881D01*
X136339334Y-83566666D01*
X136317786Y-83572144D01*
X136306000Y-83600000D01*
X136302226Y-83619239D01*
X136282950Y-83630538D01*
X136239334Y-83633333D01*
X136200854Y-83635220D01*
X136178258Y-83644858D01*
X136172667Y-83666666D01*
X136168893Y-83685906D01*
X136149616Y-83697204D01*
X136106000Y-83700000D01*
X136067521Y-83701887D01*
X136044924Y-83711525D01*
X136039334Y-83733333D01*
X136035559Y-83752573D01*
X136016283Y-83763871D01*
X135972667Y-83766666D01*
X135934187Y-83768553D01*
X135911591Y-83778192D01*
X135906000Y-83800000D01*
X135902226Y-83819239D01*
X135882950Y-83830538D01*
X135839334Y-83833333D01*
X135800854Y-83835220D01*
X135778258Y-83844858D01*
X135772667Y-83866666D01*
X135768893Y-83885906D01*
X135749616Y-83897204D01*
X135706000Y-83900000D01*
X135667521Y-83901887D01*
X135644924Y-83911525D01*
X135639334Y-83933333D01*
X135633856Y-83954881D01*
X135606000Y-83966666D01*
X135584452Y-83972144D01*
X135572667Y-84000000D01*
X135568893Y-84019239D01*
X135549616Y-84030538D01*
X135506000Y-84033333D01*
X135467521Y-84035220D01*
X135444924Y-84044858D01*
X135439334Y-84066666D01*
X135435559Y-84085906D01*
X135416283Y-84097204D01*
X135372667Y-84100000D01*
X135334187Y-84101887D01*
X135311591Y-84111525D01*
X135306000Y-84133333D01*
X135302226Y-84152573D01*
X135282950Y-84163871D01*
X135239334Y-84166666D01*
X135200854Y-84168553D01*
X135178258Y-84178192D01*
X135172667Y-84200000D01*
X135168893Y-84219239D01*
X135149616Y-84230538D01*
X135106000Y-84233333D01*
X135067521Y-84235220D01*
X135044924Y-84244858D01*
X135039334Y-84266666D01*
X135035559Y-84285906D01*
X135016283Y-84297204D01*
X134972667Y-84300000D01*
X134934187Y-84298112D01*
X134911591Y-84288474D01*
X134906000Y-84266666D01*
X134902226Y-84247426D01*
X134882950Y-84236128D01*
X134839334Y-84233333D01*
X134800854Y-84231446D01*
X134778258Y-84221807D01*
X134772667Y-84200000D01*
X134768893Y-84180760D01*
X134749616Y-84169461D01*
X134706000Y-84166666D01*
X134667521Y-84164779D01*
X134644924Y-84155141D01*
X134639334Y-84133333D01*
X134635559Y-84114093D01*
X134616283Y-84102795D01*
X134572667Y-84100000D01*
X134534187Y-84098112D01*
X134511591Y-84088474D01*
X134506000Y-84066666D01*
X134500522Y-84045118D01*
X134472667Y-84033333D01*
X134451119Y-84027855D01*
X134439334Y-84000000D01*
X134435559Y-83980760D01*
X134416283Y-83969461D01*
X134372667Y-83966666D01*
X134334187Y-83964779D01*
X134311591Y-83955141D01*
X134306000Y-83933333D01*
X134302226Y-83914093D01*
X134282950Y-83902795D01*
X134239334Y-83900000D01*
X134200854Y-83898112D01*
X134178258Y-83888474D01*
X134172667Y-83866666D01*
X134168893Y-83847426D01*
X134149616Y-83836128D01*
X134106000Y-83833333D01*
X134067521Y-83831446D01*
X134044924Y-83821807D01*
X134039334Y-83800000D01*
X134033856Y-83778451D01*
X134006000Y-83766666D01*
X133984452Y-83761188D01*
X133972667Y-83733333D01*
X133968893Y-83714093D01*
X133949616Y-83702795D01*
X133906000Y-83700000D01*
X133867521Y-83698112D01*
X133844924Y-83688474D01*
X133839334Y-83666666D01*
X133835559Y-83647426D01*
X133816283Y-83636128D01*
X133772667Y-83633333D01*
X133734187Y-83631446D01*
X133711591Y-83621807D01*
X133706000Y-83600000D01*
X133702226Y-83580760D01*
X133682950Y-83569461D01*
X133639334Y-83566666D01*
X133572667Y-83566666D01*
X133572667Y-83500000D01*
X133572667Y-83433333D01*
X133639334Y-83433333D01*
X133677814Y-83431446D01*
X133700410Y-83421807D01*
X133706000Y-83400000D01*
X133711479Y-83378451D01*
X133739334Y-83366666D01*
X133760882Y-83361188D01*
X133772667Y-83333333D01*
X133776442Y-83314093D01*
X133795718Y-83302795D01*
X133839334Y-83300000D01*
X133877814Y-83298112D01*
X133900410Y-83288474D01*
X133906000Y-83266666D01*
X133909775Y-83247426D01*
X133929051Y-83236128D01*
X133972667Y-83233333D01*
X134011147Y-83231446D01*
X134033743Y-83221807D01*
X134039334Y-83200000D01*
X134044812Y-83178451D01*
X134072667Y-83166666D01*
X134094215Y-83161188D01*
X134106000Y-83133333D01*
X134109775Y-83114093D01*
X134129051Y-83102795D01*
X134172667Y-83100000D01*
X134211147Y-83098112D01*
X134233743Y-83088474D01*
X134239334Y-83066666D01*
X134243108Y-83047426D01*
X134262385Y-83036128D01*
X134306000Y-83033333D01*
X134344480Y-83031446D01*
X134367077Y-83021807D01*
X134372667Y-83000000D01*
X134376442Y-82980760D01*
X134395718Y-82969461D01*
X134439334Y-82966666D01*
X134477814Y-82964779D01*
X134500410Y-82955141D01*
X134506000Y-82933333D01*
X134509775Y-82914093D01*
X134529051Y-82902795D01*
X134572667Y-82900000D01*
X134611147Y-82898112D01*
X134633743Y-82888474D01*
X134639334Y-82866666D01*
X134644812Y-82845118D01*
X134672667Y-82833333D01*
X134694215Y-82827855D01*
X134706000Y-82800000D01*
X134709775Y-82780760D01*
X134729051Y-82769461D01*
X134772667Y-82766666D01*
X134811147Y-82764779D01*
X134833743Y-82755141D01*
X134839334Y-82733333D01*
X134843108Y-82714093D01*
X134862385Y-82702795D01*
X134906000Y-82700000D01*
X134944480Y-82698112D01*
X134967077Y-82688474D01*
X134972667Y-82666666D01*
X134978145Y-82645118D01*
X135006000Y-82633333D01*
X135027549Y-82638811D01*
G37*
G36*
X133207822Y-83700122D02*
G01*
X133260832Y-83701796D01*
X133290396Y-83706771D01*
X133303217Y-83716725D01*
X133306000Y-83733333D01*
X133311479Y-83754881D01*
X133339334Y-83766666D01*
X133360882Y-83772144D01*
X133372667Y-83800000D01*
X133376442Y-83819239D01*
X133395718Y-83830538D01*
X133439334Y-83833333D01*
X133477814Y-83835220D01*
X133500410Y-83844858D01*
X133506000Y-83866666D01*
X133509775Y-83885906D01*
X133529051Y-83897204D01*
X133572667Y-83900000D01*
X133611147Y-83901887D01*
X133633743Y-83911525D01*
X133639334Y-83933333D01*
X133643108Y-83952573D01*
X133662385Y-83963871D01*
X133706000Y-83966666D01*
X133744480Y-83968553D01*
X133767077Y-83978192D01*
X133772667Y-84000000D01*
X133776442Y-84019239D01*
X133795718Y-84030538D01*
X133839334Y-84033333D01*
X133877814Y-84035220D01*
X133900410Y-84044858D01*
X133906000Y-84066666D01*
X133909775Y-84085906D01*
X133929051Y-84097204D01*
X133972667Y-84100000D01*
X134011147Y-84101887D01*
X134033743Y-84111525D01*
X134039334Y-84133333D01*
X134044812Y-84154881D01*
X134072667Y-84166666D01*
X134094215Y-84172144D01*
X134106000Y-84200000D01*
X134109775Y-84219239D01*
X134129051Y-84230538D01*
X134172667Y-84233333D01*
X134211147Y-84235220D01*
X134233743Y-84244858D01*
X134239334Y-84266666D01*
X134243108Y-84285906D01*
X134262385Y-84297204D01*
X134306000Y-84300000D01*
X134344480Y-84301887D01*
X134367077Y-84311525D01*
X134372667Y-84333333D01*
X134376442Y-84352573D01*
X134395718Y-84363871D01*
X134439334Y-84366666D01*
X134477814Y-84368553D01*
X134500410Y-84378192D01*
X134506000Y-84400000D01*
X134511479Y-84421548D01*
X134539334Y-84433333D01*
X134558574Y-84437107D01*
X134569872Y-84456384D01*
X134572667Y-84500000D01*
X134572667Y-84566666D01*
X134506000Y-84566666D01*
X134467521Y-84568553D01*
X134444924Y-84578192D01*
X134439334Y-84600000D01*
X134435559Y-84619239D01*
X134416283Y-84630538D01*
X134372667Y-84633333D01*
X134334187Y-84635220D01*
X134311591Y-84644858D01*
X134306000Y-84666666D01*
X134300522Y-84688214D01*
X134272667Y-84700000D01*
X134251119Y-84705478D01*
X134239334Y-84733333D01*
X134235559Y-84752573D01*
X134216283Y-84763871D01*
X134172667Y-84766666D01*
X134134187Y-84768553D01*
X134111591Y-84778192D01*
X134106000Y-84800000D01*
X134102226Y-84819239D01*
X134082950Y-84830538D01*
X134039334Y-84833333D01*
X134000854Y-84835220D01*
X133978258Y-84844858D01*
X133972667Y-84866666D01*
X133968893Y-84885906D01*
X133949616Y-84897204D01*
X133906000Y-84900000D01*
X133867521Y-84901887D01*
X133844924Y-84911525D01*
X133839334Y-84933333D01*
X133835559Y-84952573D01*
X133816283Y-84963871D01*
X133772667Y-84966666D01*
X133734187Y-84968553D01*
X133711591Y-84978192D01*
X133706000Y-85000000D01*
X133702226Y-85019239D01*
X133682950Y-85030538D01*
X133639334Y-85033333D01*
X133600854Y-85035220D01*
X133578258Y-85044858D01*
X133572667Y-85066666D01*
X133567189Y-85088214D01*
X133539334Y-85100000D01*
X133517786Y-85105478D01*
X133506000Y-85133333D01*
X133502226Y-85152573D01*
X133482950Y-85163871D01*
X133439334Y-85166666D01*
X133400854Y-85168553D01*
X133378258Y-85178192D01*
X133372667Y-85200000D01*
X133368893Y-85219239D01*
X133349616Y-85230538D01*
X133306000Y-85233333D01*
X133267521Y-85235220D01*
X133244924Y-85244858D01*
X133239334Y-85266666D01*
X133235559Y-85285906D01*
X133216283Y-85297204D01*
X133172667Y-85300000D01*
X133134187Y-85301887D01*
X133111591Y-85311525D01*
X133106000Y-85333333D01*
X133100522Y-85354881D01*
X133072667Y-85366666D01*
X133051119Y-85361188D01*
X133039334Y-85333333D01*
X133033856Y-85311785D01*
X133006000Y-85300000D01*
X132984452Y-85294521D01*
X132972667Y-85266666D01*
X132968893Y-85247426D01*
X132949616Y-85236128D01*
X132906000Y-85233333D01*
X132867521Y-85231446D01*
X132844924Y-85221807D01*
X132839334Y-85200000D01*
X132835559Y-85180760D01*
X132816283Y-85169461D01*
X132772667Y-85166666D01*
X132734187Y-85164779D01*
X132711591Y-85155141D01*
X132706000Y-85133333D01*
X132702226Y-85114093D01*
X132682950Y-85102795D01*
X132639334Y-85100000D01*
X132600854Y-85098112D01*
X132578258Y-85088474D01*
X132572667Y-85066666D01*
X132568893Y-85047426D01*
X132549616Y-85036128D01*
X132506000Y-85033333D01*
X132467521Y-85031446D01*
X132444924Y-85021807D01*
X132439334Y-85000000D01*
X132435559Y-84980760D01*
X132416283Y-84969461D01*
X132372667Y-84966666D01*
X132334187Y-84964779D01*
X132311591Y-84955141D01*
X132306000Y-84933333D01*
X132300522Y-84911785D01*
X132272667Y-84900000D01*
X132251119Y-84894521D01*
X132239334Y-84866666D01*
X132235559Y-84847426D01*
X132216283Y-84836128D01*
X132172667Y-84833333D01*
X132134187Y-84831446D01*
X132111591Y-84821807D01*
X132106000Y-84800000D01*
X132102226Y-84780760D01*
X132082950Y-84769461D01*
X132039334Y-84766666D01*
X132000854Y-84764779D01*
X131978258Y-84755141D01*
X131972667Y-84733333D01*
X131968893Y-84714093D01*
X131949616Y-84702795D01*
X131906000Y-84700000D01*
X131867521Y-84698112D01*
X131844924Y-84688474D01*
X131839334Y-84666666D01*
X131835559Y-84647426D01*
X131816283Y-84636128D01*
X131772667Y-84633333D01*
X131734187Y-84631446D01*
X131711591Y-84621807D01*
X131706000Y-84600000D01*
X131700522Y-84578451D01*
X131672667Y-84566666D01*
X131651119Y-84561188D01*
X131639334Y-84533333D01*
X131643108Y-84514093D01*
X131662385Y-84502795D01*
X131706000Y-84500000D01*
X131744480Y-84498112D01*
X131767077Y-84488474D01*
X131772667Y-84466666D01*
X131778145Y-84445118D01*
X131806000Y-84433333D01*
X131827549Y-84427855D01*
X131839334Y-84400000D01*
X131843108Y-84380760D01*
X131862385Y-84369461D01*
X131906000Y-84366666D01*
X131944480Y-84364779D01*
X131967077Y-84355141D01*
X131972667Y-84333333D01*
X131976442Y-84314093D01*
X131995718Y-84302795D01*
X132039334Y-84300000D01*
X132077814Y-84298112D01*
X132100410Y-84288474D01*
X132106000Y-84266666D01*
X132109775Y-84247426D01*
X132129051Y-84236128D01*
X132172667Y-84233333D01*
X132211147Y-84231446D01*
X132233743Y-84221807D01*
X132239334Y-84200000D01*
X132243108Y-84180760D01*
X132262385Y-84169461D01*
X132306000Y-84166666D01*
X132344480Y-84164779D01*
X132367077Y-84155141D01*
X132372667Y-84133333D01*
X132378145Y-84111785D01*
X132406000Y-84100000D01*
X132427549Y-84094521D01*
X132439334Y-84066666D01*
X132443108Y-84047426D01*
X132462385Y-84036128D01*
X132506000Y-84033333D01*
X132544480Y-84031446D01*
X132567077Y-84021807D01*
X132572667Y-84000000D01*
X132576442Y-83980760D01*
X132595718Y-83969461D01*
X132639334Y-83966666D01*
X132677814Y-83964779D01*
X132700410Y-83955141D01*
X132706000Y-83933333D01*
X132709775Y-83914093D01*
X132729051Y-83902795D01*
X132772667Y-83900000D01*
X132811147Y-83898112D01*
X132833743Y-83888474D01*
X132839334Y-83866666D01*
X132843108Y-83847426D01*
X132862385Y-83836128D01*
X132906000Y-83833333D01*
X132944480Y-83831446D01*
X132967077Y-83821807D01*
X132972667Y-83800000D01*
X132978145Y-83778451D01*
X133006000Y-83766666D01*
X133027549Y-83761188D01*
X133039334Y-83733333D01*
X133039824Y-83724544D01*
X133046518Y-83711292D01*
X133066420Y-83703901D01*
X133106235Y-83700695D01*
X133172667Y-83700000D01*
X133207822Y-83700122D01*
G37*
G36*
X140611147Y-83701887D02*
G01*
X140633743Y-83711525D01*
X140639334Y-83733333D01*
X140643108Y-83752573D01*
X140662385Y-83763871D01*
X140706000Y-83766666D01*
X140744480Y-83768553D01*
X140767077Y-83778192D01*
X140772667Y-83800000D01*
X140776442Y-83819239D01*
X140795718Y-83830538D01*
X140839334Y-83833333D01*
X140877814Y-83835220D01*
X140900410Y-83844858D01*
X140906000Y-83866666D01*
X140909775Y-83885906D01*
X140929051Y-83897204D01*
X140972667Y-83900000D01*
X141011147Y-83901887D01*
X141033743Y-83911525D01*
X141039334Y-83933333D01*
X141043108Y-83952573D01*
X141062385Y-83963871D01*
X141106000Y-83966666D01*
X141144480Y-83968553D01*
X141167077Y-83978192D01*
X141172667Y-84000000D01*
X141178145Y-84021548D01*
X141206000Y-84033333D01*
X141227549Y-84038811D01*
X141239334Y-84066666D01*
X141243108Y-84085906D01*
X141262385Y-84097204D01*
X141306000Y-84100000D01*
X141344480Y-84101887D01*
X141367077Y-84111525D01*
X141372667Y-84133333D01*
X141376442Y-84152573D01*
X141395718Y-84163871D01*
X141439334Y-84166666D01*
X141477814Y-84168553D01*
X141500410Y-84178192D01*
X141506000Y-84200000D01*
X141509775Y-84219239D01*
X141529051Y-84230538D01*
X141572667Y-84233333D01*
X141611147Y-84235220D01*
X141633743Y-84244858D01*
X141639334Y-84266666D01*
X141644812Y-84288214D01*
X141672667Y-84300000D01*
X141694215Y-84305478D01*
X141706000Y-84333333D01*
X141709775Y-84352573D01*
X141729051Y-84363871D01*
X141772667Y-84366666D01*
X141811147Y-84368553D01*
X141833743Y-84378192D01*
X141839334Y-84400000D01*
X141843108Y-84419239D01*
X141862385Y-84430538D01*
X141906000Y-84433333D01*
X141944480Y-84435220D01*
X141967077Y-84444858D01*
X141972667Y-84466666D01*
X141976442Y-84485906D01*
X141995718Y-84497204D01*
X142039334Y-84500000D01*
X142077814Y-84501887D01*
X142100410Y-84511525D01*
X142106000Y-84533333D01*
X142102226Y-84552573D01*
X142082950Y-84563871D01*
X142039334Y-84566666D01*
X142000854Y-84568553D01*
X141978258Y-84578192D01*
X141972667Y-84600000D01*
X141968893Y-84619239D01*
X141949616Y-84630538D01*
X141906000Y-84633333D01*
X141867521Y-84635220D01*
X141844924Y-84644858D01*
X141839334Y-84666666D01*
X141833856Y-84688214D01*
X141806000Y-84700000D01*
X141784452Y-84705478D01*
X141772667Y-84733333D01*
X141768893Y-84752573D01*
X141749616Y-84763871D01*
X141706000Y-84766666D01*
X141667521Y-84768553D01*
X141644924Y-84778192D01*
X141639334Y-84800000D01*
X141635559Y-84819239D01*
X141616283Y-84830538D01*
X141572667Y-84833333D01*
X141534187Y-84835220D01*
X141511591Y-84844858D01*
X141506000Y-84866666D01*
X141502226Y-84885906D01*
X141482950Y-84897204D01*
X141439334Y-84900000D01*
X141400854Y-84901887D01*
X141378258Y-84911525D01*
X141372667Y-84933333D01*
X141368893Y-84952573D01*
X141349616Y-84963871D01*
X141306000Y-84966666D01*
X141267521Y-84968553D01*
X141244924Y-84978192D01*
X141239334Y-85000000D01*
X141233856Y-85021548D01*
X141206000Y-85033333D01*
X141184452Y-85038811D01*
X141172667Y-85066666D01*
X141168893Y-85085906D01*
X141149616Y-85097204D01*
X141106000Y-85100000D01*
X141067521Y-85101887D01*
X141044924Y-85111525D01*
X141039334Y-85133333D01*
X141035559Y-85152573D01*
X141016283Y-85163871D01*
X140972667Y-85166666D01*
X140934187Y-85168553D01*
X140911591Y-85178192D01*
X140906000Y-85200000D01*
X140902226Y-85219239D01*
X140882950Y-85230538D01*
X140839334Y-85233333D01*
X140800854Y-85235220D01*
X140778258Y-85244858D01*
X140772667Y-85266666D01*
X140768893Y-85285906D01*
X140749616Y-85297204D01*
X140706000Y-85300000D01*
X140667521Y-85301887D01*
X140644924Y-85311525D01*
X140639334Y-85333333D01*
X140633856Y-85354881D01*
X140606000Y-85366666D01*
X140584452Y-85361188D01*
X140572667Y-85333333D01*
X140567189Y-85311785D01*
X140539334Y-85300000D01*
X140517786Y-85294521D01*
X140506000Y-85266666D01*
X140502226Y-85247426D01*
X140482950Y-85236128D01*
X140439334Y-85233333D01*
X140400854Y-85231446D01*
X140378258Y-85221807D01*
X140372667Y-85200000D01*
X140368893Y-85180760D01*
X140349616Y-85169461D01*
X140306000Y-85166666D01*
X140267521Y-85164779D01*
X140244924Y-85155141D01*
X140239334Y-85133333D01*
X140235559Y-85114093D01*
X140216283Y-85102795D01*
X140172667Y-85100000D01*
X140134187Y-85098112D01*
X140111591Y-85088474D01*
X140106000Y-85066666D01*
X140100522Y-85045118D01*
X140072667Y-85033333D01*
X140051119Y-85027855D01*
X140039334Y-85000000D01*
X140035559Y-84980760D01*
X140016283Y-84969461D01*
X139972667Y-84966666D01*
X139934187Y-84964779D01*
X139911591Y-84955141D01*
X139906000Y-84933333D01*
X139902226Y-84914093D01*
X139882950Y-84902795D01*
X139839334Y-84900000D01*
X139800854Y-84898112D01*
X139778258Y-84888474D01*
X139772667Y-84866666D01*
X139768893Y-84847426D01*
X139749616Y-84836128D01*
X139706000Y-84833333D01*
X139667521Y-84831446D01*
X139644924Y-84821807D01*
X139639334Y-84800000D01*
X139635559Y-84780760D01*
X139616283Y-84769461D01*
X139572667Y-84766666D01*
X139534187Y-84764779D01*
X139511591Y-84755141D01*
X139506000Y-84733333D01*
X139500522Y-84711785D01*
X139472667Y-84700000D01*
X139451119Y-84694521D01*
X139439334Y-84666666D01*
X139435559Y-84647426D01*
X139416283Y-84636128D01*
X139372667Y-84633333D01*
X139334187Y-84631446D01*
X139311591Y-84621807D01*
X139306000Y-84600000D01*
X139302226Y-84580760D01*
X139282950Y-84569461D01*
X139239334Y-84566666D01*
X139200854Y-84564779D01*
X139178258Y-84555141D01*
X139172667Y-84533333D01*
X139167189Y-84511785D01*
X139139334Y-84500000D01*
X139117786Y-84494521D01*
X139106000Y-84466666D01*
X139109775Y-84447426D01*
X139129051Y-84436128D01*
X139172667Y-84433333D01*
X139211147Y-84431446D01*
X139233743Y-84421807D01*
X139239334Y-84400000D01*
X139243108Y-84380760D01*
X139262385Y-84369461D01*
X139306000Y-84366666D01*
X139344480Y-84364779D01*
X139367077Y-84355141D01*
X139372667Y-84333333D01*
X139376442Y-84314093D01*
X139395718Y-84302795D01*
X139439334Y-84300000D01*
X139477814Y-84298112D01*
X139500410Y-84288474D01*
X139506000Y-84266666D01*
X139509775Y-84247426D01*
X139529051Y-84236128D01*
X139572667Y-84233333D01*
X139611147Y-84231446D01*
X139633743Y-84221807D01*
X139639334Y-84200000D01*
X139643108Y-84180760D01*
X139662385Y-84169461D01*
X139706000Y-84166666D01*
X139744480Y-84164779D01*
X139767077Y-84155141D01*
X139772667Y-84133333D01*
X139776442Y-84114093D01*
X139795718Y-84102795D01*
X139839334Y-84100000D01*
X139877814Y-84098112D01*
X139900410Y-84088474D01*
X139906000Y-84066666D01*
X139911479Y-84045118D01*
X139939334Y-84033333D01*
X139960882Y-84027855D01*
X139972667Y-84000000D01*
X139976442Y-83980760D01*
X139995718Y-83969461D01*
X140039334Y-83966666D01*
X140077814Y-83964779D01*
X140100410Y-83955141D01*
X140106000Y-83933333D01*
X140109775Y-83914093D01*
X140129051Y-83902795D01*
X140172667Y-83900000D01*
X140211147Y-83898112D01*
X140233743Y-83888474D01*
X140239334Y-83866666D01*
X140243108Y-83847426D01*
X140262385Y-83836128D01*
X140306000Y-83833333D01*
X140344480Y-83831446D01*
X140367077Y-83821807D01*
X140372667Y-83800000D01*
X140376442Y-83780760D01*
X140395718Y-83769461D01*
X140439334Y-83766666D01*
X140477814Y-83764779D01*
X140500410Y-83755141D01*
X140506000Y-83733333D01*
X140509775Y-83714093D01*
X140529051Y-83702795D01*
X140572667Y-83700000D01*
X140611147Y-83701887D01*
G37*
G36*
X136877814Y-83635220D02*
G01*
X136900410Y-83644858D01*
X136906000Y-83666666D01*
X136909775Y-83685906D01*
X136929051Y-83697204D01*
X136972667Y-83700000D01*
X137011147Y-83701887D01*
X137033743Y-83711525D01*
X137039334Y-83733333D01*
X137043108Y-83752573D01*
X137062385Y-83763871D01*
X137106000Y-83766666D01*
X137144480Y-83768553D01*
X137167077Y-83778192D01*
X137172667Y-83800000D01*
X137176442Y-83819239D01*
X137195718Y-83830538D01*
X137239334Y-83833333D01*
X137277814Y-83835220D01*
X137300410Y-83844858D01*
X137306000Y-83866666D01*
X137311479Y-83888214D01*
X137339334Y-83900000D01*
X137360882Y-83905478D01*
X137372667Y-83933333D01*
X137376442Y-83952573D01*
X137395718Y-83963871D01*
X137439334Y-83966666D01*
X137477814Y-83968553D01*
X137500410Y-83978192D01*
X137506000Y-84000000D01*
X137509775Y-84019239D01*
X137529051Y-84030538D01*
X137572667Y-84033333D01*
X137611147Y-84035220D01*
X137633743Y-84044858D01*
X137639334Y-84066666D01*
X137643108Y-84085906D01*
X137662385Y-84097204D01*
X137706000Y-84100000D01*
X137744480Y-84101887D01*
X137767077Y-84111525D01*
X137772667Y-84133333D01*
X137776442Y-84152573D01*
X137795718Y-84163871D01*
X137839334Y-84166666D01*
X137877814Y-84168553D01*
X137900410Y-84178192D01*
X137906000Y-84200000D01*
X137911479Y-84221548D01*
X137939334Y-84233333D01*
X137960882Y-84238811D01*
X137972667Y-84266666D01*
X137976442Y-84285906D01*
X137995718Y-84297204D01*
X138039334Y-84300000D01*
X138077814Y-84301887D01*
X138100410Y-84311525D01*
X138106000Y-84333333D01*
X138109775Y-84352573D01*
X138129051Y-84363871D01*
X138172667Y-84366666D01*
X138211147Y-84368553D01*
X138233743Y-84378192D01*
X138239334Y-84400000D01*
X138243108Y-84419239D01*
X138262385Y-84430538D01*
X138306000Y-84433333D01*
X138344480Y-84435220D01*
X138367077Y-84444858D01*
X138372667Y-84466666D01*
X138367189Y-84488214D01*
X138339334Y-84500000D01*
X138317786Y-84505478D01*
X138306000Y-84533333D01*
X138302226Y-84552573D01*
X138282950Y-84563871D01*
X138239334Y-84566666D01*
X138200854Y-84568553D01*
X138178258Y-84578192D01*
X138172667Y-84600000D01*
X138167189Y-84621548D01*
X138139334Y-84633333D01*
X138117786Y-84638811D01*
X138106000Y-84666666D01*
X138102226Y-84685906D01*
X138082950Y-84697204D01*
X138039334Y-84700000D01*
X138000854Y-84701887D01*
X137978258Y-84711525D01*
X137972667Y-84733333D01*
X137968893Y-84752573D01*
X137949616Y-84763871D01*
X137906000Y-84766666D01*
X137867521Y-84768553D01*
X137844924Y-84778192D01*
X137839334Y-84800000D01*
X137835559Y-84819239D01*
X137816283Y-84830538D01*
X137772667Y-84833333D01*
X137734187Y-84835220D01*
X137711591Y-84844858D01*
X137706000Y-84866666D01*
X137702226Y-84885906D01*
X137682950Y-84897204D01*
X137639334Y-84900000D01*
X137600854Y-84901887D01*
X137578258Y-84911525D01*
X137572667Y-84933333D01*
X137568893Y-84952573D01*
X137549616Y-84963871D01*
X137506000Y-84966666D01*
X137467521Y-84968553D01*
X137444924Y-84978192D01*
X137439334Y-85000000D01*
X137433856Y-85021548D01*
X137406000Y-85033333D01*
X137384452Y-85038811D01*
X137372667Y-85066666D01*
X137368893Y-85085906D01*
X137349616Y-85097204D01*
X137306000Y-85100000D01*
X137267521Y-85101887D01*
X137244924Y-85111525D01*
X137239334Y-85133333D01*
X137235559Y-85152573D01*
X137216283Y-85163871D01*
X137172667Y-85166666D01*
X137134187Y-85168553D01*
X137111591Y-85178192D01*
X137106000Y-85200000D01*
X137102226Y-85219239D01*
X137082950Y-85230538D01*
X137039334Y-85233333D01*
X137000854Y-85235220D01*
X136978258Y-85244858D01*
X136972667Y-85266666D01*
X136967189Y-85288214D01*
X136939334Y-85300000D01*
X136917786Y-85305478D01*
X136906000Y-85333333D01*
X136900522Y-85354881D01*
X136872667Y-85366666D01*
X136851119Y-85361188D01*
X136839334Y-85333333D01*
X136835559Y-85314093D01*
X136816283Y-85302795D01*
X136772667Y-85300000D01*
X136734187Y-85298112D01*
X136711591Y-85288474D01*
X136706000Y-85266666D01*
X136702226Y-85247426D01*
X136682950Y-85236128D01*
X136639334Y-85233333D01*
X136600854Y-85231446D01*
X136578258Y-85221807D01*
X136572667Y-85200000D01*
X136567189Y-85178451D01*
X136539334Y-85166666D01*
X136517786Y-85161188D01*
X136506000Y-85133333D01*
X136502226Y-85114093D01*
X136482950Y-85102795D01*
X136439334Y-85100000D01*
X136400854Y-85098112D01*
X136378258Y-85088474D01*
X136372667Y-85066666D01*
X136368893Y-85047426D01*
X136349616Y-85036128D01*
X136306000Y-85033333D01*
X136267521Y-85031446D01*
X136244924Y-85021807D01*
X136239334Y-85000000D01*
X136235559Y-84980760D01*
X136216283Y-84969461D01*
X136172667Y-84966666D01*
X136134187Y-84964779D01*
X136111591Y-84955141D01*
X136106000Y-84933333D01*
X136102226Y-84914093D01*
X136082950Y-84902795D01*
X136039334Y-84900000D01*
X136000854Y-84898112D01*
X135978258Y-84888474D01*
X135972667Y-84866666D01*
X135967189Y-84845118D01*
X135939334Y-84833333D01*
X135917786Y-84827855D01*
X135906000Y-84800000D01*
X135902226Y-84780760D01*
X135882950Y-84769461D01*
X135839334Y-84766666D01*
X135800854Y-84764779D01*
X135778258Y-84755141D01*
X135772667Y-84733333D01*
X135768893Y-84714093D01*
X135749616Y-84702795D01*
X135706000Y-84700000D01*
X135667521Y-84698112D01*
X135644924Y-84688474D01*
X135639334Y-84666666D01*
X135635559Y-84647426D01*
X135616283Y-84636128D01*
X135572667Y-84633333D01*
X135534187Y-84631446D01*
X135511591Y-84621807D01*
X135506000Y-84600000D01*
X135502226Y-84580760D01*
X135482950Y-84569461D01*
X135439334Y-84566666D01*
X135372667Y-84566666D01*
X135372667Y-84500000D01*
X135372667Y-84433333D01*
X135439334Y-84433333D01*
X135477814Y-84431446D01*
X135500410Y-84421807D01*
X135506000Y-84400000D01*
X135509775Y-84380760D01*
X135529051Y-84369461D01*
X135572667Y-84366666D01*
X135611147Y-84364779D01*
X135633743Y-84355141D01*
X135639334Y-84333333D01*
X135643108Y-84314093D01*
X135662385Y-84302795D01*
X135706000Y-84300000D01*
X135744480Y-84298112D01*
X135767077Y-84288474D01*
X135772667Y-84266666D01*
X135778145Y-84245118D01*
X135806000Y-84233333D01*
X135827549Y-84227855D01*
X135839334Y-84200000D01*
X135843108Y-84180760D01*
X135862385Y-84169461D01*
X135906000Y-84166666D01*
X135944480Y-84164779D01*
X135967077Y-84155141D01*
X135972667Y-84133333D01*
X135976442Y-84114093D01*
X135995718Y-84102795D01*
X136039334Y-84100000D01*
X136077814Y-84098112D01*
X136100410Y-84088474D01*
X136106000Y-84066666D01*
X136109775Y-84047426D01*
X136129051Y-84036128D01*
X136172667Y-84033333D01*
X136211147Y-84031446D01*
X136233743Y-84021807D01*
X136239334Y-84000000D01*
X136243108Y-83980760D01*
X136262385Y-83969461D01*
X136306000Y-83966666D01*
X136344480Y-83964779D01*
X136367077Y-83955141D01*
X136372667Y-83933333D01*
X136378145Y-83911785D01*
X136406000Y-83900000D01*
X136427549Y-83894521D01*
X136439334Y-83866666D01*
X136443108Y-83847426D01*
X136462385Y-83836128D01*
X136506000Y-83833333D01*
X136544480Y-83831446D01*
X136567077Y-83821807D01*
X136572667Y-83800000D01*
X136576442Y-83780760D01*
X136595718Y-83769461D01*
X136639334Y-83766666D01*
X136677814Y-83764779D01*
X136700410Y-83755141D01*
X136706000Y-83733333D01*
X136711479Y-83711785D01*
X136739334Y-83700000D01*
X136760882Y-83694521D01*
X136772667Y-83666666D01*
X136776442Y-83647426D01*
X136795718Y-83636128D01*
X136839334Y-83633333D01*
X136877814Y-83635220D01*
G37*
G36*
X138783626Y-84700612D02*
G01*
X138819657Y-84704656D01*
X138835685Y-84714715D01*
X138839334Y-84733333D01*
X138843108Y-84752573D01*
X138862385Y-84763871D01*
X138906000Y-84766666D01*
X138944480Y-84768553D01*
X138967077Y-84778192D01*
X138972667Y-84800000D01*
X138976442Y-84819239D01*
X138995718Y-84830538D01*
X139039334Y-84833333D01*
X139077814Y-84835220D01*
X139100410Y-84844858D01*
X139106000Y-84866666D01*
X139109775Y-84885906D01*
X139129051Y-84897204D01*
X139172667Y-84900000D01*
X139211147Y-84901887D01*
X139233743Y-84911525D01*
X139239334Y-84933333D01*
X139243108Y-84952573D01*
X139262385Y-84963871D01*
X139306000Y-84966666D01*
X139344480Y-84968553D01*
X139367077Y-84978192D01*
X139372667Y-85000000D01*
X139376442Y-85019239D01*
X139395718Y-85030538D01*
X139439334Y-85033333D01*
X139477814Y-85035220D01*
X139500410Y-85044858D01*
X139506000Y-85066666D01*
X139511479Y-85088214D01*
X139539334Y-85100000D01*
X139560882Y-85105478D01*
X139572667Y-85133333D01*
X139576442Y-85152573D01*
X139595718Y-85163871D01*
X139639334Y-85166666D01*
X139677814Y-85168553D01*
X139700410Y-85178192D01*
X139706000Y-85200000D01*
X139709775Y-85219239D01*
X139729051Y-85230538D01*
X139772667Y-85233333D01*
X139811147Y-85235220D01*
X139833743Y-85244858D01*
X139839334Y-85266666D01*
X139843108Y-85285906D01*
X139862385Y-85297204D01*
X139906000Y-85300000D01*
X139944480Y-85301887D01*
X139967077Y-85311525D01*
X139972667Y-85333333D01*
X139976442Y-85352573D01*
X139995718Y-85363871D01*
X140039334Y-85366666D01*
X140077814Y-85368553D01*
X140100410Y-85378192D01*
X140106000Y-85400000D01*
X140109775Y-85419239D01*
X140129051Y-85430538D01*
X140172667Y-85433333D01*
X140211147Y-85435220D01*
X140233743Y-85444858D01*
X140239334Y-85466666D01*
X140244812Y-85488214D01*
X140272667Y-85500000D01*
X140294215Y-85505478D01*
X140306000Y-85533333D01*
X140302226Y-85552573D01*
X140282950Y-85563871D01*
X140239334Y-85566666D01*
X140200854Y-85568553D01*
X140178258Y-85578192D01*
X140172667Y-85600000D01*
X140168893Y-85619239D01*
X140149616Y-85630538D01*
X140106000Y-85633333D01*
X140067521Y-85635220D01*
X140044924Y-85644858D01*
X140039334Y-85666666D01*
X140035559Y-85685906D01*
X140016283Y-85697204D01*
X139972667Y-85700000D01*
X139934187Y-85701887D01*
X139911591Y-85711525D01*
X139906000Y-85733333D01*
X139900522Y-85754881D01*
X139872667Y-85766666D01*
X139851119Y-85772144D01*
X139839334Y-85800000D01*
X139835559Y-85819239D01*
X139816283Y-85830538D01*
X139772667Y-85833333D01*
X139734187Y-85835220D01*
X139711591Y-85844858D01*
X139706000Y-85866666D01*
X139702226Y-85885906D01*
X139682950Y-85897204D01*
X139639334Y-85900000D01*
X139600854Y-85901887D01*
X139578258Y-85911525D01*
X139572667Y-85933333D01*
X139568893Y-85952573D01*
X139549616Y-85963871D01*
X139506000Y-85966666D01*
X139467521Y-85968553D01*
X139444924Y-85978192D01*
X139439334Y-86000000D01*
X139435559Y-86019239D01*
X139416283Y-86030538D01*
X139372667Y-86033333D01*
X139334187Y-86035220D01*
X139311591Y-86044858D01*
X139306000Y-86066666D01*
X139302226Y-86085906D01*
X139282950Y-86097204D01*
X139239334Y-86100000D01*
X139200854Y-86101887D01*
X139178258Y-86111525D01*
X139172667Y-86133333D01*
X139168893Y-86152573D01*
X139149616Y-86163871D01*
X139106000Y-86166666D01*
X139067521Y-86168553D01*
X139044924Y-86178192D01*
X139039334Y-86200000D01*
X139033856Y-86221548D01*
X139006000Y-86233333D01*
X138984452Y-86238811D01*
X138972667Y-86266666D01*
X138968893Y-86285906D01*
X138949616Y-86297204D01*
X138906000Y-86300000D01*
X138867521Y-86301887D01*
X138844924Y-86311525D01*
X138839334Y-86333333D01*
X138837495Y-86348097D01*
X138825365Y-86360107D01*
X138795186Y-86365450D01*
X138739334Y-86366666D01*
X138695042Y-86366053D01*
X138659011Y-86362010D01*
X138642983Y-86351950D01*
X138639334Y-86333333D01*
X138635559Y-86314093D01*
X138616283Y-86302795D01*
X138572667Y-86300000D01*
X138534187Y-86298112D01*
X138511591Y-86288474D01*
X138506000Y-86266666D01*
X138502226Y-86247426D01*
X138482950Y-86236128D01*
X138439334Y-86233333D01*
X138400854Y-86231446D01*
X138378258Y-86221807D01*
X138372667Y-86200000D01*
X138367189Y-86178451D01*
X138339334Y-86166666D01*
X138317786Y-86161188D01*
X138306000Y-86133333D01*
X138302226Y-86114093D01*
X138282950Y-86102795D01*
X138239334Y-86100000D01*
X138200854Y-86098112D01*
X138178258Y-86088474D01*
X138172667Y-86066666D01*
X138168893Y-86047426D01*
X138149616Y-86036128D01*
X138106000Y-86033333D01*
X138067521Y-86031446D01*
X138044924Y-86021807D01*
X138039334Y-86000000D01*
X138035559Y-85980760D01*
X138016283Y-85969461D01*
X137972667Y-85966666D01*
X137934187Y-85964779D01*
X137911591Y-85955141D01*
X137906000Y-85933333D01*
X137900522Y-85911785D01*
X137872667Y-85900000D01*
X137851119Y-85894521D01*
X137839334Y-85866666D01*
X137835559Y-85847426D01*
X137816283Y-85836128D01*
X137772667Y-85833333D01*
X137734187Y-85831446D01*
X137711591Y-85821807D01*
X137706000Y-85800000D01*
X137702226Y-85780760D01*
X137682950Y-85769461D01*
X137639334Y-85766666D01*
X137600854Y-85764779D01*
X137578258Y-85755141D01*
X137572667Y-85733333D01*
X137568893Y-85714093D01*
X137549616Y-85702795D01*
X137506000Y-85700000D01*
X137467521Y-85698112D01*
X137444924Y-85688474D01*
X137439334Y-85666666D01*
X137435559Y-85647426D01*
X137416283Y-85636128D01*
X137372667Y-85633333D01*
X137334187Y-85631446D01*
X137311591Y-85621807D01*
X137306000Y-85600000D01*
X137300522Y-85578451D01*
X137272667Y-85566666D01*
X137251119Y-85561188D01*
X137239334Y-85533333D01*
X137244812Y-85511785D01*
X137272667Y-85500000D01*
X137294215Y-85494521D01*
X137306000Y-85466666D01*
X137309775Y-85447426D01*
X137329051Y-85436128D01*
X137372667Y-85433333D01*
X137411147Y-85431446D01*
X137433743Y-85421807D01*
X137439334Y-85400000D01*
X137444812Y-85378451D01*
X137472667Y-85366666D01*
X137494215Y-85361188D01*
X137506000Y-85333333D01*
X137509775Y-85314093D01*
X137529051Y-85302795D01*
X137572667Y-85300000D01*
X137611147Y-85298112D01*
X137633743Y-85288474D01*
X137639334Y-85266666D01*
X137643108Y-85247426D01*
X137662385Y-85236128D01*
X137706000Y-85233333D01*
X137744480Y-85231446D01*
X137767077Y-85221807D01*
X137772667Y-85200000D01*
X137776442Y-85180760D01*
X137795718Y-85169461D01*
X137839334Y-85166666D01*
X137877814Y-85164779D01*
X137900410Y-85155141D01*
X137906000Y-85133333D01*
X137909775Y-85114093D01*
X137929051Y-85102795D01*
X137972667Y-85100000D01*
X138011147Y-85098112D01*
X138033743Y-85088474D01*
X138039334Y-85066666D01*
X138043108Y-85047426D01*
X138062385Y-85036128D01*
X138106000Y-85033333D01*
X138144480Y-85031446D01*
X138167077Y-85021807D01*
X138172667Y-85000000D01*
X138176442Y-84980760D01*
X138195718Y-84969461D01*
X138239334Y-84966666D01*
X138277814Y-84964779D01*
X138300410Y-84955141D01*
X138306000Y-84933333D01*
X138311479Y-84911785D01*
X138339334Y-84900000D01*
X138360882Y-84894521D01*
X138372667Y-84866666D01*
X138376442Y-84847426D01*
X138395718Y-84836128D01*
X138439334Y-84833333D01*
X138477814Y-84831446D01*
X138500410Y-84821807D01*
X138506000Y-84800000D01*
X138509775Y-84780760D01*
X138529051Y-84769461D01*
X138572667Y-84766666D01*
X138611147Y-84764779D01*
X138633743Y-84755141D01*
X138639334Y-84733333D01*
X138641172Y-84718569D01*
X138653302Y-84706559D01*
X138683482Y-84701216D01*
X138739334Y-84700000D01*
X138783626Y-84700612D01*
G37*
G36*
X136944480Y-87835220D02*
G01*
X136967077Y-87844858D01*
X136972667Y-87866666D01*
X136978145Y-87888214D01*
X137006000Y-87900000D01*
X137027549Y-87905478D01*
X137039334Y-87933333D01*
X137043108Y-87952573D01*
X137062385Y-87963871D01*
X137106000Y-87966666D01*
X137144480Y-87968553D01*
X137167077Y-87978192D01*
X137172667Y-88000000D01*
X137176442Y-88019239D01*
X137195718Y-88030538D01*
X137239334Y-88033333D01*
X137277814Y-88035220D01*
X137300410Y-88044858D01*
X137306000Y-88066666D01*
X137309775Y-88085906D01*
X137329051Y-88097204D01*
X137372667Y-88100000D01*
X137411147Y-88101887D01*
X137433743Y-88111525D01*
X137439334Y-88133333D01*
X137443108Y-88152573D01*
X137462385Y-88163871D01*
X137506000Y-88166666D01*
X137544480Y-88168553D01*
X137567077Y-88178192D01*
X137572667Y-88200000D01*
X137576442Y-88219239D01*
X137595718Y-88230538D01*
X137639334Y-88233333D01*
X137677814Y-88235220D01*
X137700410Y-88244858D01*
X137706000Y-88266666D01*
X137711479Y-88288214D01*
X137739334Y-88300000D01*
X137760882Y-88305478D01*
X137772667Y-88333333D01*
X137776442Y-88352573D01*
X137795718Y-88363871D01*
X137839334Y-88366666D01*
X137877814Y-88368553D01*
X137900410Y-88378192D01*
X137906000Y-88400000D01*
X137909775Y-88419239D01*
X137929051Y-88430538D01*
X137972667Y-88433333D01*
X138011147Y-88435220D01*
X138033743Y-88444858D01*
X138039334Y-88466666D01*
X138043108Y-88485906D01*
X138062385Y-88497204D01*
X138106000Y-88500000D01*
X138144480Y-88501887D01*
X138167077Y-88511525D01*
X138172667Y-88533333D01*
X138176442Y-88552573D01*
X138195718Y-88563871D01*
X138239334Y-88566666D01*
X138277814Y-88568553D01*
X138300410Y-88578192D01*
X138306000Y-88600000D01*
X138311479Y-88621548D01*
X138339334Y-88633333D01*
X138358574Y-88637107D01*
X138369872Y-88656384D01*
X138372667Y-88700000D01*
X138370780Y-88738479D01*
X138361142Y-88761076D01*
X138339334Y-88766666D01*
X138317786Y-88772144D01*
X138306000Y-88800000D01*
X138302226Y-88819239D01*
X138282950Y-88830538D01*
X138239334Y-88833333D01*
X138200854Y-88835220D01*
X138178258Y-88844858D01*
X138172667Y-88866666D01*
X138170829Y-88881430D01*
X138158699Y-88893440D01*
X138128519Y-88898783D01*
X138072667Y-88900000D01*
X138028375Y-88900612D01*
X137992344Y-88904656D01*
X137976316Y-88914715D01*
X137972667Y-88933333D01*
X137967189Y-88954881D01*
X137939334Y-88966666D01*
X137917786Y-88972144D01*
X137906000Y-89000000D01*
X137904162Y-89014763D01*
X137892032Y-89026774D01*
X137861853Y-89032117D01*
X137806000Y-89033333D01*
X137761709Y-89033946D01*
X137725678Y-89037989D01*
X137709649Y-89048049D01*
X137706000Y-89066666D01*
X137700522Y-89088214D01*
X137672667Y-89100000D01*
X137651119Y-89105478D01*
X137639334Y-89133333D01*
X137635559Y-89152573D01*
X137616283Y-89163871D01*
X137572667Y-89166666D01*
X137534187Y-89168553D01*
X137511591Y-89178192D01*
X137506000Y-89200000D01*
X137502226Y-89219239D01*
X137482950Y-89230538D01*
X137439334Y-89233333D01*
X137400854Y-89235220D01*
X137378258Y-89244858D01*
X137372667Y-89266666D01*
X137367189Y-89288214D01*
X137339334Y-89300000D01*
X137317786Y-89305478D01*
X137306000Y-89333333D01*
X137302226Y-89352573D01*
X137282950Y-89363871D01*
X137239334Y-89366666D01*
X137200854Y-89368553D01*
X137178258Y-89378192D01*
X137172667Y-89400000D01*
X137170829Y-89414763D01*
X137158699Y-89426774D01*
X137128519Y-89432117D01*
X137072667Y-89433333D01*
X137028375Y-89433946D01*
X136992344Y-89437989D01*
X136976316Y-89448049D01*
X136972667Y-89466666D01*
X136967189Y-89488214D01*
X136939334Y-89500000D01*
X136917786Y-89505478D01*
X136906000Y-89533333D01*
X136902226Y-89552573D01*
X136882950Y-89563871D01*
X136839334Y-89566666D01*
X136800854Y-89564779D01*
X136778258Y-89555141D01*
X136772667Y-89533333D01*
X136767189Y-89511785D01*
X136739334Y-89500000D01*
X136717786Y-89494521D01*
X136706000Y-89466666D01*
X136700522Y-89445118D01*
X136672667Y-89433333D01*
X136651119Y-89427855D01*
X136639334Y-89400000D01*
X136635559Y-89380760D01*
X136616283Y-89369461D01*
X136572667Y-89366666D01*
X136534187Y-89364779D01*
X136511591Y-89355141D01*
X136506000Y-89333333D01*
X136502226Y-89314093D01*
X136482950Y-89302795D01*
X136439334Y-89300000D01*
X136400854Y-89298112D01*
X136378258Y-89288474D01*
X136372667Y-89266666D01*
X136368893Y-89247426D01*
X136349616Y-89236128D01*
X136306000Y-89233333D01*
X136267521Y-89231446D01*
X136244924Y-89221807D01*
X136239334Y-89200000D01*
X136233856Y-89178451D01*
X136206000Y-89166666D01*
X136184452Y-89161188D01*
X136172667Y-89133333D01*
X136168893Y-89114093D01*
X136149616Y-89102795D01*
X136106000Y-89100000D01*
X136067521Y-89098112D01*
X136044924Y-89088474D01*
X136039334Y-89066666D01*
X136035559Y-89047426D01*
X136016283Y-89036128D01*
X135972667Y-89033333D01*
X135934187Y-89031446D01*
X135911591Y-89021807D01*
X135906000Y-89000000D01*
X135900522Y-88978451D01*
X135872667Y-88966666D01*
X135851119Y-88961188D01*
X135839334Y-88933333D01*
X135835559Y-88914093D01*
X135816283Y-88902795D01*
X135772667Y-88900000D01*
X135734187Y-88898112D01*
X135711591Y-88888474D01*
X135706000Y-88866666D01*
X135702226Y-88847426D01*
X135682950Y-88836128D01*
X135639334Y-88833333D01*
X135600854Y-88831446D01*
X135578258Y-88821807D01*
X135572667Y-88800000D01*
X135568893Y-88780760D01*
X135549616Y-88769461D01*
X135506000Y-88766666D01*
X135467521Y-88764779D01*
X135444924Y-88755141D01*
X135439334Y-88733333D01*
X135433856Y-88711785D01*
X135406000Y-88700000D01*
X135384452Y-88694521D01*
X135372667Y-88666666D01*
X135376442Y-88647426D01*
X135395718Y-88636128D01*
X135439334Y-88633333D01*
X135477814Y-88631446D01*
X135500410Y-88621807D01*
X135506000Y-88600000D01*
X135509775Y-88580760D01*
X135529051Y-88569461D01*
X135572667Y-88566666D01*
X135611147Y-88564779D01*
X135633743Y-88555141D01*
X135639334Y-88533333D01*
X135644812Y-88511785D01*
X135672667Y-88500000D01*
X135694215Y-88494521D01*
X135706000Y-88466666D01*
X135709775Y-88447426D01*
X135729051Y-88436128D01*
X135772667Y-88433333D01*
X135811147Y-88431446D01*
X135833743Y-88421807D01*
X135839334Y-88400000D01*
X135844812Y-88378451D01*
X135872667Y-88366666D01*
X135894215Y-88361188D01*
X135906000Y-88333333D01*
X135911479Y-88311785D01*
X135939334Y-88300000D01*
X135960882Y-88294521D01*
X135972667Y-88266666D01*
X135976442Y-88247426D01*
X135995718Y-88236128D01*
X136039334Y-88233333D01*
X136077814Y-88231446D01*
X136100410Y-88221807D01*
X136106000Y-88200000D01*
X136109775Y-88180760D01*
X136129051Y-88169461D01*
X136172667Y-88166666D01*
X136211147Y-88164779D01*
X136233743Y-88155141D01*
X136239334Y-88133333D01*
X136243108Y-88114093D01*
X136262385Y-88102795D01*
X136306000Y-88100000D01*
X136344480Y-88098112D01*
X136367077Y-88088474D01*
X136372667Y-88066666D01*
X136378145Y-88045118D01*
X136406000Y-88033333D01*
X136427549Y-88027855D01*
X136439334Y-88000000D01*
X136439824Y-87991211D01*
X136446518Y-87977958D01*
X136466420Y-87970567D01*
X136506235Y-87967362D01*
X136572667Y-87966666D01*
X136607822Y-87966544D01*
X136660832Y-87964870D01*
X136690396Y-87959895D01*
X136703217Y-87949941D01*
X136706000Y-87933333D01*
X136709775Y-87914093D01*
X136729051Y-87902795D01*
X136772667Y-87900000D01*
X136811147Y-87898112D01*
X136833743Y-87888474D01*
X136839334Y-87866666D01*
X136843108Y-87847426D01*
X136862385Y-87836128D01*
X136906000Y-87833333D01*
X136944480Y-87835220D01*
G37*
G36*
X136916959Y-81633946D02*
G01*
X136952990Y-81637989D01*
X136969018Y-81648049D01*
X136972667Y-81666666D01*
X136976442Y-81685906D01*
X136995718Y-81697204D01*
X137039334Y-81700000D01*
X137077814Y-81701887D01*
X137100410Y-81711525D01*
X137106000Y-81733333D01*
X137109775Y-81752573D01*
X137129051Y-81763871D01*
X137172667Y-81766666D01*
X137211147Y-81768553D01*
X137233743Y-81778192D01*
X137239334Y-81800000D01*
X137243108Y-81819239D01*
X137262385Y-81830538D01*
X137306000Y-81833333D01*
X137344480Y-81835220D01*
X137367077Y-81844858D01*
X137372667Y-81866666D01*
X137378145Y-81888214D01*
X137406000Y-81900000D01*
X137427549Y-81905478D01*
X137439334Y-81933333D01*
X137443108Y-81952573D01*
X137462385Y-81963871D01*
X137506000Y-81966666D01*
X137544480Y-81968553D01*
X137567077Y-81978192D01*
X137572667Y-82000000D01*
X137576442Y-82019239D01*
X137595718Y-82030538D01*
X137639334Y-82033333D01*
X137677814Y-82035220D01*
X137700410Y-82044858D01*
X137706000Y-82066666D01*
X137709775Y-82085906D01*
X137729051Y-82097204D01*
X137772667Y-82100000D01*
X137811147Y-82101887D01*
X137833743Y-82111525D01*
X137839334Y-82133333D01*
X137844812Y-82154881D01*
X137872667Y-82166666D01*
X137894215Y-82172144D01*
X137906000Y-82200000D01*
X137909775Y-82219239D01*
X137929051Y-82230538D01*
X137972667Y-82233333D01*
X138011147Y-82235220D01*
X138033743Y-82244858D01*
X138039334Y-82266666D01*
X138043108Y-82285906D01*
X138062385Y-82297204D01*
X138106000Y-82300000D01*
X138144480Y-82301887D01*
X138167077Y-82311525D01*
X138172667Y-82333333D01*
X138176442Y-82352573D01*
X138195718Y-82363871D01*
X138239334Y-82366666D01*
X138277814Y-82368553D01*
X138300410Y-82378192D01*
X138306000Y-82400000D01*
X138311479Y-82421548D01*
X138339334Y-82433333D01*
X138360882Y-82438811D01*
X138372667Y-82466666D01*
X138368893Y-82485906D01*
X138349616Y-82497204D01*
X138306000Y-82500000D01*
X138267521Y-82501887D01*
X138244924Y-82511525D01*
X138239334Y-82533333D01*
X138235559Y-82552573D01*
X138216283Y-82563871D01*
X138172667Y-82566666D01*
X138134187Y-82568553D01*
X138111591Y-82578192D01*
X138106000Y-82600000D01*
X138102226Y-82619239D01*
X138082950Y-82630538D01*
X138039334Y-82633333D01*
X138000854Y-82635220D01*
X137978258Y-82644858D01*
X137972667Y-82666666D01*
X137967189Y-82688214D01*
X137939334Y-82700000D01*
X137917786Y-82705478D01*
X137906000Y-82733333D01*
X137902226Y-82752573D01*
X137882950Y-82763871D01*
X137839334Y-82766666D01*
X137800854Y-82768553D01*
X137778258Y-82778192D01*
X137772667Y-82800000D01*
X137768893Y-82819239D01*
X137749616Y-82830538D01*
X137706000Y-82833333D01*
X137667521Y-82835220D01*
X137644924Y-82844858D01*
X137639334Y-82866666D01*
X137635559Y-82885906D01*
X137616283Y-82897204D01*
X137572667Y-82900000D01*
X137534187Y-82901887D01*
X137511591Y-82911525D01*
X137506000Y-82933333D01*
X137502226Y-82952573D01*
X137482950Y-82963871D01*
X137439334Y-82966666D01*
X137400854Y-82968553D01*
X137378258Y-82978192D01*
X137372667Y-83000000D01*
X137368893Y-83019239D01*
X137349616Y-83030538D01*
X137306000Y-83033333D01*
X137267521Y-83035220D01*
X137244924Y-83044858D01*
X137239334Y-83066666D01*
X137235559Y-83085906D01*
X137216283Y-83097204D01*
X137172667Y-83100000D01*
X137134187Y-83101887D01*
X137111591Y-83111525D01*
X137106000Y-83133333D01*
X137102226Y-83152573D01*
X137082950Y-83163871D01*
X137039334Y-83166666D01*
X137000854Y-83168553D01*
X136978258Y-83178192D01*
X136972667Y-83200000D01*
X136967189Y-83221548D01*
X136939334Y-83233333D01*
X136917786Y-83238811D01*
X136906000Y-83266666D01*
X136902226Y-83285906D01*
X136882950Y-83297204D01*
X136839334Y-83300000D01*
X136800854Y-83298112D01*
X136778258Y-83288474D01*
X136772667Y-83266666D01*
X136768893Y-83247426D01*
X136749616Y-83236128D01*
X136706000Y-83233333D01*
X136667521Y-83231446D01*
X136644924Y-83221807D01*
X136639334Y-83200000D01*
X136635559Y-83180760D01*
X136616283Y-83169461D01*
X136572667Y-83166666D01*
X136534187Y-83164779D01*
X136511591Y-83155141D01*
X136506000Y-83133333D01*
X136500522Y-83111785D01*
X136472667Y-83100000D01*
X136451119Y-83094521D01*
X136439334Y-83066666D01*
X136435559Y-83047426D01*
X136416283Y-83036128D01*
X136372667Y-83033333D01*
X136334187Y-83031446D01*
X136311591Y-83021807D01*
X136306000Y-83000000D01*
X136302226Y-82980760D01*
X136282950Y-82969461D01*
X136239334Y-82966666D01*
X136200854Y-82964779D01*
X136178258Y-82955141D01*
X136172667Y-82933333D01*
X136167189Y-82911785D01*
X136139334Y-82900000D01*
X136117786Y-82894521D01*
X136106000Y-82866666D01*
X136102226Y-82847426D01*
X136082950Y-82836128D01*
X136039334Y-82833333D01*
X136000854Y-82831446D01*
X135978258Y-82821807D01*
X135972667Y-82800000D01*
X135968893Y-82780760D01*
X135949616Y-82769461D01*
X135906000Y-82766666D01*
X135867521Y-82764779D01*
X135844924Y-82755141D01*
X135839334Y-82733333D01*
X135835559Y-82714093D01*
X135816283Y-82702795D01*
X135772667Y-82700000D01*
X135734187Y-82698112D01*
X135711591Y-82688474D01*
X135706000Y-82666666D01*
X135702226Y-82647426D01*
X135682950Y-82636128D01*
X135639334Y-82633333D01*
X135600854Y-82631446D01*
X135578258Y-82621807D01*
X135572667Y-82600000D01*
X135568893Y-82580760D01*
X135549616Y-82569461D01*
X135506000Y-82566666D01*
X135467521Y-82564779D01*
X135444924Y-82555141D01*
X135439334Y-82533333D01*
X135435559Y-82514093D01*
X135416283Y-82502795D01*
X135372667Y-82500000D01*
X135334187Y-82498112D01*
X135311591Y-82488474D01*
X135306000Y-82466666D01*
X135309775Y-82447426D01*
X135329051Y-82436128D01*
X135372667Y-82433333D01*
X135411147Y-82431446D01*
X135433743Y-82421807D01*
X135439334Y-82400000D01*
X135443108Y-82380760D01*
X135462385Y-82369461D01*
X135506000Y-82366666D01*
X135544480Y-82364779D01*
X135567077Y-82355141D01*
X135572667Y-82333333D01*
X135578145Y-82311785D01*
X135606000Y-82300000D01*
X135627549Y-82294521D01*
X135639334Y-82266666D01*
X135643108Y-82247426D01*
X135662385Y-82236128D01*
X135706000Y-82233333D01*
X135744480Y-82231446D01*
X135767077Y-82221807D01*
X135772667Y-82200000D01*
X135776442Y-82180760D01*
X135795718Y-82169461D01*
X135839334Y-82166666D01*
X135877814Y-82164779D01*
X135900410Y-82155141D01*
X135906000Y-82133333D01*
X135909775Y-82114093D01*
X135929051Y-82102795D01*
X135972667Y-82100000D01*
X136011147Y-82098112D01*
X136033743Y-82088474D01*
X136039334Y-82066666D01*
X136043108Y-82047426D01*
X136062385Y-82036128D01*
X136106000Y-82033333D01*
X136144480Y-82031446D01*
X136167077Y-82021807D01*
X136172667Y-82000000D01*
X136178145Y-81978451D01*
X136206000Y-81966666D01*
X136227549Y-81961188D01*
X136239334Y-81933333D01*
X136243108Y-81914093D01*
X136262385Y-81902795D01*
X136306000Y-81900000D01*
X136344480Y-81898112D01*
X136367077Y-81888474D01*
X136372667Y-81866666D01*
X136376442Y-81847426D01*
X136395718Y-81836128D01*
X136439334Y-81833333D01*
X136477814Y-81831446D01*
X136500410Y-81821807D01*
X136506000Y-81800000D01*
X136509775Y-81780760D01*
X136529051Y-81769461D01*
X136572667Y-81766666D01*
X136611147Y-81764779D01*
X136633743Y-81755141D01*
X136639334Y-81733333D01*
X136643108Y-81714093D01*
X136662385Y-81702795D01*
X136706000Y-81700000D01*
X136744480Y-81698112D01*
X136767077Y-81688474D01*
X136772667Y-81666666D01*
X136774506Y-81651902D01*
X136786636Y-81639892D01*
X136816815Y-81634549D01*
X136872667Y-81633333D01*
X136916959Y-81633946D01*
G37*
G36*
X135050292Y-84700612D02*
G01*
X135086323Y-84704656D01*
X135102352Y-84714715D01*
X135106000Y-84733333D01*
X135109775Y-84752573D01*
X135129051Y-84763871D01*
X135172667Y-84766666D01*
X135211147Y-84768553D01*
X135233743Y-84778192D01*
X135239334Y-84800000D01*
X135244812Y-84821548D01*
X135272667Y-84833333D01*
X135294215Y-84838811D01*
X135306000Y-84866666D01*
X135309775Y-84885906D01*
X135329051Y-84897204D01*
X135372667Y-84900000D01*
X135411147Y-84901887D01*
X135433743Y-84911525D01*
X135439334Y-84933333D01*
X135443108Y-84952573D01*
X135462385Y-84963871D01*
X135506000Y-84966666D01*
X135544480Y-84968553D01*
X135567077Y-84978192D01*
X135572667Y-85000000D01*
X135576442Y-85019239D01*
X135595718Y-85030538D01*
X135639334Y-85033333D01*
X135677814Y-85035220D01*
X135700410Y-85044858D01*
X135706000Y-85066666D01*
X135709775Y-85085906D01*
X135729051Y-85097204D01*
X135772667Y-85100000D01*
X135811147Y-85101887D01*
X135833743Y-85111525D01*
X135839334Y-85133333D01*
X135843108Y-85152573D01*
X135862385Y-85163871D01*
X135906000Y-85166666D01*
X135944480Y-85168553D01*
X135967077Y-85178192D01*
X135972667Y-85200000D01*
X135978145Y-85221548D01*
X136006000Y-85233333D01*
X136027549Y-85238811D01*
X136039334Y-85266666D01*
X136043108Y-85285906D01*
X136062385Y-85297204D01*
X136106000Y-85300000D01*
X136144480Y-85301887D01*
X136167077Y-85311525D01*
X136172667Y-85333333D01*
X136176442Y-85352573D01*
X136195718Y-85363871D01*
X136239334Y-85366666D01*
X136277814Y-85368553D01*
X136300410Y-85378192D01*
X136306000Y-85400000D01*
X136309775Y-85419239D01*
X136329051Y-85430538D01*
X136372667Y-85433333D01*
X136411147Y-85435220D01*
X136433743Y-85444858D01*
X136439334Y-85466666D01*
X136444812Y-85488214D01*
X136472667Y-85500000D01*
X136494215Y-85505478D01*
X136506000Y-85533333D01*
X136502226Y-85552573D01*
X136482950Y-85563871D01*
X136439334Y-85566666D01*
X136400854Y-85568553D01*
X136378258Y-85578192D01*
X136372667Y-85600000D01*
X136368893Y-85619239D01*
X136349616Y-85630538D01*
X136306000Y-85633333D01*
X136267521Y-85635220D01*
X136244924Y-85644858D01*
X136239334Y-85666666D01*
X136233856Y-85688214D01*
X136206000Y-85700000D01*
X136184452Y-85705478D01*
X136172667Y-85733333D01*
X136168893Y-85752573D01*
X136149616Y-85763871D01*
X136106000Y-85766666D01*
X136067521Y-85768553D01*
X136044924Y-85778192D01*
X136039334Y-85800000D01*
X136035559Y-85819239D01*
X136016283Y-85830538D01*
X135972667Y-85833333D01*
X135934187Y-85835220D01*
X135911591Y-85844858D01*
X135906000Y-85866666D01*
X135902226Y-85885906D01*
X135882950Y-85897204D01*
X135839334Y-85900000D01*
X135800854Y-85901887D01*
X135778258Y-85911525D01*
X135772667Y-85933333D01*
X135768893Y-85952573D01*
X135749616Y-85963871D01*
X135706000Y-85966666D01*
X135667521Y-85968553D01*
X135644924Y-85978192D01*
X135639334Y-86000000D01*
X135633856Y-86021548D01*
X135606000Y-86033333D01*
X135584452Y-86038811D01*
X135572667Y-86066666D01*
X135568893Y-86085906D01*
X135549616Y-86097204D01*
X135506000Y-86100000D01*
X135467521Y-86101887D01*
X135444924Y-86111525D01*
X135439334Y-86133333D01*
X135435559Y-86152573D01*
X135416283Y-86163871D01*
X135372667Y-86166666D01*
X135334187Y-86168553D01*
X135311591Y-86178192D01*
X135306000Y-86200000D01*
X135302226Y-86219239D01*
X135282950Y-86230538D01*
X135239334Y-86233333D01*
X135200854Y-86235220D01*
X135178258Y-86244858D01*
X135172667Y-86266666D01*
X135167189Y-86288214D01*
X135139334Y-86300000D01*
X135117786Y-86305478D01*
X135106000Y-86333333D01*
X135104162Y-86348097D01*
X135092032Y-86360107D01*
X135061853Y-86365450D01*
X135006000Y-86366666D01*
X134961709Y-86366053D01*
X134925678Y-86362010D01*
X134909649Y-86351950D01*
X134906000Y-86333333D01*
X134902226Y-86314093D01*
X134882950Y-86302795D01*
X134839334Y-86300000D01*
X134800854Y-86298112D01*
X134778258Y-86288474D01*
X134772667Y-86266666D01*
X134768893Y-86247426D01*
X134749616Y-86236128D01*
X134706000Y-86233333D01*
X134667521Y-86231446D01*
X134644924Y-86221807D01*
X134639334Y-86200000D01*
X134635559Y-86180760D01*
X134616283Y-86169461D01*
X134572667Y-86166666D01*
X134534187Y-86164779D01*
X134511591Y-86155141D01*
X134506000Y-86133333D01*
X134502226Y-86114093D01*
X134482950Y-86102795D01*
X134439334Y-86100000D01*
X134400854Y-86098112D01*
X134378258Y-86088474D01*
X134372667Y-86066666D01*
X134367189Y-86045118D01*
X134339334Y-86033333D01*
X134317786Y-86027855D01*
X134306000Y-86000000D01*
X134302226Y-85980760D01*
X134282950Y-85969461D01*
X134239334Y-85966666D01*
X134200854Y-85964779D01*
X134178258Y-85955141D01*
X134172667Y-85933333D01*
X134168893Y-85914093D01*
X134149616Y-85902795D01*
X134106000Y-85900000D01*
X134067521Y-85898112D01*
X134044924Y-85888474D01*
X134039334Y-85866666D01*
X134035559Y-85847426D01*
X134016283Y-85836128D01*
X133972667Y-85833333D01*
X133934187Y-85831446D01*
X133911591Y-85821807D01*
X133906000Y-85800000D01*
X133902226Y-85780760D01*
X133882950Y-85769461D01*
X133839334Y-85766666D01*
X133800854Y-85764779D01*
X133778258Y-85755141D01*
X133772667Y-85733333D01*
X133767189Y-85711785D01*
X133739334Y-85700000D01*
X133717786Y-85694521D01*
X133706000Y-85666666D01*
X133702226Y-85647426D01*
X133682950Y-85636128D01*
X133639334Y-85633333D01*
X133600854Y-85631446D01*
X133578258Y-85621807D01*
X133572667Y-85600000D01*
X133568893Y-85580760D01*
X133549616Y-85569461D01*
X133506000Y-85566666D01*
X133467521Y-85564779D01*
X133444924Y-85555141D01*
X133439334Y-85533333D01*
X133444812Y-85511785D01*
X133472667Y-85500000D01*
X133494215Y-85494521D01*
X133506000Y-85466666D01*
X133509775Y-85447426D01*
X133529051Y-85436128D01*
X133572667Y-85433333D01*
X133611147Y-85431446D01*
X133633743Y-85421807D01*
X133639334Y-85400000D01*
X133643108Y-85380760D01*
X133662385Y-85369461D01*
X133706000Y-85366666D01*
X133744480Y-85364779D01*
X133767077Y-85355141D01*
X133772667Y-85333333D01*
X133776442Y-85314093D01*
X133795718Y-85302795D01*
X133839334Y-85300000D01*
X133877814Y-85298112D01*
X133900410Y-85288474D01*
X133906000Y-85266666D01*
X133909775Y-85247426D01*
X133929051Y-85236128D01*
X133972667Y-85233333D01*
X134011147Y-85231446D01*
X134033743Y-85221807D01*
X134039334Y-85200000D01*
X134043108Y-85180760D01*
X134062385Y-85169461D01*
X134106000Y-85166666D01*
X134144480Y-85164779D01*
X134167077Y-85155141D01*
X134172667Y-85133333D01*
X134176442Y-85114093D01*
X134195718Y-85102795D01*
X134239334Y-85100000D01*
X134277814Y-85098112D01*
X134300410Y-85088474D01*
X134306000Y-85066666D01*
X134309775Y-85047426D01*
X134329051Y-85036128D01*
X134372667Y-85033333D01*
X134411147Y-85031446D01*
X134433743Y-85021807D01*
X134439334Y-85000000D01*
X134444812Y-84978451D01*
X134472667Y-84966666D01*
X134494215Y-84961188D01*
X134506000Y-84933333D01*
X134509775Y-84914093D01*
X134529051Y-84902795D01*
X134572667Y-84900000D01*
X134611147Y-84898112D01*
X134633743Y-84888474D01*
X134639334Y-84866666D01*
X134643108Y-84847426D01*
X134662385Y-84836128D01*
X134706000Y-84833333D01*
X134744480Y-84831446D01*
X134767077Y-84821807D01*
X134772667Y-84800000D01*
X134776442Y-84780760D01*
X134795718Y-84769461D01*
X134839334Y-84766666D01*
X134877814Y-84764779D01*
X134900410Y-84755141D01*
X134906000Y-84733333D01*
X134907839Y-84718569D01*
X134919969Y-84706559D01*
X134950148Y-84701216D01*
X135006000Y-84700000D01*
X135050292Y-84700612D01*
G37*
D13*
%TO.C,J11*%
X115340000Y-111990000D02*
X117940000Y-111990000D01*
X115340000Y-134970000D02*
X115340000Y-111990000D01*
X115340000Y-134970000D02*
X120540000Y-134970000D01*
X117940000Y-111990000D02*
X117940000Y-114590000D01*
X117940000Y-114590000D02*
X120540000Y-114590000D01*
X119210000Y-111990000D02*
X120540000Y-111990000D01*
X120540000Y-111990000D02*
X120540000Y-113320000D01*
X120540000Y-134970000D02*
X120540000Y-114590000D01*
D14*
%TO.C,J6*%
X169200000Y-117675009D02*
X169200000Y-124824994D01*
X169200000Y-124824994D02*
X170964906Y-124824994D01*
X170964913Y-117675009D02*
X169200000Y-117675009D01*
X172155094Y-124824994D02*
X172945893Y-124824994D01*
X172945890Y-117675009D02*
X172155087Y-117675009D01*
X174865000Y-126602994D02*
X175500000Y-125078994D01*
X175054107Y-124824994D02*
X177970000Y-124824994D01*
X175500000Y-125078994D02*
X176135000Y-126602994D01*
X176135000Y-126602994D02*
X174865000Y-126602994D01*
X177970000Y-117675009D02*
X175054111Y-117675009D01*
X177970000Y-124824994D02*
X177970000Y-117675009D01*
D13*
%TO.C,J9*%
X115340000Y-77890000D02*
X117940000Y-77890000D01*
X115340000Y-100870000D02*
X115340000Y-77890000D01*
X115340000Y-100870000D02*
X120540000Y-100870000D01*
X117940000Y-77890000D02*
X117940000Y-80490000D01*
X117940000Y-80490000D02*
X120540000Y-80490000D01*
X119210000Y-77890000D02*
X120540000Y-77890000D01*
X120540000Y-77890000D02*
X120540000Y-79220000D01*
X120540000Y-100870000D02*
X120540000Y-80490000D01*
%TD*%
M02*
