%TF.GenerationSoftware,KiCad,Pcbnew,8.0.4*%
%TF.CreationDate,2024-08-28T23:43:30-07:00*%
%TF.ProjectId,Modubot,4d6f6475-626f-4742-9e6b-696361645f70,rev?*%
%TF.SameCoordinates,Original*%
%TF.FileFunction,Soldermask,Bot*%
%TF.FilePolarity,Negative*%
%FSLAX46Y46*%
G04 Gerber Fmt 4.6, Leading zero omitted, Abs format (unit mm)*
G04 Created by KiCad (PCBNEW 8.0.4) date 2024-08-28 23:43:30*
%MOMM*%
%LPD*%
G01*
G04 APERTURE LIST*
%ADD10C,2.200000*%
%ADD11C,1.020000*%
%ADD12C,1.520000*%
%ADD13C,2.909999*%
%ADD14R,1.700000X1.700000*%
%ADD15O,1.700000X1.700000*%
G04 APERTURE END LIST*
D10*
%TO.C,H3*%
X113360200Y-73914000D03*
%TD*%
D11*
%TO.C,J7*%
X171750000Y-83000000D03*
X165750012Y-83000000D03*
D12*
X168750011Y-79060000D03*
X168750011Y-82059999D03*
D13*
X166600013Y-80560000D03*
X170900009Y-80560000D03*
%TD*%
D14*
%TO.C,J8*%
X152400000Y-138430000D03*
D15*
X149860000Y-138430000D03*
X147320000Y-138430000D03*
X144780000Y-138430000D03*
%TD*%
D11*
%TO.C,J10*%
X129080011Y-126870000D03*
X135079999Y-126870000D03*
D12*
X132080000Y-130810000D03*
X132080000Y-127810001D03*
D13*
X134229998Y-129310000D03*
X129930002Y-129310000D03*
%TD*%
D14*
%TO.C,J3*%
X165300000Y-96900000D03*
D15*
X162760000Y-96900000D03*
X165300000Y-94360000D03*
X162760000Y-94360000D03*
X165300000Y-91820000D03*
X162760000Y-91820000D03*
%TD*%
D11*
%TO.C,J5*%
X147440001Y-75250011D03*
X147440001Y-81249999D03*
D12*
X143500001Y-78250000D03*
X146500000Y-78250000D03*
D13*
X145000001Y-80399998D03*
X145000001Y-76100002D03*
%TD*%
D10*
%TO.C,H2*%
X178360000Y-73920000D03*
%TD*%
D11*
%TO.C,J2*%
X129370000Y-112959984D03*
X129370000Y-103960002D03*
D12*
X133310000Y-106960001D03*
X133310000Y-109960000D03*
X130310001Y-106960001D03*
X130310001Y-109960000D03*
D13*
X131810000Y-104810003D03*
X131810000Y-112109998D03*
%TD*%
D10*
%TO.C,H1*%
X178370000Y-138920000D03*
%TD*%
%TO.C,H4*%
X136360000Y-138920000D03*
%TD*%
D14*
%TO.C,J12*%
X162052000Y-138405000D03*
D15*
X159512000Y-138405000D03*
%TD*%
D14*
%TO.C,J4*%
X141325600Y-118059200D03*
D15*
X141325600Y-115519200D03*
X143865600Y-118059200D03*
X143865600Y-115519200D03*
X146405600Y-118059200D03*
X146405600Y-115519200D03*
X148945600Y-118059200D03*
X148945600Y-115519200D03*
%TD*%
D10*
%TO.C,H3*%
X136360200Y-73914000D03*
%TD*%
%TO.C,H4*%
X113360000Y-138920000D03*
%TD*%
D14*
%TO.C,J11*%
X119210000Y-113320000D03*
D15*
X116670000Y-113320000D03*
X119210000Y-115860000D03*
X116670000Y-115860000D03*
X119210000Y-118400000D03*
X116670000Y-118400000D03*
X119210000Y-120940000D03*
X116670000Y-120940000D03*
X119210000Y-123480000D03*
X116670000Y-123480000D03*
X119210000Y-126020000D03*
X116670000Y-126020000D03*
X119210000Y-128560000D03*
X116670000Y-128560000D03*
X119210000Y-131100000D03*
X116670000Y-131100000D03*
X119210000Y-133640000D03*
X116670000Y-133640000D03*
%TD*%
D11*
%TO.C,J6*%
X171560000Y-118250011D03*
X171560000Y-124249999D03*
D12*
X175500000Y-121250000D03*
X172500001Y-121250000D03*
D13*
X174000000Y-123399998D03*
X174000000Y-119100002D03*
%TD*%
D14*
%TO.C,J9*%
X119210000Y-79220000D03*
D15*
X116670000Y-79220000D03*
X119210000Y-81760000D03*
X116670000Y-81760000D03*
X119210000Y-84300000D03*
X116670000Y-84300000D03*
X119210000Y-86840000D03*
X116670000Y-86840000D03*
X119210000Y-89380000D03*
X116670000Y-89380000D03*
X119210000Y-91920000D03*
X116670000Y-91920000D03*
X119210000Y-94460000D03*
X116670000Y-94460000D03*
X119210000Y-97000000D03*
X116670000Y-97000000D03*
X119210000Y-99540000D03*
X116670000Y-99540000D03*
%TD*%
M02*
