%TF.GenerationSoftware,KiCad,Pcbnew,8.0.4*%
%TF.CreationDate,2024-08-28T23:43:30-07:00*%
%TF.ProjectId,Modubot,4d6f6475-626f-4742-9e6b-696361645f70,rev?*%
%TF.SameCoordinates,Original*%
%TF.FileFunction,Soldermask,Top*%
%TF.FilePolarity,Negative*%
%FSLAX46Y46*%
G04 Gerber Fmt 4.6, Leading zero omitted, Abs format (unit mm)*
G04 Created by KiCad (PCBNEW 8.0.4) date 2024-08-28 23:43:30*
%MOMM*%
%LPD*%
G01*
G04 APERTURE LIST*
G04 Aperture macros list*
%AMRoundRect*
0 Rectangle with rounded corners*
0 $1 Rounding radius*
0 $2 $3 $4 $5 $6 $7 $8 $9 X,Y pos of 4 corners*
0 Add a 4 corners polygon primitive as box body*
4,1,4,$2,$3,$4,$5,$6,$7,$8,$9,$2,$3,0*
0 Add four circle primitives for the rounded corners*
1,1,$1+$1,$2,$3*
1,1,$1+$1,$4,$5*
1,1,$1+$1,$6,$7*
1,1,$1+$1,$8,$9*
0 Add four rect primitives between the rounded corners*
20,1,$1+$1,$2,$3,$4,$5,0*
20,1,$1+$1,$4,$5,$6,$7,0*
20,1,$1+$1,$6,$7,$8,$9,0*
20,1,$1+$1,$8,$9,$2,$3,0*%
G04 Aperture macros list end*
%ADD10RoundRect,0.218750X-0.218750X-0.256250X0.218750X-0.256250X0.218750X0.256250X-0.218750X0.256250X0*%
%ADD11C,2.200000*%
%ADD12RoundRect,0.140000X0.170000X-0.140000X0.170000X0.140000X-0.170000X0.140000X-0.170000X-0.140000X0*%
%ADD13RoundRect,0.225000X0.250000X-0.225000X0.250000X0.225000X-0.250000X0.225000X-0.250000X-0.225000X0*%
%ADD14RoundRect,0.135000X-0.135000X-0.185000X0.135000X-0.185000X0.135000X0.185000X-0.135000X0.185000X0*%
%ADD15RoundRect,0.135000X-0.185000X0.135000X-0.185000X-0.135000X0.185000X-0.135000X0.185000X0.135000X0*%
%ADD16RoundRect,0.102000X-0.800000X-0.600000X0.800000X-0.600000X0.800000X0.600000X-0.800000X0.600000X0*%
%ADD17RoundRect,0.102000X-0.800000X-1.650000X0.800000X-1.650000X0.800000X1.650000X-0.800000X1.650000X0*%
%ADD18RoundRect,0.140000X-0.140000X-0.170000X0.140000X-0.170000X0.140000X0.170000X-0.140000X0.170000X0*%
%ADD19C,1.020000*%
%ADD20C,1.520000*%
%ADD21C,2.909999*%
%ADD22R,1.700000X1.700000*%
%ADD23O,1.700000X1.700000*%
%ADD24RoundRect,0.135000X0.185000X-0.135000X0.185000X0.135000X-0.185000X0.135000X-0.185000X-0.135000X0*%
%ADD25R,1.200000X1.400000*%
%ADD26RoundRect,0.140000X0.140000X0.170000X-0.140000X0.170000X-0.140000X-0.170000X0.140000X-0.170000X0*%
%ADD27RoundRect,0.075000X-0.700000X-0.075000X0.700000X-0.075000X0.700000X0.075000X-0.700000X0.075000X0*%
%ADD28RoundRect,0.075000X-0.075000X-0.700000X0.075000X-0.700000X0.075000X0.700000X-0.075000X0.700000X0*%
%ADD29R,0.650000X1.500000*%
%ADD30R,0.250000X0.475000*%
%ADD31R,0.475000X0.250000*%
%ADD32RoundRect,0.140000X-0.170000X0.140000X-0.170000X-0.140000X0.170000X-0.140000X0.170000X0.140000X0*%
%ADD33R,1.500000X0.650000*%
%ADD34RoundRect,0.135000X0.135000X0.185000X-0.135000X0.185000X-0.135000X-0.185000X0.135000X-0.185000X0*%
%ADD35RoundRect,0.225000X0.225000X0.250000X-0.225000X0.250000X-0.225000X-0.250000X0.225000X-0.250000X0*%
%ADD36RoundRect,0.218750X0.256250X-0.218750X0.256250X0.218750X-0.256250X0.218750X-0.256250X-0.218750X0*%
%ADD37RoundRect,0.218750X-0.256250X0.218750X-0.256250X-0.218750X0.256250X-0.218750X0.256250X0.218750X0*%
%ADD38R,0.600000X1.150000*%
%ADD39R,2.250000X0.500000*%
%ADD40R,3.500000X2.050000*%
%ADD41R,4.000000X2.050000*%
%ADD42R,2.160000X3.350000*%
G04 APERTURE END LIST*
D10*
%TO.C,D3*%
X138912500Y-96520000D03*
X140487500Y-96520000D03*
%TD*%
D11*
%TO.C,H3*%
X113360200Y-73914000D03*
%TD*%
D12*
%TO.C,C16*%
X142360000Y-104600000D03*
X142360000Y-103640000D03*
%TD*%
%TO.C,C6*%
X146260000Y-100700000D03*
X146260000Y-99740000D03*
%TD*%
D13*
%TO.C,C13*%
X142365000Y-130415000D03*
X142365000Y-128865000D03*
%TD*%
D14*
%TO.C,R4*%
X170400000Y-131339500D03*
X171420000Y-131339500D03*
%TD*%
D15*
%TO.C,R8*%
X171750000Y-113240000D03*
X171750000Y-114260000D03*
%TD*%
D16*
%TO.C,LDO2*%
X144730000Y-127240000D03*
X144730000Y-129540000D03*
X144730000Y-131840000D03*
D17*
X151130000Y-129540000D03*
%TD*%
D18*
%TO.C,C11*%
X159065648Y-126670000D03*
X160025648Y-126670000D03*
%TD*%
D19*
%TO.C,J7*%
X171750000Y-83000000D03*
X165750012Y-83000000D03*
D20*
X168750011Y-79060000D03*
X168750011Y-82059999D03*
D21*
X166600013Y-80560000D03*
X170900009Y-80560000D03*
%TD*%
D22*
%TO.C,J8*%
X152400000Y-138430000D03*
D23*
X149860000Y-138430000D03*
X147320000Y-138430000D03*
X144780000Y-138430000D03*
%TD*%
D18*
%TO.C,C8*%
X156212600Y-113360200D03*
X157172600Y-113360200D03*
%TD*%
D24*
%TO.C,R1*%
X162490000Y-105160000D03*
X162490000Y-104140000D03*
%TD*%
D25*
%TO.C,Y2*%
X139010000Y-101820000D03*
X139010000Y-104020000D03*
X140710000Y-104020000D03*
X140710000Y-101820000D03*
%TD*%
D19*
%TO.C,J10*%
X129080011Y-126870000D03*
X135079999Y-126870000D03*
D20*
X132080000Y-130810000D03*
X132080000Y-127810001D03*
D21*
X134229998Y-129310000D03*
X129930002Y-129310000D03*
%TD*%
D14*
%TO.C,R11*%
X155240000Y-84600000D03*
X156260000Y-84600000D03*
%TD*%
D22*
%TO.C,J3*%
X165300000Y-96900000D03*
D23*
X162760000Y-96900000D03*
X165300000Y-94360000D03*
X162760000Y-94360000D03*
X165300000Y-91820000D03*
X162760000Y-91820000D03*
%TD*%
D19*
%TO.C,J5*%
X147440001Y-75250011D03*
X147440001Y-81249999D03*
D20*
X143500001Y-78250000D03*
X146500000Y-78250000D03*
D21*
X145000001Y-80399998D03*
X145000001Y-76100002D03*
%TD*%
D26*
%TO.C,C12*%
X160950000Y-132520000D03*
X159990000Y-132520000D03*
%TD*%
D27*
%TO.C,U1*%
X148010000Y-100740000D03*
X148010000Y-101240000D03*
X148010000Y-101740000D03*
X148010000Y-102240000D03*
X148010000Y-102740000D03*
X148010000Y-103240000D03*
X148010000Y-103740000D03*
X148010000Y-104240000D03*
X148010000Y-104740000D03*
X148010000Y-105240000D03*
X148010000Y-105740000D03*
X148010000Y-106240000D03*
X148010000Y-106740000D03*
X148010000Y-107240000D03*
X148010000Y-107740000D03*
X148010000Y-108240000D03*
D28*
X149935000Y-110165000D03*
X150435000Y-110165000D03*
X150935000Y-110165000D03*
X151435000Y-110165000D03*
X151935000Y-110165000D03*
X152435000Y-110165000D03*
X152935000Y-110165000D03*
X153435000Y-110165000D03*
X153935000Y-110165000D03*
X154435000Y-110165000D03*
X154935000Y-110165000D03*
X155435000Y-110165000D03*
X155935000Y-110165000D03*
X156435000Y-110165000D03*
X156935000Y-110165000D03*
X157435000Y-110165000D03*
D27*
X159360000Y-108240000D03*
X159360000Y-107740000D03*
X159360000Y-107240000D03*
X159360000Y-106740000D03*
X159360000Y-106240000D03*
X159360000Y-105740000D03*
X159360000Y-105240000D03*
X159360000Y-104740000D03*
X159360000Y-104240000D03*
X159360000Y-103740000D03*
X159360000Y-103240000D03*
X159360000Y-102740000D03*
X159360000Y-102240000D03*
X159360000Y-101740000D03*
X159360000Y-101240000D03*
X159360000Y-100740000D03*
D28*
X157435000Y-98815000D03*
X156935000Y-98815000D03*
X156435000Y-98815000D03*
X155935000Y-98815000D03*
X155435000Y-98815000D03*
X154935000Y-98815000D03*
X154435000Y-98815000D03*
X153935000Y-98815000D03*
X153435000Y-98815000D03*
X152935000Y-98815000D03*
X152435000Y-98815000D03*
X151935000Y-98815000D03*
X151435000Y-98815000D03*
X150935000Y-98815000D03*
X150435000Y-98815000D03*
X149935000Y-98815000D03*
%TD*%
D12*
%TO.C,C4*%
X146060000Y-108720000D03*
X146060000Y-107760000D03*
%TD*%
%TO.C,C9*%
X157378400Y-115415000D03*
X157378400Y-114455000D03*
%TD*%
D29*
%TO.C,CAN1*%
X145595000Y-91950000D03*
X146865000Y-91950000D03*
X148135000Y-91950000D03*
X149405000Y-91950000D03*
X149405000Y-86550000D03*
X148135000Y-86550000D03*
X146865000Y-86550000D03*
X145595000Y-86550000D03*
%TD*%
D30*
%TO.C,IMU1*%
X165530000Y-107766000D03*
X166030000Y-107766000D03*
X166530000Y-107766000D03*
X167030000Y-107766000D03*
D31*
X167192000Y-107103000D03*
X167192000Y-106603000D03*
X167192000Y-106103000D03*
D30*
X167030000Y-105440000D03*
X166530000Y-105440000D03*
X166030000Y-105440000D03*
X165530000Y-105440000D03*
D31*
X165368000Y-106103000D03*
X165368000Y-106603000D03*
X165368000Y-107103000D03*
%TD*%
D11*
%TO.C,H2*%
X178360000Y-73920000D03*
%TD*%
D32*
%TO.C,C23*%
X169180000Y-104970000D03*
X169180000Y-105930000D03*
%TD*%
D18*
%TO.C,C19*%
X155270000Y-93300000D03*
X156230000Y-93300000D03*
%TD*%
D33*
%TO.C,CAN2*%
X164800000Y-111845000D03*
X164800000Y-113115000D03*
X164800000Y-114385000D03*
X164800000Y-115655000D03*
X170200000Y-115655000D03*
X170200000Y-114385000D03*
X170200000Y-113115000D03*
X170200000Y-111845000D03*
%TD*%
D18*
%TO.C,C24*%
X169140000Y-107080000D03*
X170100000Y-107080000D03*
%TD*%
D19*
%TO.C,J2*%
X129370000Y-112959984D03*
X129370000Y-103960002D03*
D20*
X133310000Y-106960001D03*
X133310000Y-109960000D03*
X130310001Y-106960001D03*
X130310001Y-109960000D03*
D21*
X131810000Y-104810003D03*
X131810000Y-112109998D03*
%TD*%
D34*
%TO.C,R14*%
X137466800Y-96418400D03*
X136446800Y-96418400D03*
%TD*%
D11*
%TO.C,H1*%
X178370000Y-138920000D03*
%TD*%
D35*
%TO.C,C14*%
X151340000Y-125140000D03*
X149790000Y-125140000D03*
%TD*%
D26*
%TO.C,C25*%
X155242200Y-112268000D03*
X154282200Y-112268000D03*
%TD*%
D12*
%TO.C,C15*%
X142360000Y-102500000D03*
X142360000Y-101540000D03*
%TD*%
D32*
%TO.C,C3*%
X161137600Y-100002400D03*
X161137600Y-100962400D03*
%TD*%
D26*
%TO.C,C26*%
X155216800Y-113360200D03*
X154256800Y-113360200D03*
%TD*%
D24*
%TO.C,R15*%
X161450000Y-106150000D03*
X161450000Y-105130000D03*
%TD*%
D14*
%TO.C,R3*%
X170390000Y-133720000D03*
X171410000Y-133720000D03*
%TD*%
D36*
%TO.C,D2*%
X168910000Y-131089500D03*
X168910000Y-129514500D03*
%TD*%
D32*
%TO.C,C10*%
X133858000Y-91468000D03*
X133858000Y-92428000D03*
%TD*%
D14*
%TO.C,R5*%
X146990000Y-84850000D03*
X148010000Y-84850000D03*
%TD*%
D37*
%TO.C,D1*%
X168910000Y-133832500D03*
X168910000Y-135407500D03*
%TD*%
D18*
%TO.C,C17*%
X147020000Y-93550000D03*
X147980000Y-93550000D03*
%TD*%
D36*
%TO.C,FB1*%
X155981400Y-116179700D03*
X155981400Y-114604700D03*
%TD*%
D32*
%TO.C,C5*%
X158660000Y-110560000D03*
X158660000Y-111520000D03*
%TD*%
D11*
%TO.C,H4*%
X136360000Y-138920000D03*
%TD*%
D22*
%TO.C,J12*%
X162052000Y-138405000D03*
D23*
X159512000Y-138405000D03*
%TD*%
D38*
%TO.C,LDO1*%
X160970000Y-128270000D03*
X160020000Y-128270000D03*
X159070000Y-128270000D03*
X159070000Y-130870000D03*
X160970000Y-130870000D03*
%TD*%
D32*
%TO.C,C18*%
X163029998Y-113270000D03*
X163029998Y-114230000D03*
%TD*%
D18*
%TO.C,C7*%
X156187200Y-112268000D03*
X157147200Y-112268000D03*
%TD*%
D15*
%TO.C,R2*%
X162306000Y-100582000D03*
X162306000Y-101602000D03*
%TD*%
D22*
%TO.C,J4*%
X141325600Y-118059200D03*
D23*
X141325600Y-115519200D03*
X143865600Y-118059200D03*
X143865600Y-115519200D03*
X146405600Y-118059200D03*
X146405600Y-115519200D03*
X148945600Y-118059200D03*
X148945600Y-115519200D03*
%TD*%
D39*
%TO.C,J1*%
X173913800Y-99990000D03*
X173913800Y-100790000D03*
X173913800Y-101590000D03*
X173913800Y-102390000D03*
X173913800Y-103190000D03*
D40*
X173888800Y-96665000D03*
X173888800Y-106515000D03*
D41*
X178138800Y-96665000D03*
X178138800Y-106515000D03*
%TD*%
D11*
%TO.C,H3*%
X136360200Y-73914000D03*
%TD*%
D29*
%TO.C,CAN3*%
X153845000Y-91700000D03*
X155115000Y-91700000D03*
X156385000Y-91700000D03*
X157655000Y-91700000D03*
X157655000Y-86300000D03*
X156385000Y-86300000D03*
X155115000Y-86300000D03*
X153845000Y-86300000D03*
%TD*%
D13*
%TO.C,C1*%
X144526000Y-109095000D03*
X144526000Y-107545000D03*
%TD*%
D18*
%TO.C,C2*%
X149270000Y-97120000D03*
X150230000Y-97120000D03*
%TD*%
D11*
%TO.C,H4*%
X113360000Y-138920000D03*
%TD*%
D42*
%TO.C,SW3*%
X130302000Y-81435000D03*
X130302000Y-91285000D03*
%TD*%
D22*
%TO.C,J11*%
X119210000Y-113320000D03*
D23*
X116670000Y-113320000D03*
X119210000Y-115860000D03*
X116670000Y-115860000D03*
X119210000Y-118400000D03*
X116670000Y-118400000D03*
X119210000Y-120940000D03*
X116670000Y-120940000D03*
X119210000Y-123480000D03*
X116670000Y-123480000D03*
X119210000Y-126020000D03*
X116670000Y-126020000D03*
X119210000Y-128560000D03*
X116670000Y-128560000D03*
X119210000Y-131100000D03*
X116670000Y-131100000D03*
X119210000Y-133640000D03*
X116670000Y-133640000D03*
%TD*%
D19*
%TO.C,J6*%
X171560000Y-118250011D03*
X171560000Y-124249999D03*
D20*
X175500000Y-121250000D03*
X172500001Y-121250000D03*
D21*
X174000000Y-123399998D03*
X174000000Y-119100002D03*
%TD*%
D22*
%TO.C,J9*%
X119210000Y-79220000D03*
D23*
X116670000Y-79220000D03*
X119210000Y-81760000D03*
X116670000Y-81760000D03*
X119210000Y-84300000D03*
X116670000Y-84300000D03*
X119210000Y-86840000D03*
X116670000Y-86840000D03*
X119210000Y-89380000D03*
X116670000Y-89380000D03*
X119210000Y-91920000D03*
X116670000Y-91920000D03*
X119210000Y-94460000D03*
X116670000Y-94460000D03*
X119210000Y-97000000D03*
X116670000Y-97000000D03*
X119210000Y-99540000D03*
X116670000Y-99540000D03*
%TD*%
M02*
